<?xml version="1.0" encoding="utf-8"?>
<!-- Generator: Adobe Illustrator 21.0.0, SVG Export Plug-In . SVG Version: 6.00 Build 0)  -->
<svg version="1.1" id="圖層_1" xmlns="http://www.w3.org/2000/svg" xmlns:xlink="http://www.w3.org/1999/xlink" x="0px" y="0px"
	 width="69px" height="67px" viewBox="0 0 69 67" style="enable-background:new 0 0 69 67;" xml:space="preserve">
<style type="text/css">
	.st0{fill:#F4B82C;}
</style>
<g id="Group_9-2" transform="translate(-722.986 25)">
	<g id="Group_6-2" transform="translate(0)">
		<path id="Path_14-2" d="M724,27c1.9-0.5,3.8-1,5.7-1.5c3.7-1,7.4-2.2,10.9-3.7c1.5-0.6,2.8-1.5,3.9-2.7c0.8-0.8,1.3-1.9,1.5-3.1
			c0.1-0.6-0.1-1.2-0.5-1.7c-0.7-0.7-1.4-1.3-2.1-1.9c-0.7-0.6-1.4-1-2.1-1.6c-1.3-1.2-1.9-3-1.6-4.8c0.4-3.7,2.7-6.9,6-8.5
			c2.6-1.3,5.4-2.2,8.3-2.7c3.4-0.6,6.7-1.1,10.1-1.8c2.1-0.4,4.2-1,6.4-1.5c2.6-0.6,5.3-0.9,8-0.8c3.8,0.2,7.3,1.6,10.2,4.1
			c1.8,1.6,3,3.8,3.2,6.2c0.3,2.8-0.2,5.6-1.5,8.2c-0.9,1.7-2.3,3.1-3.9,4.1c-1.8,1.1-3.8,1.9-5.9,2.5c-2.8,0.9-5.7,1.5-8.6,2
			c-0.3,0-0.3,0.2-0.3,0.4c0,7.7,0,15.4,0,23.2c0,0.6,0,0.5-0.5,0.5c-1.6,0-3.1,0-4.7,0h-0.4c0-0.2,0-0.3,0-0.4c0-3.4,0-6.8,0-10.2
			c0-3.9,0-7.8,0-11.8c0-3.9,0-7.8,0-11.8c0-1.6-0.1-3.1,0-4.7c0-1.6-1.2-3-2.8-3.2c-1.6-0.2-3.3,0-4.8,0.4
			c-2.7,0.7-5.3,1.9-7.7,3.4c-0.4,0.3-0.8,0.7-1.2,1.1c-1.1,1.2-1.1,3,0,4.1c0.8,0.8,1.6,1.6,2.5,2.4c0.7,0.7,1.6,1.3,2.2,2
			c1.9,1.8,2.2,4.7,0.7,6.9c-1,1.6-2.3,3-3.8,4.1c-2.7,2.1-5.6,3.7-8.8,4.8c-2.8,1-5.6,1.9-8.5,2.8c-1.7,0.6-3.4,1.1-5.1,1.6
			c-0.4,0.1-0.9,0.2-1.3,0.3c-0.2,0-0.3-0.1-0.4-0.2c-1-2.2-2-4.4-3-6.5C724,27.1,724,27.1,724,27z M779.4,0.9
			c-0.6-0.4-1.2-0.9-1.9-1.2c-1.6-0.7-3.5-0.8-5.2-0.3c-0.3,0.1-0.3,0.2-0.3,0.5c0,3.2,0,6.4,0,9.7c0,0.1,0,0.2,0,0.3
			c0.8-0.3,1.6-0.6,2.4-0.8c1.3-0.4,2.8-0.3,4,0.4c0.5,0.4,1.2,0.4,1.8,0.1c2-0.8,4.2-0.7,6,0.3l0.4,0.2c0-0.1,0-0.1,0-0.2
			c0-3.3,0-6.7,0-10c0-0.1-0.1-0.3-0.3-0.3c-1.3-0.4-2.7-0.5-4-0.2C781.3-0.4,780.3,0.2,779.4,0.9z"/>
		<ellipse id="Ellipse_3-2" class="st0" cx="748.5" cy="-14.9" rx="6.3" ry="6.3"/>
		<ellipse id="Ellipse_4-2" class="st0" cx="775.5" cy="-18.7" rx="6.3" ry="6.3"/>
	</g>
</g>
</svg>
