<?xml version="1.0" encoding="utf-8"?>
<!-- Generator: Adobe Illustrator 21.0.0, SVG Export Plug-In . SVG Version: 6.00 Build 0)  -->
<svg version="1.1" id="Group_22" xmlns="http://www.w3.org/2000/svg" xmlns:xlink="http://www.w3.org/1999/xlink" x="0px" y="0px"
	 width="387px" height="266.3px" viewBox="0 0 387 266.3" style="enable-background:new 0 0 387 266.3;" xml:space="preserve">
<style type="text/css">
	.st0{fill:#3281D1;}
	.st1{fill:none;stroke:#7999B9;}
</style>
<g>
	<path id="Path_207" d="M63,23.1h279c24.9,0,45,15.9,45,35.6v171.8c0,19.7-20.1,35.6-45,35.6H63c-24.9,0-45-15.9-45-35.6V58.8
		C18,39.1,38.1,23.1,63,23.1z"/>
	<g id="Rectangle_2">
		<path class="st0" d="M45,0.2h279c24.9,0,45,20.1,45,44.9v152.8c0,24.8-20.1,44.9-45,44.9H45c-24.9,0-45-20.1-45-44.9V45.1
			C0,20.3,20.1,0.2,45,0.2z"/>
		<path class="st1" d="M45,0.7h279c24.6,0,44.5,19.9,44.5,44.4v152.8c0,24.5-19.9,44.4-44.5,44.4H45c-24.6,0-44.5-19.9-44.5-44.4
			V45.1C0.5,20.6,20.4,0.7,45,0.7z"/>
	</g>
</g>
</svg>
