<?xml version="1.0" encoding="utf-8"?>
<!-- Generator: Adobe Illustrator 21.0.0, SVG Export Plug-In . SVG Version: 6.00 Build 0)  -->
<svg version="1.1" id="圖層_1" xmlns="http://www.w3.org/2000/svg" xmlns:xlink="http://www.w3.org/1999/xlink" x="0px" y="0px"
	 width="90px" height="20px" viewBox="0 0 90 20" style="enable-background:new 0 0 90 20;" xml:space="preserve">
<style type="text/css">
	.st0{fill:#1F94D8;}
</style>
<g id="Group_59" transform="translate(-2461.424 164.95)">
	<path id="Path_77" class="st0" d="M2534.1-154h-54.9c-0.6,0-1.1-0.5-1.1-1.1c0-0.6,0.5-1.1,1.1-1.1h54.9c0.6,0,1.1,0.5,1.1,1.1
		S2534.7-154,2534.1-154z"/>
	<g id="Group_41" transform="translate(2495.074 -147.402)">
		<path id="Path_78" class="st0" d="M34.2,2.2H1.1C0.5,2.2,0,1.7,0,1.1S0.5,0,1.1,0h33.1c0.6,0,1.1,0.5,1.1,1.1
			C35.3,1.7,34.8,2.2,34.2,2.2z"/>
		<path id="Path_79" class="st0" d="M55.3,2.2h-9.5c-0.6,0-1.1-0.5-1.1-1.1c0-0.6,0.5-1.1,1.1-1.1h9.5c0.6,0,1.1,0.5,1.1,1.1
			S55.9,2.2,55.3,2.2z"/>
	</g>
	<path id="Path_80" class="st0" d="M2496-162.8h-33.5c-0.6,0-1.1-0.5-1.1-1.1s0.5-1.1,1.1-1.1h33.5c0.6,0,1.1,0.5,1.1,1.1
		C2497.1-163.3,2496.6-162.8,2496-162.8C2496-162.8,2496-162.8,2496-162.8z"/>
</g>
</svg>
