<?xml version="1.0" encoding="utf-8"?>
<!-- Generator: Adobe Illustrator 21.0.0, SVG Export Plug-In . SVG Version: 6.00 Build 0)  -->
<svg version="1.1" id="圖層_1" xmlns="http://www.w3.org/2000/svg" xmlns:xlink="http://www.w3.org/1999/xlink" x="0px" y="0px"
	 width="64px" height="64px" viewBox="0 0 64 64" style="enable-background:new 0 0 64 64;" xml:space="preserve">
<style type="text/css">
	.st0{display:none;}
	.st1{display:inline;fill:#1F94D8;}
	.st2{fill:#1F94D8;}
	.st3{display:inline;}
	.st4{font-family:'DIN-Black';}
	.st5{font-size:23.6718px;}
</style>
<g class="st0">
	<path class="st1" d="M54.6,9.4c-5.7-5.7-13.2-9-21.2-9.3c0,0,0,0,0,0c-0.5,0-0.9,0-1.4,0C23.5,0,15.4,3.3,9.4,9.4
		C3.3,15.4,0,23.5,0,32s3.3,16.6,9.4,22.6c6,6,14.1,9.4,22.6,9.4c2.3,0,4.6-0.2,6.9-0.7c0.4-0.1,0.6-0.5,0.5-0.8
		c-0.1-0.4-0.5-0.6-0.8-0.5c-2.1,0.5-4.4,0.7-6.6,0.7c-5.8,0-11.1-1.6-15.7-4.4c-0.5-0.4-2.5-2-2.5-4c0-1.3,0.8-2.7,2.5-3.9
		c2.7-2,2.9-5.8,1.8-8.6c-0.8-2.3-2.3-3.7-3.9-3.6c-1.6,0.1-2.9-1-4.2-2.1c-0.8-0.7-1.7-1.5-2.7-2c-2-0.9-4.5-0.1-5.8,0.5
		c-0.1-0.9-0.1-1.7-0.1-2.6c0-0.4,0-0.8,0-1.2c1.1,1,2.4,1.4,3.4,1.4c0.6,0,1.2-0.2,1.7-0.4c1.1-0.6,1.5-1.8,1.1-2.9
		c-0.6-1.4,0.4-2.3,2.2-3.6c0.2-0.2,0.4-0.3,0.6-0.5c1.1-0.8,1.9-3,3-5.6c0.7-1.8,1.5-3.6,2.2-4.7c1.6-2.3-1-5.4-2.3-6.7
		c5.1-3.9,11.4-6.3,18.2-6.4c-1,0.8-2.4,2-4.3,3.5c-1,0.7-2.1,1.4-3.1,2.1c-2.4,1.5-4.4,2.7-4.7,4.4c-0.1,0.7,0,1.4,0.5,2
		c0.4,0.6,0.6,1.1,0.8,1.6c0.3,0.9,0.6,1.9,2.2,2.4c0.2,0.1,0.5,0.1,0.7,0.2c-0.1,0-0.2,0.1-0.3,0.1c-0.1,0-0.3,0.1-0.4,0.2
		c0,0-1.4,1.8-2.7,3.8c-0.7,1-1.2,1.8-1.6,2.6c-0.3,0.6-0.6,1.1-0.7,1.6c-0.1,0.3-0.3,0.6-0.4,1l-0.1,0.3c-0.7,1.5-1.6,3.3-0.9,5.1
		c0.5,1.2,1.6,2.1,3.4,2.9c2.7,1.1,4.7,0.9,6.1,0.8c0.7-0.1,1.3-0.1,1.5,0.1c0.1,0.1,0.2,0.3,0.3,1c0.1,1.4,0.4,2.3,0.6,3
		c0.4,1.1,0.6,1.7-0.1,3.8c-1,3-0.2,9.2,2.1,11.3c0.6,0.5,1.2,0.8,1.9,0.8c0.4,0,0.8-0.1,1.1-0.2c3.1-1.4,4.4-3.6,5.5-5.3
		c0.3-0.5,0.5-0.9,0.8-1.3c1.4-1.9,2.1-3.4,2.6-6.6c0.2-1.1,1.7-2.7,3-4.1c1.6-1.7,2.8-3.1,2.5-4.2c-0.1-0.3-0.3-0.8-1.1-1
		c-2.7-0.9-6.6-5.3-7.1-8c-0.7-3.5-5.3-4-8.8-4c-0.8,0-1.3-0.5-2-1.3c-0.5-0.6-1.1-1.3-1.9-1.7c1.1,0,2.3-0.1,3.8-0.2
		c8.9-0.7,10.6,2.9,11.7,5.4c0.2,0.4,0.4,0.8,0.6,1.2c0.2,0.3,0.3,0.6,0.5,0.8c0.5,0.9,1,1.8,2.1,2.2c1.2,0.4,2.8-0.1,5.4-1.5
		c3.1-1.7,3.9-0.8,5,0.3c0.7,0.8,1.7,1.7,3.3,1.9l3.1,0.4c0.2,1.3,0.2,2.5,0.2,3.9c0,5.8-1.6,11.4-4.7,16.3c-0.2,0.3-0.1,0.8,0.2,1
		c0.3,0.2,0.8,0.1,1-0.2C62.3,44,64,38.1,64,32C64,23.5,60.7,15.4,54.6,9.4z M6.7,35.3c0.8,0.4,1.6,1.1,2.4,1.8
		c1.4,1.2,3,2.6,5.2,2.5c0.9-0.1,1.9,1,2.5,2.7c0.9,2.3,0.8,5.4-1.4,7c-2.1,1.6-3.1,3.3-3,5.1c0,0.5,0.1,0.9,0.2,1.3
		C6.8,50.8,2.7,43.9,1.7,36.1C2.8,35.5,5.2,34.6,6.7,35.3z M14.4,13.7c-0.8,1.2-1.6,3.1-2.3,5c-0.8,2.1-1.8,4.4-2.6,5
		C9.3,23.9,9.2,24,9,24.2c-1.5,1.2-3.6,2.8-2.6,5.3c0.3,0.7-0.2,1-0.5,1.2C5,31.1,3.2,31,1.5,29c0.8-8.1,4.8-15.3,10.7-20.3
		C13.4,9.9,15.4,12.3,14.4,13.7z M27.6,20.4c0.7,0.9,1.5,1.8,3,1.8c4.7,0.1,7.1,1,7.4,2.9c0.6,3.2,4.9,8,8,9.1
		c0.1,0,0.1,0.1,0.2,0.1c0,0.5-1.4,2-2.2,2.9c-1.5,1.6-3,3.3-3.3,4.8c-0.5,3-1.1,4.2-2.4,6c-0.3,0.4-0.6,0.9-0.9,1.4
		c-1,1.7-2.1,3.6-4.8,4.8c-0.6,0.2-1,0.2-1.5-0.3c-1.8-1.7-2.6-7.3-1.7-9.8c0.8-2.4,0.6-3.3,0.1-4.7c-0.2-0.7-0.5-1.4-0.6-2.7
		c-0.1-1-0.3-1.6-0.8-1.9c-0.4-0.4-0.9-0.4-1.5-0.4c-0.3,0-0.7,0-1,0.1c-1.3,0.1-3.1,0.3-5.5-0.7c-1.4-0.6-2.3-1.3-2.6-2.1
		c-0.5-1.2,0.2-2.6,0.8-4l0.1-0.3c0.2-0.3,0.3-0.7,0.5-1.1c0.1-0.4,0.4-0.8,0.7-1.4c0.4-0.7,0.9-1.5,1.5-2.5
		c1.1-1.6,2.2-3.1,2.5-3.6C26,18.4,26.7,19.3,27.6,20.4z M59.4,26.4c-1.1-0.1-1.8-0.8-2.5-1.5c-1.2-1.3-2.7-2.7-6.7-0.5
		c-2.2,1.2-3.6,1.6-4.4,1.4c-0.5-0.2-0.8-0.6-1.2-1.5c-0.2-0.3-0.3-0.6-0.5-0.9c-0.2-0.3-0.3-0.6-0.5-1c-1.2-2.6-3.3-6.9-13.1-6.2
		c-7.8,0.6-8.1-0.3-8.6-1.7c-0.2-0.6-0.4-1.3-1-2c-0.3-0.4-0.3-0.7-0.3-0.9c0.2-1.1,2.2-2.3,4.1-3.5C25.9,7.4,27,6.7,28,6
		c3-2.3,5-4,5.6-4.5C48,2.2,59.7,12.9,62.1,26.7L59.4,26.4z"/>
	<path class="st1" d="M52.3,54.9c-2,1.8-4.2,3.3-6.6,4.5c-0.3,0.2-0.5,0.6-0.3,0.9c0.1,0.2,0.4,0.4,0.6,0.4c0.1,0,0.2,0,0.3-0.1
		c2.5-1.3,4.8-2.8,6.9-4.7c0.3-0.3,0.3-0.7,0.1-1C53.1,54.6,52.6,54.6,52.3,54.9z"/>
	<path class="st1" d="M46.3,53.9c0.1,0,0.2,0,0.3,0c0.3,0,0.6-0.1,1-0.5C49,52,53,45.6,52.3,42.9c-0.2-0.8-0.9-3.4-2.4-3.7
		c-0.4-0.1-1.1,0-1.8,0.9c-0.5,0.7-1.1,1.3-1.6,1.9c-1.4,1.6-2.8,3.2-2.5,4.8c0.1,0.4,0.1,0.9,0.2,1.5
		C44.7,51.5,45.1,53.6,46.3,53.9z M45.4,46.6c-0.2-1,0.9-2.3,2.1-3.6c0.6-0.6,1.2-1.3,1.7-2c0.2-0.3,0.4-0.4,0.4-0.4
		c0.3,0,1,1.3,1.3,2.7c0,0,0,0,0,0c0.5,1.8-2.8,7.5-4.3,9.2c-0.4-0.7-0.8-3.2-1-4.4C45.5,47.5,45.4,47,45.4,46.6z"/>
</g>
<g>
	<path class="st2" d="M45,56.2c-0.2,0-0.5-0.1-0.6-0.3c-0.3-0.3-0.3-0.9,0.1-1.2c1.3-1.2,2.6-2.5,3.7-3.9c0.3-0.4,0.8-0.4,1.2-0.1
		c0.4,0.3,0.4,0.8,0.1,1.2c-1.2,1.4-2.5,2.8-3.9,4.1C45.4,56.1,45.2,56.2,45,56.2z"/>
	<path class="st2" d="M32.1,64C32,64,32,64,32.1,64c-0.4,0-0.8-0.1-1-0.3c-8.2-3.2-14.8-8.5-19.4-15.8c-3.5-5.5-5-10.8-5.3-13.1
		c-0.5-3.8-0.2-23-0.2-23.8c0-0.3,0.2-0.6,0.5-0.8l25-10.1c0.2-0.1,0.4-0.1,0.6,0l25,10.1c0.3,0.1,0.5,0.4,0.5,0.8
		c0,0.8,0.3,20-0.2,23.8c-0.3,2.2-1.7,7.2-5,12.6c-0.2,0.4-0.8,0.5-1.2,0.3c-0.4-0.2-0.5-0.8-0.3-1.2c3.1-5.1,4.4-9.9,4.7-11.9
		c0.5-3.3,0.3-19.7,0.2-23L32,1.8L7.8,11.5c0,3.3-0.2,19.7,0.2,23c0.3,2.1,1.7,7.2,5,12.4c4.5,7,10.7,12.1,18.7,15.2
		c0.1,0,0.1,0.1,0.2,0.1c0,0,0,0,0,0c0,0,0,0,0,0c0.1,0,0.1-0.1,0.2-0.1c2.5-1,4.9-2.2,7.1-3.6c0.4-0.3,0.9-0.1,1.2,0.3
		c0.3,0.4,0.1,0.9-0.3,1.2c-2.3,1.4-4.7,2.7-7.3,3.7C32.7,63.8,32.4,64,32.1,64z"/>
	<path class="st2" d="M17.9,12.7c-0.3,0-0.7-0.2-0.8-0.5c-0.2-0.4,0-0.9,0.5-1.1l4.3-1.8c0.4-0.2,0.9,0,1.1,0.5
		c0.2,0.4,0,0.9-0.5,1.1l-4.3,1.8C18.1,12.6,18,12.7,17.9,12.7z"/>
	<path class="st2" d="M32,58.7C32,58.7,32,58.7,32,58.7c-0.4,0-0.7-0.1-0.9-0.3c-6.9-2.7-12.3-7.1-16.2-13.2
		c-2.9-4.6-4.2-9.1-4.4-11c-0.4-3.2-0.2-19.1-0.2-19.8c0-0.3,0.2-0.6,0.5-0.8l3.7-1.5c0.4-0.2,0.9,0,1.1,0.5c0.2,0.4,0,0.9-0.5,1.1
		L12,15.1c0,2.9-0.2,16.3,0.2,19c0.2,1.8,1.4,5.9,4.2,10.3c3.7,5.8,8.9,10,15.5,12.6c0,0,0.1,0,0.1,0.1c0,0,0.1,0,0.1-0.1
		c6.6-2.5,11.8-6.8,15.5-12.6c2.8-4.4,3.9-8.5,4.2-10.3c0.4-2.7,0.2-16.1,0.2-19L32,7l-6.3,2.5c-0.4,0.2-0.9,0-1.1-0.5
		c-0.2-0.4,0-0.9,0.5-1.1l6.6-2.7c0.2-0.1,0.4-0.1,0.6,0l20.8,8.4c0.3,0.1,0.5,0.4,0.5,0.8c0,0.7,0.2,16.7-0.2,19.8
		c-0.3,1.9-1.5,6.3-4.4,11c-3.9,6.1-9.3,10.5-16.2,13.2C32.6,58.6,32.4,58.7,32,58.7z"/>
	<g>
		<path class="st2" d="M32,33.6c-4.5,0-8.2-3.7-8.2-8.2c0-4.5,3.7-8.2,8.2-8.2c4.5,0,8.2,3.7,8.2,8.2C40.2,29.9,36.5,33.6,32,33.6z
			 M32,18.8c-3.6,0-6.5,2.9-6.5,6.5c0,3.6,2.9,6.5,6.5,6.5c3.6,0,6.5-2.9,6.5-6.5C38.5,21.7,35.6,18.8,32,18.8z"/>
		<path class="st2" d="M43.5,41.6H20.5c-0.3,0-0.5-0.1-0.7-0.3c-0.2-0.2-0.2-0.5-0.2-0.7c0.6-2.5,2.2-4.7,4.4-6.3
			c2.2-1.6,5-2.5,7.9-2.5s5.7,0.9,7.9,2.5c2.2,1.6,3.8,3.8,4.4,6.3c0.1,0.3,0,0.5-0.2,0.7C44,41.5,43.7,41.6,43.5,41.6z M21.7,39.9
			h20.6c-1.5-3.8-5.7-6.4-10.3-6.4S23.2,36.2,21.7,39.9z"/>
	</g>
</g>
<g class="st0">
	<path class="st1" d="M26.9,48.1h-22c-2.7,0-4.9-2.2-4.9-4.8s2.2-4.8,4.9-4.8h22.9l-0.3,0.8c-0.6,1.8-0.9,3.7-0.9,5.7
		c0,0.9,0.1,1.7,0.2,2.5L26.9,48.1z M4.9,39.6c-2,0-3.7,1.6-3.7,3.7c0,2,1.7,3.7,3.7,3.7h20.7c-0.1-0.7-0.1-1.4-0.1-2
		c0-1.8,0.2-3.6,0.7-5.3H4.9z"/>
	<path class="st1" d="M30.9,56.5h-26c-2.7,0-4.9-2.2-4.9-4.8s2.2-4.8,4.9-4.8h21.8l0.1,0.5c0.4,3,1.6,5.8,3.4,8.2L30.9,56.5z
		 M4.9,48.1c-2,0-3.7,1.6-3.7,3.7c0,2,1.7,3.7,3.7,3.7h23.7c-1.5-2.2-2.5-4.7-2.9-7.3H4.9z"/>
	<path class="st1" d="M44.7,64c-3.1,0-6.1-0.7-8.8-2.1c-2.6-1.3-4.9-3.3-6.7-5.6c-1.9-2.6-3.2-5.6-3.6-8.7c-0.1-0.9-0.2-1.8-0.2-2.7
		c0-2.1,0.3-4.1,1-6c1.1-3.4,3.2-6.4,6-8.7c3.4-2.8,7.8-4.4,12.3-4.4c1,0,2,0.1,2.9,0.2l0,0c4.5,0.7,8.6,3,11.6,6.4
		c3,3.5,4.7,7.9,4.7,12.5C64,55.4,55.3,64,44.7,64z M44.7,26.9c-4.2,0-8.3,1.5-11.5,4.1c-2.6,2.2-4.6,5-5.7,8.2
		c-0.6,1.8-0.9,3.7-0.9,5.7c0,0.9,0.1,1.7,0.2,2.5c0.4,3,1.6,5.8,3.4,8.2c3.5,4.6,8.8,7.2,14.5,7.2c10,0,18.1-8.1,18.1-18
		c0-8.9-6.5-16.4-15.4-17.8C46.6,27,45.6,26.9,44.7,26.9z"/>
	<g class="st3">
		<path class="st2" d="M57.7,37c-0.2,0-0.4-0.1-0.5-0.3c-0.7-1-1.5-2-2.4-2.8c-0.2-0.2-0.3-0.6,0-0.8c0.2-0.2,0.6-0.3,0.8,0
			c1,0.9,1.8,1.9,2.6,3c0.2,0.3,0.1,0.6-0.2,0.8C57.9,37,57.8,37,57.7,37z"/>
		<path class="st2" d="M30.3,51.2c-0.2,0-0.5-0.1-0.5-0.4c-0.8-1.9-1.2-3.9-1.2-6c0-8.8,7.2-16,16.1-16c2.1,0,4.1,0.4,6,1.1
			c0.3,0.1,0.4,0.5,0.3,0.8c-0.1,0.3-0.5,0.4-0.8,0.3c-1.8-0.7-3.6-1-5.5-1c-8.2,0-14.9,6.6-14.9,14.8c0,1.9,0.4,3.8,1.1,5.6
			c0.1,0.3,0,0.6-0.3,0.8C30.5,51.2,30.4,51.2,30.3,51.2z"/>
		<path class="st2" d="M32.8,55.3c-0.1,0-0.3,0-0.4-0.2c-0.6-0.5-1.1-1.4-1.6-2.1c-0.2-0.3-0.1-0.6,0.2-0.8c0.3-0.2,0.6-0.1,0.8,0.2
			c0.3,0.5,0.8,1.4,1.3,1.9c0.2,0.2,0.3,0.6,0,0.8C33.1,55.2,33,55.3,32.8,55.3z"/>
		<path class="st2" d="M44.7,60.8c-3.9,0-7.6-1.4-10.5-3.9c-0.2-0.2-0.3-0.6-0.1-0.8c0.2-0.2,0.6-0.3,0.8-0.1
			c2.7,2.3,6.2,3.6,9.8,3.6c8.2,0,14.9-6.6,14.9-14.8c0-1-0.1-2-0.3-3c-0.1-0.3,0.1-0.6,0.5-0.7c0.3-0.1,0.6,0.1,0.7,0.5
			c0.2,1.1,0.3,2.1,0.3,3.3C60.8,53.6,53.6,60.8,44.7,60.8z"/>
	</g>
	<text transform="matrix(1.0086 0 0 1 37.332 53.2852)" class="st1 st4 st5">$</text>
	<path class="st1" d="M27.4,39.6H4.9c-2.7,0-4.9-2.2-4.9-4.8S2.2,30,4.9,30h5.5l6.3,6.8c0.3,0.4,0.8,0.6,1.3,0.6
		c0.5,0,1-0.2,1.3-0.6l6.3-6.8h8.8l-1.3,1c-2.6,2.1-4.6,5-5.7,8.2L27.4,39.6z M18.5,38.4h8c1-2.8,2.6-5.3,4.7-7.3h-5.1l-6,6.4
		C19.8,38,19.2,38.3,18.5,38.4z M4.9,31.1c-2,0-3.7,1.6-3.7,3.7s1.7,3.7,3.7,3.7h12.6c-0.6-0.1-1.2-0.4-1.7-0.9l-6-6.4H4.9z"/>
	<path class="st1" d="M18,38.5c-0.8,0-1.6-0.3-2.2-1L1.2,22c-0.8-0.9-1-2.1-0.5-3.2C1.2,17.7,2.2,17,3.4,17h4.2V3.1
		C7.6,1.4,9.1,0,10.8,0h14.4c1.7,0,3.1,1.4,3.1,3.1V17h4.2c1.2,0,2.3,0.7,2.7,1.8c0.5,1.1,0.3,2.3-0.5,3.2L20.2,37.5
		C19.6,38.1,18.8,38.5,18,38.5z M3.4,18.1c-0.9,0-1.4,0.6-1.7,1.1c-0.2,0.5-0.3,1.3,0.3,2l14.6,15.6c0.3,0.4,0.8,0.6,1.3,0.6
		c0.5,0,1-0.2,1.3-0.6l14.6-15.6c0.6-0.6,0.6-1.4,0.3-2c-0.2-0.5-0.8-1.1-1.7-1.1h-5.4v-15c0-1.1-0.9-1.9-2-1.9H10.8
		c-1.1,0-2,0.9-2,1.9v15H3.4z"/>
</g>
</svg>
