<?xml version="1.0" encoding="utf-8"?>
<!-- Generator: Adobe Illustrator 21.0.0, SVG Export Plug-In . SVG Version: 6.00 Build 0)  -->
<svg version="1.1" id="圖層_1" xmlns="http://www.w3.org/2000/svg" xmlns:xlink="http://www.w3.org/1999/xlink" x="0px" y="0px"
	 width="114px" height="87px" viewBox="0 0 114 87" style="enable-background:new 0 0 114 87;" xml:space="preserve">
<style type="text/css">
	.st0{display:none;}
	.st1{display:inline;fill:#FFFFFF;}
	.st2{display:inline;}
	.st3{fill:#FFFFFF;}
	.st4{display:inline;enable-background:new    ;}
	.st5{display:inline;fill:#468DD5;}
	.st6{fill:#468DD5;}
	.st7{fill:#FFFFFF;stroke:#000000;stroke-width:11;stroke-linecap:round;stroke-linejoin:round;}
	.st8{fill:#468DD5;stroke:#000000;stroke-width:11;stroke-linecap:round;stroke-linejoin:round;}
	.st9{fill:#3281D1;}
	.st10{display:inline;fill:#3281D1;}
</style>
<g id="Group_31_1_" class="st0">
	<path id="Path_42_1_" class="st1" d="M60.4,16.4H10.9c-4.5,0-8.2-3.7-8.2-8.2S6.3,0,10.9,0h49.5c4.5,0,8.2,3.7,8.2,8.2
		S64.9,16.4,60.4,16.4z M10.9,2C7.4,2,4.6,4.8,4.6,8.2c0,3.4,2.8,6.2,6.2,6.2c0,0,0,0,0,0h49.5c3.4,0,6.2-2.8,6.2-6.2
		c0-3.4-2.8-6.2-6.2-6.2c0,0,0,0,0,0H10.9z"/>
	<path id="Path_43_1_" class="st1" d="M48.9,45.3H10.9c-4.5,0-8.2-3.7-8.2-8.2s3.7-8.2,8.2-8.2h50l-2.1,1.8c-4.5,3.7-7.8,8.5-9.6,14
		L48.9,45.3z M10.9,30.9c-3.4,0-6.2,2.8-6.2,6.2c0,3.4,2.8,6.2,6.2,6.2l0,0h36.6c1.7-4.7,4.4-9,8-12.5H10.9z"/>
	<path id="Path_44_1_" class="st1" d="M48.1,59.8H10.9c-4.5,0-8.2-3.7-8.2-8.2s3.7-8.2,8.2-8.2h38.7l-0.4,1.3
		c-1,3.1-1.6,6.4-1.6,9.7c0,1.5,0.1,2.9,0.3,4.3L48.1,59.8z M10.9,45.3c-3.4,0-6.2,2.8-6.2,6.2c0,3.4,2.8,6.2,6.2,6.2h34.9
		c-0.4-4.2-0.1-8.4,1.1-12.5H10.9z"/>
	<path id="Path_45_1_" class="st1" d="M54.9,74.2h-44c-4.5,0-8.2-3.7-8.2-8.2s3.7-8.2,8.2-8.2h36.9l0.1,0.9c0.7,5.1,2.7,9.9,5.8,14
		L54.9,74.2z M10.9,59.8c-3.4,0-6.2,2.8-6.2,6.2c0,3.4,2.8,6.2,6.2,6.2H51c-2.5-3.8-4.1-8-4.9-12.5H10.9z"/>
	<path id="Path_46_1_" class="st1" d="M58.5,30.9H26.4c-4.5,0-8.2-3.7-8.2-8.2s3.7-8.2,8.2-8.2h49.5c4.5,0,8.2,3.7,8.2,8.2
		c0,0.1,0,0.3,0,0.4L84,24.2L82.9,24c-8.6-1.3-17.4,1.1-24.2,6.6L58.5,30.9z M26.4,16.4c-3.4,0-6.2,2.8-6.2,6.2
		c0,3.4,2.8,6.2,6.2,6.2c0,0,0,0,0,0h31.4c6.8-5.5,15.6-8,24.3-7c-0.4-3.1-3-5.5-6.2-5.5L26.4,16.4z"/>
	<path id="Path_47_1_" class="st1" d="M78.3,87c-5.2,0-10.3-1.2-14.9-3.6c-4.4-2.3-8.3-5.6-11.3-9.6c-3.3-4.4-5.4-9.5-6.2-14.9
		c-0.2-1.5-0.3-3.1-0.3-4.6c0-18,14.6-32.6,32.6-32.6c0,0,0,0,0,0c1.7,0,3.3,0.1,5,0.4l0,0c17.8,2.8,30,19.4,27.3,37.3
		C108.1,75.2,94.4,87,78.3,87L78.3,87z M78.3,23.7c-16.9,0-30.6,13.7-30.7,30.6c0,0,0,0,0,0.1c0,1.5,0.1,2.9,0.3,4.3
		c2.4,16.8,17.9,28.4,34.7,26c16.8-2.4,28.4-17.9,26-34.7C106.7,36.6,96.3,26.1,83,24l0,0C81.4,23.8,79.8,23.7,78.3,23.7L78.3,23.7z
		"/>
	<g id="Group_30_1_" transform="translate(48.395 27.097)" class="st2">
		<path id="Path_48_1_" class="st3" d="M51.8,13.9c-0.3,0-0.6-0.2-0.8-0.4c-1.1-1.7-2.5-3.3-4-4.7c-0.4-0.4-0.4-1,0-1.4
			c0.4-0.4,1-0.4,1.4-0.1c1.6,1.5,3.1,3.2,4.3,5.1c0.3,0.5,0.2,1.1-0.3,1.4C52.2,13.8,52,13.9,51.8,13.9L51.8,13.9z"/>
		<path id="Path_49_1_" class="st3" d="M5.5,38.1c-0.4,0-0.8-0.2-0.9-0.6C-1,23.5,5.7,7.6,19.7,2c6.5-2.6,13.8-2.6,20.3-0.1
			c0.5,0.2,0.8,0.8,0.6,1.3c-0.2,0.5-0.8,0.8-1.3,0.6c0,0,0,0-0.1,0C26.3-1.4,11.6,5,6.4,17.9C4,24,4,30.7,6.5,36.7
			c0.2,0.5,0,1.1-0.5,1.3C5.8,38,5.7,38.1,5.5,38.1L5.5,38.1z"/>
		<path id="Path_50_1_" class="st3" d="M9.7,45c-0.2,0-0.5-0.1-0.7-0.3c-1-1-1.9-2.2-2.6-3.5l-0.1-0.1c-0.3-0.5-0.1-1.1,0.4-1.4
			c0.5-0.3,1-0.1,1.3,0.3l0.1,0.1c0.6,1.1,1.3,2.1,2.2,3.1c0.4,0.4,0.4,1,0.1,1.4C10.3,44.9,10,45,9.7,45L9.7,45z"/>
		<path id="Path_51_1_" class="st3" d="M29.9,54.5c-6.6,0-12.9-2.4-17.9-6.7c-0.4-0.3-0.5-1-0.2-1.4c0.3-0.4,1-0.5,1.4-0.2
			c0,0,0.1,0,0.1,0.1c10.5,9.1,26.5,8,35.6-2.5c5.2-5.9,7.2-14,5.6-21.7c-0.1-0.5,0.3-1.1,0.8-1.1c0.5-0.1,1,0.2,1.1,0.7
			c3.1,14.7-6.4,29.2-21.2,32.2C33.5,54.3,31.7,54.5,29.9,54.5L29.9,54.5z"/>
	</g>
	<g class="st4">
		<path class="st3" d="M79.3,66.1v4.3h-3.8v-4.1c-3.6-0.1-6.5-1.1-9-3.6l3.4-3.4c1.6,1.6,3.8,2.2,6,2.3v-6.9l-1.2-0.2
			c-2.3-0.3-4.1-1.1-5.2-2.3c-1.3-1.3-1.9-3-1.9-5.3c0-4.4,3-7.6,7.9-8.1v-3.4h3.8v3.4c3.1,0.2,5.4,1.1,7.5,3.1l-3.3,3.3
			c-1.3-1.2-3.1-1.7-4.7-1.8v6.6l1.4,0.2c2.5,0.4,4,1.1,5.2,2.1c1.4,1.4,2.1,3.3,2.1,5.7C87.5,62.6,84.1,65.5,79.3,66.1z M76,43.4
			c-2.2,0.3-3.3,1.7-3.3,3.3c0,0.7,0.2,1.4,0.8,1.9c0.6,0.6,1.4,0.9,2.5,1.1V43.4z M81.5,55.9c-0.8-0.7-1.7-0.8-2.7-1v6.5
			c2.3-0.3,3.5-1.4,3.5-3.3C82.3,57.2,82.1,56.4,81.5,55.9z"/>
	</g>
	<path id="Path_52_1_" class="st1" d="M90.9,33.5"/>
</g>
<g id="Group_31" class="st0">
	<path id="Path_42" class="st5" d="M60.4,16.4H10.9c-4.5,0-8.2-3.7-8.2-8.2S6.3,0,10.9,0h49.5c4.5,0,8.2,3.7,8.2,8.2
		S64.9,16.4,60.4,16.4z M10.9,2C7.4,2,4.6,4.8,4.6,8.2c0,3.4,2.8,6.2,6.2,6.2c0,0,0,0,0,0h49.5c3.4,0,6.2-2.8,6.2-6.2
		c0-3.4-2.8-6.2-6.2-6.2c0,0,0,0,0,0H10.9z"/>
	<path id="Path_43" class="st5" d="M48.9,45.4H10.9c-4.5,0-8.2-3.7-8.2-8.2s3.7-8.2,8.2-8.2h50l-2.1,1.8c-4.5,3.7-7.8,8.5-9.6,14
		L48.9,45.4z M10.9,30.9c-3.4,0-6.2,2.8-6.2,6.2c0,3.4,2.8,6.2,6.2,6.2l0,0h36.6c1.7-4.7,4.4-9,8-12.5H10.9z"/>
	<path id="Path_44" class="st5" d="M48.1,59.8H10.9c-4.5,0-8.2-3.7-8.2-8.2s3.7-8.2,8.2-8.2h38.7l-0.4,1.3c-1,3.1-1.6,6.4-1.6,9.7
		c0,1.5,0.1,2.9,0.3,4.3L48.1,59.8z M10.9,45.4c-3.4,0-6.2,2.8-6.2,6.2c0,3.4,2.8,6.2,6.2,6.2h34.9c-0.4-4.2-0.1-8.4,1.1-12.5H10.9z
		"/>
	<path id="Path_45" class="st5" d="M54.9,74.3h-44c-4.5,0-8.2-3.7-8.2-8.2s3.7-8.2,8.2-8.2h36.9l0.1,0.9c0.7,5.1,2.7,9.9,5.8,14
		L54.9,74.3z M10.9,59.8c-3.4,0-6.2,2.8-6.2,6.2c0,3.4,2.8,6.2,6.2,6.2H51c-2.5-3.8-4.1-8-4.9-12.5H10.9z"/>
	<path id="Path_46" class="st5" d="M58.5,30.9H26.4c-4.5,0-8.2-3.7-8.2-8.2s3.7-8.2,8.2-8.2h49.5c4.5,0,8.2,3.7,8.2,8.2
		c0,0.1,0,0.3,0,0.4L84,24.2L82.9,24c-8.6-1.3-17.4,1.1-24.2,6.6L58.5,30.9z M26.4,16.4c-3.4,0-6.2,2.8-6.2,6.2
		c0,3.4,2.8,6.2,6.2,6.2c0,0,0,0,0,0h31.4c6.8-5.5,15.6-8,24.3-7c-0.4-3.1-3-5.5-6.2-5.5L26.4,16.4z"/>
	<path id="Path_47" class="st5" d="M78.3,87c-5.2,0-10.3-1.2-14.9-3.6c-4.4-2.3-8.3-5.6-11.3-9.6c-3.3-4.4-5.4-9.5-6.2-14.9
		c-0.2-1.5-0.3-3.1-0.3-4.6c0-18,14.6-32.7,32.6-32.7c0,0,0,0,0,0c1.7,0,3.3,0.1,5,0.4l0,0c17.8,2.8,30,19.4,27.3,37.3
		C108.1,75.3,94.4,87,78.3,87L78.3,87z M78.3,23.7c-16.9,0-30.6,13.7-30.7,30.6c0,0,0,0,0,0.1c0,1.5,0.1,2.9,0.3,4.3
		c2.4,16.8,17.9,28.4,34.7,26c16.8-2.4,28.4-17.9,26-34.7C106.7,36.6,96.3,26.1,83,24l0,0C81.4,23.8,79.8,23.7,78.3,23.7L78.3,23.7z
		"/>
	<g id="Group_30" transform="translate(48.395 27.097)" class="st2">
		<path id="Path_48" class="st6" d="M51.8,13.9c-0.3,0-0.6-0.2-0.8-0.5c-1.1-1.7-2.5-3.3-4-4.7c-0.4-0.4-0.4-1,0-1.4
			c0.4-0.4,1-0.4,1.4-0.1c1.6,1.5,3.1,3.2,4.3,5.1c0.3,0.5,0.2,1.1-0.3,1.4C52.2,13.8,52,13.9,51.8,13.9L51.8,13.9z"/>
		<path id="Path_49" class="st6" d="M5.5,38.1c-0.4,0-0.8-0.2-0.9-0.6C-1,23.5,5.7,7.6,19.7,2c6.5-2.6,13.8-2.6,20.3-0.1
			c0.5,0.2,0.8,0.8,0.6,1.3c-0.2,0.5-0.8,0.8-1.3,0.6c0,0,0,0-0.1,0C26.3-1.4,11.6,5,6.4,17.9C4,24,4,30.7,6.5,36.7
			c0.2,0.5,0,1.1-0.5,1.3C5.8,38.1,5.7,38.1,5.5,38.1L5.5,38.1z"/>
		<path id="Path_50" class="st6" d="M9.7,45c-0.2,0-0.5-0.1-0.7-0.3c-1-1-1.9-2.2-2.6-3.5l-0.1-0.1c-0.3-0.5-0.1-1.1,0.4-1.4
			c0.5-0.3,1-0.1,1.3,0.3l0.1,0.1c0.6,1.1,1.3,2.1,2.2,3.1c0.4,0.4,0.4,1,0.1,1.4C10.3,44.9,10,45,9.7,45L9.7,45z"/>
		<path id="Path_51" class="st6" d="M29.9,54.5c-6.6,0-12.9-2.4-17.9-6.7c-0.4-0.3-0.5-1-0.2-1.4c0.3-0.4,1-0.5,1.4-0.2
			c0,0,0.1,0,0.1,0.1c10.5,9.1,26.5,8,35.6-2.5c5.2-5.9,7.2-14,5.6-21.7c-0.1-0.5,0.3-1.1,0.8-1.1c0.5-0.1,1,0.2,1.1,0.7
			c3.1,14.7-6.4,29.2-21.2,32.2C33.5,54.3,31.7,54.5,29.9,54.5L29.9,54.5z"/>
	</g>
	<g class="st4">
		<path class="st6" d="M79.3,66.1v4.3h-3.8v-4.1c-3.6-0.1-6.5-1.1-9-3.6l3.4-3.4c1.6,1.6,3.8,2.2,6,2.3v-6.9l-1.2-0.2
			c-2.3-0.3-4.1-1.1-5.2-2.3c-1.3-1.3-1.9-3-1.9-5.3c0-4.4,3-7.6,7.9-8.1v-3.4h3.8v3.4c3.1,0.2,5.4,1.1,7.5,3.1l-3.3,3.3
			c-1.3-1.2-3.1-1.7-4.7-1.8V50l1.4,0.2c2.5,0.4,4,1.1,5.2,2.1c1.4,1.4,2.1,3.3,2.1,5.7C87.5,62.6,84.1,65.5,79.3,66.1z M76,43.4
			c-2.2,0.3-3.3,1.7-3.3,3.3c0,0.7,0.2,1.4,0.8,1.9c0.6,0.6,1.4,0.9,2.5,1.1V43.4z M81.5,55.9c-0.8-0.7-1.7-0.8-2.7-1v6.5
			c2.3-0.3,3.5-1.4,3.5-3.3C82.3,57.2,82.1,56.4,81.5,55.9z"/>
	</g>
	<path id="Path_52" class="st5" d="M90.9,33.5"/>
</g>
<g id="Group_39_1_">
	<g id="Group_36_1_">
		<path id="Path_53_1_" class="st3" d="M100.6,76.8c-0.6,0-1-0.6-1-1.2V16c0-3.7-2.5-6.6-5.7-6.6H90c-0.6-0.1-1.1-0.7-1-1.3
			c0.1-0.5,0.5-0.9,1-1h3.9c4.2,0,7.7,4,7.7,8.9v59.6C101.6,76.2,101.2,76.8,100.6,76.8z"/>
		<path id="Path_54_1_" class="st3" d="M85,9h-6.3c-0.5,0-1-0.5-1-1c0-0.5,0.4-0.9,1-1H85c0.5,0,1,0.4,1,1S85.6,9,85,9
			C85.1,9,85,9,85,9z"/>
		<path id="Path_55_1_" class="st3" d="M13.4,76.8c-0.6,0-1-0.6-1-1.2V16c0-4.9,3.4-8.9,7.7-8.9h53.6c0.6,0.1,1.1,0.7,1,1.3
			c-0.1,0.5-0.5,0.9-1,1H20.1c-3.1,0-5.7,3-5.7,6.6v59.6C14.4,76.2,14,76.8,13.4,76.8z"/>
		<path id="Path_56_1_" class="st7" d="M107.2,76.2"/>
		<path id="Path_57_1_" class="st7" d="M6.7,76.2"/>
		<g id="Group_35_1_" transform="translate(28.645 24.845)">
			<path id="Path_58_1_" class="st3" d="M27.3,35.4c-0.5,0-1-0.4-1-1l0,0V7.5c0-0.3,0.1-0.5,0.3-0.7c2.4-2,5.1-3.7,8-4.8
				C40.8-0.6,47.8-0.6,54,1.9c0.4,0.2,0.6,0.5,0.6,0.9V31c0,0.5-0.4,1-1,1c-0.2,0-0.3,0-0.5-0.1c-2.3-1-4.7-1.5-7.2-1.6
				c-4.1-0.2-10.6,0.5-18.2,5C27.7,35.4,27.5,35.4,27.3,35.4z M28.3,8v24.7c5.4-3.1,11.6-4.7,17.9-4.4c2.2,0.1,4.3,0.5,6.4,1.2v-26
				c-5.5-2.2-11.7-2.1-17.2,0.3C32.9,4.8,30.5,6.3,28.3,8L28.3,8z"/>
			<path id="Path_59_1_" class="st3" d="M27.3,35.4c-0.2,0-0.4,0-0.5-0.1c-14.5-8.7-25.2-3.5-25.3-3.4c-0.5,0.3-1.1,0.1-1.3-0.4
				C0.1,31.3,0,31.2,0,31V18.5c0-0.5,0.4-1,1-1c0.5,0,1,0.4,1,1c0,0,0,0,0,0.1v11.1c2.1-0.7,4.2-1.1,6.4-1.2
				c6.3-0.3,12.5,1.3,17.9,4.4V8c-2.2-1.7-4.6-3.2-7.1-4.2C13.7,1.5,7.6,1.4,2,3.5v4.9c0,0.5-0.5,1-1,1c-0.5,0-0.9-0.4-1-1V2.9
				c0-0.4,0.2-0.8,0.6-0.9C6.9-0.6,13.8-0.6,20,2c2.9,1.2,5.6,2.8,8,4.8c0.2,0.2,0.3,0.5,0.3,0.7v26.9C28.3,35,27.9,35.4,27.3,35.4
				L27.3,35.4L27.3,35.4z"/>
			<path id="Path_60_1_" class="st3" d="M1,15.9c-0.5,0-1-0.4-1-1V12c0-0.5,0.4-1,1-1c0.5,0,1,0.4,1,1c0,0,0,0,0,0.1v2.9
				C2,15.4,1.6,15.9,1,15.9z"/>
			<g id="Group_33_1_" transform="translate(26.267 3.577)">
				<path id="Path_61_1_" class="st3" d="M29.4,31.5l-2-4.7V1l2,6.3V31.5L1.1,32.7v-1.9c0,0,9.1-5.8,16-5.2
					c3.5,0.2,6.9,0.8,10.3,1.7L29.4,31.5z"/>
				<path id="Path_62_1_" class="st3" d="M1.1,33.7c-0.5,0-1-0.4-1-1l0,0v-1.9c0-0.3,0.2-0.7,0.5-0.8c0.4-0.2,9.5-5.9,16.6-5.3
					c3.1,0.2,6.2,0.7,9.2,1.4V1c0-0.5,0.4-1,1-1c0.4,0,0.8,0.3,0.9,0.7l2,6.3c0,0.1,0,0.2,0,0.3v24.2c0,0.5-0.3,0.9-0.8,1
					c-0.1,0-0.1,0-0.2,0L1.1,33.7L1.1,33.7z M2.1,31.4v0.3l25.8-1.1l-1.2-2.3c-3.2-0.8-6.4-1.3-9.7-1.6C11.4,26.2,4,30.3,2.1,31.4
					L2.1,31.4z M28.4,26.6l0,0.1V7.4l0-0.1V26.6z"/>
			</g>
			<g id="Group_34_1_" transform="translate(0 28.142)">
				<path id="Path_63_1_" class="st3" d="M27.3,8.2L2.9,7.6L1,2.9c0,0,6.7-3.5,16-0.9s10.3,4.3,10.3,4.3L27.3,8.2z"/>
				<path id="Path_64_1_" class="st3" d="M27.3,9.2L27.3,9.2L2.9,8.6C2.5,8.6,2.1,8.3,2,8L0.1,3.2c-0.2-0.5,0-1,0.5-1.2
					c0.3-0.1,7.2-3.7,16.8-1c9.1,2.5,10.6,4.3,10.9,4.8c0.1,0.1,0.1,0.3,0.1,0.5v1.9C28.3,8.7,27.9,9.2,27.3,9.2
					C27.3,9.2,27.3,9.2,27.3,9.2L27.3,9.2z M3.6,6.6l22.7,0.5V6.7c-0.6-0.5-2.6-1.8-9.5-3.8C12.1,1.5,7,1.7,2.3,3.4L3.6,6.6z"/>
			</g>
		</g>
		<path id="Path_65_1_" class="st3" d="M66.4,5.3H45.7c-0.6,0-1.2-0.5-1.2-1.2c0-0.6,0.5-1.2,1.2-1.2h20.7c0.6,0,1.2,0.5,1.2,1.2
			C67.6,4.8,67,5.3,66.4,5.3z"/>
		<path id="Path_66_1_" class="st3" d="M107.2,77.2c-0.6,0-1-0.6-1-1.1V8.3c0-3.3-2.4-6-5.3-6H13c-2.9,0-5.3,2.7-5.3,6v67.8
			c0.1,0.5-0.3,1-0.9,1.1c-0.5,0.1-1-0.3-1.1-0.9c0-0.1,0-0.2,0-0.2V8.3C5.7,3.7,9,0,13,0h88c4,0,7.3,3.7,7.3,8.3v67.8
			C108.3,76.7,107.8,77.2,107.2,77.2z"/>
		<path id="Path_67_1_" class="st3" d="M106,87H8c-4.4,0-8-3.2-8-7.2v-3.5c0-0.5,0.4-1,1-1h19.4c0.5,0,1,0.4,1,1c0,0.5-0.4,1-1,1
			c0,0,0,0-0.1,0H2v2.5C2,82.7,4.7,85,8,85H106c3.3,0,6-2.4,6-5.3v-2.5H40.6c-0.5,0-1-0.4-1-1c0-0.5,0.4-1,1-1c0,0,0,0,0.1,0H113
			c0.5,0,1,0.4,1,1v3.5C114,83.8,110.4,87,106,87z"/>
		<path id="Path_68_1_" class="st3" d="M34,77.2h-7.4c-0.5,0-1-0.4-1-1c0-0.5,0.4-1,1-1c0,0,0,0,0.1,0H34c0.5,0,1,0.5,1,1
			C35,76.8,34.5,77.2,34,77.2z"/>
	</g>
	<g id="Group_37_1_" transform="translate(34.143 32.01)">
		<path id="Path_69_1_" class="st3" d="M18.2,5.1c-0.1,0-0.2,0-0.2-0.1c-1.2-1.2-2.6-2.2-4.2-2.9C11.2,1,6.7-0.2,0.4,1.1
			C0.2,1.1,0.1,1,0.1,0.9c0-0.1,0.1-0.3,0.2-0.3c6.5-1.3,11.1-0.1,13.8,1.1c1.7,0.7,3.1,1.7,4.4,3c0.1,0.1,0.1,0.3,0,0.4
			C18.4,5.1,18.3,5.1,18.2,5.1L18.2,5.1z"/>
		<path id="Path_70_1_" class="st3" d="M18.2,9.8c-0.1,0-0.2,0-0.2-0.1c-1.2-1.2-2.6-2.2-4.2-2.9C11.2,5.6,6.7,4.5,0.4,5.7
			C0.2,5.8,0.1,5.7,0,5.5c0-0.1,0.1-0.3,0.2-0.3c0,0,0,0,0,0c6.5-1.3,11.1-0.1,13.8,1.1c1.7,0.7,3.1,1.7,4.4,3
			c0.1,0.1,0.1,0.3,0,0.4C18.4,9.8,18.3,9.8,18.2,9.8L18.2,9.8z"/>
		<path id="Path_71_1_" class="st3" d="M18.2,14.4c-0.1,0-0.2,0-0.2-0.1c-1.2-1.2-2.6-2.2-4.2-2.9c-2.6-1.2-7.1-2.3-13.4-1.1
			c-0.1,0-0.3,0-0.3-0.2c0-0.1,0-0.3,0.2-0.3c0,0,0,0,0,0C6.8,8.6,11.4,9.7,14.1,11c1.7,0.7,3.1,1.7,4.4,3c0.1,0.1,0.1,0.3,0,0.4
			C18.4,14.4,18.3,14.4,18.2,14.4L18.2,14.4z"/>
		<path id="Path_72_1_" class="st3" d="M18.2,19.1c-0.1,0-0.2,0-0.2-0.1c-1.2-1.2-2.6-2.2-4.2-2.9c-2.6-1.2-7.1-2.3-13.4-1.1
			c-0.1,0-0.3-0.1-0.3-0.2c0-0.1,0.1-0.3,0.2-0.3c0,0,0,0,0,0c6.5-1.3,11.1-0.1,13.8,1.1c1.7,0.7,3.1,1.7,4.4,3
			c0.1,0.1,0.1,0.3,0,0.4C18.4,19,18.3,19.1,18.2,19.1L18.2,19.1z"/>
	</g>
	<g id="Group_38_1_" transform="translate(59.827 32.01)">
		<path id="Path_73_1_" class="st3" d="M0.3,5.1C0.2,5.1,0.1,5,0.1,4.9c0-0.1,0-0.1,0.1-0.2c1.2-1.3,2.7-2.3,4.4-3
			c2.7-1.2,7.3-2.4,13.8-1.1c0.1,0,0.2,0.2,0.2,0.3c0,0.1-0.2,0.2-0.3,0.2C6-1.3,0.6,5,0.6,5.1C0.5,5.1,0.4,5.2,0.3,5.1z"/>
		<path id="Path_74_1_" class="st3" d="M0.3,9.8c-0.1,0-0.3-0.1-0.3-0.3c0-0.1,0-0.1,0.1-0.2C1.4,8,2.9,7,4.5,6.3
			c2.7-1.2,7.3-2.4,13.8-1.1c0.1,0,0.2,0.2,0.2,0.3c0,0.1-0.2,0.2-0.3,0.2C11.8,4.5,7.4,5.6,4.8,6.8c-1.6,0.7-3,1.6-4.2,2.9
			C0.5,9.8,0.4,9.8,0.3,9.8z"/>
		<path id="Path_75_1_" class="st3" d="M0.3,14.4c-0.1,0-0.3-0.1-0.3-0.3c0-0.1,0-0.1,0.1-0.2c1.2-1.3,2.7-2.3,4.4-3
			c2.7-1.2,7.3-2.4,13.8-1.1c0.1,0,0.2,0.2,0.2,0.3c0,0.1-0.2,0.2-0.3,0.2C6,8,0.6,14.3,0.6,14.3C0.5,14.4,0.4,14.4,0.3,14.4z"/>
		<path id="Path_76_1_" class="st3" d="M0.3,19.1c-0.1,0-0.3-0.1-0.3-0.3c0-0.1,0-0.1,0.1-0.2c1.2-1.3,2.7-2.3,4.4-3
			c2.7-1.2,7.3-2.4,13.8-1.1c0.1,0,0.2,0.2,0.2,0.3c0,0.1-0.2,0.2-0.3,0.2C6,12.6,0.6,18.9,0.6,19C0.5,19,0.4,19.1,0.3,19.1z"/>
	</g>
</g>
<g id="Group_39" class="st0">
	<g id="Group_36" class="st2">
		<path id="Path_53" class="st6" d="M100.6,76.8c-0.6,0-1-0.6-1-1.2V16c0-3.7-2.5-6.6-5.7-6.6H90c-0.6-0.1-1.1-0.7-1-1.3
			c0.1-0.5,0.5-0.9,1-1h3.9c4.2,0,7.7,4,7.7,8.9v59.6C101.6,76.2,101.2,76.8,100.6,76.8z"/>
		<path id="Path_54" class="st6" d="M85,9h-6.3c-0.5,0-1-0.5-1-1c0-0.5,0.4-0.9,1-1H85c0.5,0,1,0.4,1,1S85.6,9,85,9
			C85.1,9,85,9,85,9z"/>
		<path id="Path_55" class="st6" d="M13.4,76.8c-0.6,0-1-0.6-1-1.2V16c0-4.9,3.4-8.9,7.7-8.9h53.6c0.6,0.1,1.1,0.7,1,1.3
			c-0.1,0.5-0.5,0.9-1,1H20.1c-3.1,0-5.7,3-5.7,6.6v59.6C14.4,76.2,14,76.8,13.4,76.8z"/>
		<path id="Path_56" class="st8" d="M107.2,76.2"/>
		<path id="Path_57" class="st8" d="M6.7,76.2"/>
		<g id="Group_35" transform="translate(28.645 24.845)">
			<path id="Path_58" class="st6" d="M27.3,35.4c-0.5,0-1-0.4-1-1l0,0V7.5c0-0.3,0.1-0.5,0.3-0.7c2.4-2,5.1-3.7,8-4.8
				C40.8-0.6,47.8-0.6,54,1.9c0.4,0.2,0.6,0.5,0.6,0.9V31c0,0.5-0.4,1-1,1c-0.2,0-0.3,0-0.5-0.1c-2.3-1-4.7-1.5-7.2-1.6
				c-4.1-0.2-10.6,0.5-18.2,5C27.7,35.4,27.5,35.4,27.3,35.4z M28.3,8v24.7c5.4-3.1,11.6-4.7,17.9-4.4c2.2,0.1,4.3,0.5,6.4,1.2v-26
				c-5.5-2.2-11.7-2.1-17.2,0.3C32.9,4.8,30.5,6.3,28.3,8L28.3,8z"/>
			<path id="Path_59" class="st6" d="M27.3,35.4c-0.2,0-0.4,0-0.5-0.1c-14.5-8.7-25.2-3.5-25.3-3.4c-0.5,0.3-1.1,0.1-1.3-0.4
				C0.1,31.3,0,31.2,0,31V18.5c0-0.5,0.4-1,1-1c0.5,0,1,0.4,1,1c0,0,0,0,0,0.1v11.1c2.1-0.7,4.2-1.1,6.4-1.2
				c6.3-0.3,12.5,1.3,17.9,4.4V8c-2.2-1.7-4.6-3.2-7.1-4.2C13.7,1.5,7.6,1.4,2,3.5v4.9c0,0.5-0.5,1-1,1c-0.5,0-0.9-0.4-1-1V2.9
				c0-0.4,0.2-0.8,0.6-0.9C6.9-0.6,13.8-0.6,20,2c2.9,1.2,5.6,2.8,8,4.8c0.2,0.2,0.3,0.5,0.3,0.7v26.9C28.3,35,27.9,35.4,27.3,35.4
				L27.3,35.4L27.3,35.4z"/>
			<path id="Path_60" class="st6" d="M1,15.9c-0.5,0-1-0.4-1-1V12c0-0.5,0.4-1,1-1c0.5,0,1,0.4,1,1c0,0,0,0,0,0.1v2.9
				C2,15.4,1.6,15.9,1,15.9z"/>
			<g id="Group_33" transform="translate(26.267 3.577)">
				<path id="Path_61" class="st6" d="M29.4,31.5l-2-4.7V1l2,6.3V31.5L1.1,32.7v-1.9c0,0,9.1-5.8,16-5.2c3.5,0.2,6.9,0.8,10.3,1.7
					L29.4,31.5z"/>
				<path id="Path_62" class="st6" d="M1.1,33.7c-0.5,0-1-0.4-1-1l0,0v-1.9c0-0.3,0.2-0.7,0.5-0.8c0.4-0.2,9.5-5.9,16.6-5.3
					c3.1,0.2,6.2,0.7,9.2,1.4V1c0-0.5,0.4-1,1-1c0.4,0,0.8,0.3,0.9,0.7l2,6.3c0,0.1,0,0.2,0,0.3v24.2c0,0.5-0.3,0.9-0.8,1
					c-0.1,0-0.1,0-0.2,0L1.1,33.7L1.1,33.7z M2.1,31.4v0.3l25.8-1.1l-1.2-2.3c-3.2-0.8-6.4-1.3-9.7-1.6C11.4,26.2,4,30.3,2.1,31.4
					L2.1,31.4z M28.4,26.6l0,0.1V7.4l0-0.1V26.6z"/>
			</g>
			<g id="Group_34" transform="translate(0 28.142)">
				<path id="Path_63" class="st6" d="M27.3,8.2L2.9,7.6L1,2.9c0,0,6.7-3.5,16-0.9s10.3,4.3,10.3,4.3L27.3,8.2z"/>
				<path id="Path_64" class="st6" d="M27.3,9.2L27.3,9.2L2.9,8.6C2.5,8.6,2.1,8.3,2,8L0.1,3.2c-0.2-0.5,0-1,0.5-1.2
					c0.3-0.1,7.2-3.7,16.8-1c9.1,2.5,10.6,4.3,10.9,4.8c0.1,0.1,0.1,0.3,0.1,0.5v1.9C28.3,8.7,27.9,9.2,27.3,9.2
					C27.3,9.2,27.3,9.2,27.3,9.2L27.3,9.2z M3.6,6.6l22.7,0.5V6.7c-0.6-0.5-2.6-1.8-9.5-3.8C12.1,1.5,7,1.7,2.3,3.4L3.6,6.6z"/>
			</g>
		</g>
		<path id="Path_65" class="st6" d="M66.4,5.3H45.7c-0.6,0-1.2-0.5-1.2-1.2c0-0.6,0.5-1.2,1.2-1.2h20.7c0.6,0,1.2,0.5,1.2,1.2
			C67.6,4.8,67,5.3,66.4,5.3z"/>
		<path id="Path_66" class="st6" d="M107.2,77.2c-0.6,0-1-0.6-1-1.1V8.3c0-3.3-2.4-6-5.3-6H13c-2.9,0-5.3,2.7-5.3,6v67.8
			c0.1,0.5-0.3,1-0.9,1.1c-0.5,0.1-1-0.3-1.1-0.9c0-0.1,0-0.2,0-0.2V8.3C5.7,3.7,9,0,13,0h88c4,0,7.3,3.7,7.3,8.3v67.8
			C108.3,76.7,107.8,77.2,107.2,77.2z"/>
		<path id="Path_67" class="st6" d="M106,87H8c-4.4,0-8-3.2-8-7.2v-3.5c0-0.5,0.4-1,1-1h19.4c0.5,0,1,0.4,1,1c0,0.5-0.4,1-1,1
			c0,0,0,0-0.1,0H2v2.5C2,82.7,4.7,85,8,85H106c3.3,0,6-2.4,6-5.3v-2.5H40.6c-0.5,0-1-0.4-1-1c0-0.5,0.4-1,1-1c0,0,0,0,0.1,0H113
			c0.5,0,1,0.4,1,1v3.5C114,83.8,110.4,87,106,87z"/>
		<path id="Path_68" class="st6" d="M34,77.2h-7.4c-0.5,0-1-0.4-1-1c0-0.5,0.4-1,1-1c0,0,0,0,0.1,0H34c0.5,0,1,0.5,1,1
			C35,76.8,34.5,77.2,34,77.2z"/>
	</g>
	<g id="Group_37" transform="translate(34.143 32.01)" class="st2">
		<path id="Path_69" class="st6" d="M18.2,5.1c-0.1,0-0.2,0-0.2-0.1c-1.2-1.2-2.6-2.2-4.2-2.9C11.2,1,6.7-0.2,0.4,1.1
			C0.2,1.1,0.1,1,0.1,0.9c0-0.1,0.1-0.3,0.2-0.3c6.5-1.3,11.1-0.1,13.8,1.1c1.7,0.7,3.1,1.7,4.4,3c0.1,0.1,0.1,0.3,0,0.4
			C18.4,5.1,18.3,5.1,18.2,5.1L18.2,5.1z"/>
		<path id="Path_70" class="st6" d="M18.2,9.8c-0.1,0-0.2,0-0.2-0.1c-1.2-1.2-2.6-2.2-4.2-2.9C11.2,5.6,6.7,4.5,0.4,5.7
			C0.2,5.8,0.1,5.7,0,5.5c0-0.1,0.1-0.3,0.2-0.3c0,0,0,0,0,0c6.5-1.3,11.1-0.1,13.8,1.1c1.7,0.7,3.1,1.7,4.4,3
			c0.1,0.1,0.1,0.3,0,0.4C18.4,9.8,18.3,9.8,18.2,9.8L18.2,9.8z"/>
		<path id="Path_71" class="st6" d="M18.2,14.4c-0.1,0-0.2,0-0.2-0.1c-1.2-1.2-2.6-2.2-4.2-2.9c-2.6-1.2-7.1-2.3-13.4-1.1
			c-0.1,0-0.3,0-0.3-0.2c0-0.1,0-0.3,0.2-0.3c0,0,0,0,0,0C6.8,8.6,11.4,9.7,14.1,11c1.7,0.7,3.1,1.7,4.4,3c0.1,0.1,0.1,0.3,0,0.4
			C18.4,14.4,18.3,14.4,18.2,14.4L18.2,14.4z"/>
		<path id="Path_72" class="st6" d="M18.2,19.1c-0.1,0-0.2,0-0.2-0.1c-1.2-1.2-2.6-2.2-4.2-2.9c-2.6-1.2-7.1-2.3-13.4-1.1
			c-0.1,0-0.3-0.1-0.3-0.2c0-0.1,0.1-0.3,0.2-0.3c0,0,0,0,0,0c6.5-1.3,11.1-0.1,13.8,1.1c1.7,0.7,3.1,1.7,4.4,3
			c0.1,0.1,0.1,0.3,0,0.4C18.4,19,18.3,19.1,18.2,19.1L18.2,19.1z"/>
	</g>
	<g id="Group_38" transform="translate(59.827 32.01)" class="st2">
		<path id="Path_73" class="st6" d="M0.3,5.1C0.2,5.1,0.1,5,0.1,4.9c0-0.1,0-0.1,0.1-0.2c1.2-1.3,2.7-2.3,4.4-3
			c2.7-1.2,7.3-2.4,13.8-1.1c0.1,0,0.2,0.2,0.2,0.3c0,0.1-0.2,0.2-0.3,0.2C6-1.3,0.6,5,0.6,5.1C0.5,5.1,0.4,5.2,0.3,5.1z"/>
		<path id="Path_74" class="st6" d="M0.3,9.8c-0.1,0-0.3-0.1-0.3-0.3c0-0.1,0-0.1,0.1-0.2C1.4,8,2.9,7,4.5,6.3
			c2.7-1.2,7.3-2.4,13.8-1.1c0.1,0,0.2,0.2,0.2,0.3c0,0.1-0.2,0.2-0.3,0.2C11.8,4.5,7.4,5.6,4.8,6.8c-1.6,0.7-3,1.6-4.2,2.9
			C0.5,9.8,0.4,9.8,0.3,9.8z"/>
		<path id="Path_75" class="st6" d="M0.3,14.4c-0.1,0-0.3-0.1-0.3-0.3c0-0.1,0-0.1,0.1-0.2c1.2-1.3,2.7-2.3,4.4-3
			c2.7-1.2,7.3-2.4,13.8-1.1c0.1,0,0.2,0.2,0.2,0.3c0,0.1-0.2,0.2-0.3,0.2C6,8,0.6,14.3,0.6,14.3C0.5,14.4,0.4,14.4,0.3,14.4z"/>
		<path id="Path_76" class="st6" d="M0.3,19.1c-0.1,0-0.3-0.1-0.3-0.3c0-0.1,0-0.1,0.1-0.2c1.2-1.3,2.7-2.3,4.4-3
			c2.7-1.2,7.3-2.4,13.8-1.1c0.1,0,0.2,0.2,0.2,0.3c0,0.1-0.2,0.2-0.3,0.2C6,12.6,0.6,18.9,0.6,19C0.5,19,0.4,19.1,0.3,19.1z"/>
	</g>
</g>
<g class="st0">
	<g id="Group_95" transform="translate(0 13.96)" class="st2">
		<path id="Path_191" class="st3" d="M41.2,28.1c-0.5,0-1-0.4-1-1c0-0.4,0.3-0.8,0.7-0.9C41,26.1,56.4,21,58.6,13.8
			c0.5-1.6,0.9-3.2,1.3-4.7c1.1-4.3,2-7.7,4.3-8.7c1.2-0.5,2.5-0.4,3.6,0.3c5.7,2.7,4.8,8.6,4.3,12.5c0,0.2-0.1,0.5-0.1,0.7
			c-0.5,3.9-3.1,13.3-3.3,13.7c-0.1,0.5-0.7,0.9-1.2,0.7c-0.5-0.1-0.9-0.7-0.7-1.2c0,0,0-0.1,0-0.1c0-0.1,2.7-9.7,3.2-13.4
			c0-0.2,0.1-0.4,0.1-0.7C70.7,9,71.4,4.4,67,2.3c-1.2-0.6-1.8-0.3-1.9-0.2c-1.4,0.6-2.3,4-3.2,7.5c-0.4,1.5-0.8,3.1-1.4,4.8
			c-2.6,8.2-18.4,13.5-19,13.7C41.4,28.1,41.3,28.1,41.2,28.1z"/>
		<path id="Path_192" class="st3" d="M89.2,29.9H61.1c-0.5,0-1-0.4-1-1s0.4-1,1-1h28.1c0.5,0,1,0.4,1,1S89.8,29.9,89.2,29.9
			L89.2,29.9z"/>
		<path id="Path_193" class="st3" d="M89.2,40.9h-9.5c-0.5,0-1-0.4-1-1s0.4-1,1-1h9.5c0.5,0,1,0.4,1,1S89.8,40.9,89.2,40.9
			L89.2,40.9z"/>
		<path id="Path_194" class="st3" d="M89.2,52h-9.5c-0.5,0-1-0.4-1-1s0.4-1,1-1h9.5c0.5,0,1,0.4,1,1S89.8,52,89.2,52L89.2,52z"/>
		<path id="Path_195" class="st3" d="M88.2,63.7h-9.5c-0.5,0-1-0.4-1-1s0.4-1,1-1h9.5c0.5,0,1,0.4,1,1S88.7,63.7,88.2,63.7
			L88.2,63.7z"/>
		<path id="Path_196" class="st3" d="M79.3,72.9c-7.8,0-20.5-0.3-26.9-1.9c-4.1-0.9-8.1-2.4-11.7-4.5c-0.5-0.3-0.6-0.9-0.3-1.4
			s0.9-0.6,1.4-0.3l0,0c3.5,2,7.2,3.4,11.2,4.3c9.2,2.3,32.7,1.8,33,1.8c0.5,0,1,0.4,1,1c0,0.5-0.4,1-0.9,1
			C85.6,72.8,83,72.9,79.3,72.9z"/>
		<path id="Path_197" class="st3" d="M89.1,40.5c-0.5,0-1-0.4-1-1c0-0.5,0.4-1,0.9-1c2.3,0,4.2-1.9,4.2-4.2c0-2.3-1.9-4.2-4.2-4.2
			c-0.5,0-1-0.5-0.9-1c0-0.5,0.5-1,1-0.9c3.4,0.2,6,3.1,5.9,6.5C94.9,37.9,92.3,40.4,89.1,40.5L89.1,40.5z"/>
		<path id="Path_198" class="st3" d="M89.1,51.7c-0.5,0-1-0.4-1-1c0-0.5,0.4-1,0.9-1c2.3,0,4.2-1.9,4.2-4.2c0-2.3-1.9-4.2-4.2-4.2
			c-0.5,0-1-0.5-1-1c0-0.5,0.5-1,1-1c0,0,0,0,0,0c3.4,0.2,6,3.1,5.9,6.5C94.9,49,92.3,51.6,89.1,51.7L89.1,51.7z"/>
		<path id="Path_199" class="st3" d="M88,63.7c-0.5,0-1-0.4-1-1c0-0.5,0.4-1,0.9-1c2.3-0.1,5.1-2,5.1-4.2c0-2.2-1.8-4.1-4-4.2
			c-0.5,0-1-0.5-0.9-1c0-0.5,0.5-1,1-0.9c3.3,0.2,5.9,2.9,5.9,6.2C95,60.9,91.4,63.6,88,63.7L88,63.7z"/>
		<path id="Path_200" class="st3" d="M89.1,40.9L89.1,40.9c-0.1,0-0.2,0-0.3,0c-0.5,0-1-0.4-1-1s0.4-1,1-1l0,0c0.1,0,0.1,0,0.2,0
			c0.5,0,1,0.4,1,0.9c0,0,0,0,0,0C90.1,40.5,89.6,40.9,89.1,40.9L89.1,40.9z"/>
		<path id="Path_201" class="st3" d="M85.9,72.8c-0.5,0-1-0.4-1-1s0.4-1,1-1l0,0c2,0,3.6-1.6,3.6-3.6c0-3.6-1.6-3.6-2.3-3.6
			c-0.5,0-1-0.4-1-1s0.4-1,1-1l0,0c1.6,0,4.3,0.7,4.3,5.6C91.4,70.3,89,72.8,85.9,72.8z"/>
		<path id="Path_202" class="st3" d="M36.5,73H24.2c-3.1,0-5.6-2.5-5.7-5.7V28c0-3.1,2.5-5.6,5.7-5.7h12.3c3.1,0,5.6,2.5,5.7,5.7
			v39.4C42.1,70.5,39.6,73,36.5,73z M24.2,24.3c-2,0-3.7,1.6-3.7,3.7v39.4c0,2,1.6,3.7,3.7,3.7h12.3c2,0,3.7-1.6,3.7-3.7V28
			c0-2-1.6-3.7-3.7-3.7L24.2,24.3z"/>
	</g>
	<path id="Path_203" class="st1" d="M61.1,13.4c-0.4,0-0.8-0.2-1.1-0.6l-6-8.1c-0.4-0.6-0.3-1.4,0.3-1.9s1.4-0.3,1.9,0.3l0,0l6,8.1
		c0.4,0.6,0.3,1.4-0.3,1.9C61.7,13.3,61.4,13.4,61.1,13.4L61.1,13.4z"/>
	<path id="Path_204" class="st1" d="M68.2,12.2c-0.1,0-0.1,0-0.2,0c-0.7-0.1-1.3-0.8-1.2-1.5c0,0,0,0,0,0l1.1-9.5
		C68,0.5,68.7-0.1,69.4,0c0.7,0.1,1.3,0.7,1.2,1.5c0,0,0,0,0,0L69.5,11C69.5,11.6,68.9,12.2,68.2,12.2z"/>
	<path id="Path_205" class="st1" d="M75.9,14.3c-0.7,0-1.3-0.6-1.3-1.3c0-0.4,0.2-0.8,0.5-1l7.5-6.4c0.6-0.5,1.4-0.4,1.9,0.2
		s0.4,1.4-0.2,1.9l0,0L76.8,14C76.6,14.2,76.3,14.3,75.9,14.3z"/>
</g>
<g class="st0">
	<g id="Group_95_1_" transform="translate(0 13.96)" class="st2">
		<path id="Path_191_1_" class="st9" d="M41.2,28.1c-0.5,0-1-0.4-1-1c0-0.4,0.3-0.8,0.7-0.9C41,26.1,56.4,21,58.6,13.8
			c0.5-1.6,0.9-3.2,1.3-4.7c1.1-4.3,2-7.7,4.3-8.7c1.2-0.5,2.5-0.4,3.6,0.3c5.7,2.7,4.8,8.6,4.3,12.5c0,0.2-0.1,0.5-0.1,0.7
			c-0.5,3.9-3.1,13.3-3.3,13.7c-0.1,0.5-0.7,0.9-1.2,0.7c-0.5-0.1-0.9-0.7-0.7-1.2c0,0,0-0.1,0-0.1c0-0.1,2.7-9.7,3.2-13.4
			c0-0.2,0.1-0.4,0.1-0.7C70.7,9,71.4,4.4,67,2.3c-1.2-0.6-1.8-0.3-1.9-0.2c-1.4,0.6-2.3,4-3.2,7.5c-0.4,1.5-0.8,3.1-1.4,4.8
			c-2.6,8.2-18.4,13.5-19,13.7C41.4,28.1,41.3,28.1,41.2,28.1z"/>
		<path id="Path_192_1_" class="st9" d="M89.2,29.9H61.1c-0.5,0-1-0.4-1-1s0.4-1,1-1h28.1c0.5,0,1,0.4,1,1S89.8,29.9,89.2,29.9
			L89.2,29.9z"/>
		<path id="Path_193_1_" class="st9" d="M89.2,40.9h-9.5c-0.5,0-1-0.4-1-1s0.4-1,1-1h9.5c0.5,0,1,0.4,1,1S89.8,40.9,89.2,40.9
			L89.2,40.9z"/>
		<path id="Path_194_1_" class="st9" d="M89.2,52h-9.5c-0.5,0-1-0.4-1-1s0.4-1,1-1h9.5c0.5,0,1,0.4,1,1S89.8,52,89.2,52L89.2,52z"/>
		<path id="Path_195_1_" class="st9" d="M88.2,63.7h-9.5c-0.5,0-1-0.4-1-1s0.4-1,1-1h9.5c0.5,0,1,0.4,1,1S88.7,63.7,88.2,63.7
			L88.2,63.7z"/>
		<path id="Path_196_1_" class="st9" d="M79.3,72.9c-7.8,0-20.5-0.3-26.9-1.9c-4.1-0.9-8.1-2.4-11.7-4.5c-0.5-0.3-0.6-0.9-0.3-1.4
			s0.9-0.6,1.4-0.3l0,0c3.5,2,7.2,3.4,11.2,4.3c9.2,2.3,32.7,1.8,33,1.8c0.5,0,1,0.4,1,1c0,0.5-0.4,1-0.9,1
			C85.6,72.8,83,72.9,79.3,72.9z"/>
		<path id="Path_197_1_" class="st9" d="M89.1,40.5c-0.5,0-1-0.4-1-1c0-0.5,0.4-1,0.9-1c2.3,0,4.2-1.9,4.2-4.2
			c0-2.3-1.9-4.2-4.2-4.2c-0.5,0-1-0.5-0.9-1c0-0.5,0.5-1,1-0.9c3.4,0.2,6,3.1,5.9,6.5C94.9,37.9,92.3,40.4,89.1,40.5L89.1,40.5z"/>
		<path id="Path_198_1_" class="st9" d="M89.1,51.7c-0.5,0-1-0.4-1-1c0-0.5,0.4-1,0.9-1c2.3,0,4.2-1.9,4.2-4.2
			c0-2.3-1.9-4.2-4.2-4.2c-0.5,0-1-0.5-1-1c0-0.5,0.5-1,1-1c0,0,0,0,0,0c3.4,0.2,6,3.1,5.9,6.5C94.9,49,92.3,51.6,89.1,51.7
			L89.1,51.7z"/>
		<path id="Path_199_1_" class="st9" d="M88,63.7c-0.5,0-1-0.4-1-1c0-0.5,0.4-1,0.9-1c2.3-0.1,5.1-2,5.1-4.2c0-2.2-1.8-4.1-4-4.2
			c-0.5,0-1-0.5-0.9-1c0-0.5,0.5-1,1-0.9c3.3,0.2,5.9,2.9,5.9,6.2C95,60.9,91.4,63.6,88,63.7L88,63.7z"/>
		<path id="Path_200_1_" class="st9" d="M89.1,40.9L89.1,40.9c-0.1,0-0.2,0-0.3,0c-0.5,0-1-0.4-1-1s0.4-1,1-1l0,0c0.1,0,0.1,0,0.2,0
			c0.5,0,1,0.4,1,0.9c0,0,0,0,0,0C90.1,40.5,89.6,40.9,89.1,40.9L89.1,40.9z"/>
		<path id="Path_201_1_" class="st9" d="M85.9,72.8c-0.5,0-1-0.4-1-1s0.4-1,1-1l0,0c2,0,3.6-1.6,3.6-3.6c0-3.6-1.6-3.6-2.3-3.6
			c-0.5,0-1-0.4-1-1s0.4-1,1-1l0,0c1.6,0,4.3,0.7,4.3,5.6C91.4,70.3,89,72.8,85.9,72.8z"/>
		<path id="Path_202_1_" class="st9" d="M36.5,73H24.2c-3.1,0-5.6-2.5-5.7-5.7V28c0-3.1,2.5-5.6,5.7-5.7h12.3c3.1,0,5.6,2.5,5.7,5.7
			v39.4C42.1,70.5,39.6,73,36.5,73z M24.2,24.3c-2,0-3.7,1.6-3.7,3.7v39.4c0,2,1.6,3.7,3.7,3.7h12.3c2,0,3.7-1.6,3.7-3.7V28
			c0-2-1.6-3.7-3.7-3.7L24.2,24.3z"/>
	</g>
	<path id="Path_203_1_" class="st10" d="M61.1,13.4c-0.4,0-0.8-0.2-1.1-0.6l-6-8.1c-0.4-0.6-0.3-1.4,0.3-1.9s1.4-0.3,1.9,0.3l0,0
		l6,8.1c0.4,0.6,0.3,1.4-0.3,1.9C61.7,13.3,61.4,13.4,61.1,13.4L61.1,13.4z"/>
	<path id="Path_204_1_" class="st10" d="M68.2,12.2c-0.1,0-0.1,0-0.2,0c-0.7-0.1-1.3-0.8-1.2-1.5c0,0,0,0,0,0l1.1-9.5
		C68,0.5,68.7-0.1,69.4,0c0.7,0.1,1.3,0.7,1.2,1.5c0,0,0,0,0,0L69.5,11C69.5,11.6,68.9,12.2,68.2,12.2z"/>
	<path id="Path_205_1_" class="st10" d="M75.9,14.3c-0.7,0-1.3-0.6-1.3-1.3c0-0.4,0.2-0.8,0.5-1l7.5-6.4c0.6-0.5,1.4-0.4,1.9,0.2
		s0.4,1.4-0.2,1.9l0,0L76.8,14C76.6,14.2,76.3,14.3,75.9,14.3z"/>
</g>
</svg>
