<?xml version="1.0" encoding="utf-8"?>
<!-- Generator: Adobe Illustrator 21.0.0, SVG Export Plug-In . SVG Version: 6.00 Build 0)  -->
<svg version="1.1" id="圖層_1" xmlns="http://www.w3.org/2000/svg" xmlns:xlink="http://www.w3.org/1999/xlink" x="0px" y="0px"
	 width="134px" height="134px" viewBox="0 0 134 134" style="enable-background:new 0 0 134 134;" xml:space="preserve">
<style type="text/css">
	.st0{fill:#F4B82C;}
	.st1{fill:#7999B9;}
	.st2{enable-background:new    ;}
	.st3{opacity:0.46;fill:#95B2C4;enable-background:new    ;}
	.st4{fill:#81C0D8;}
	.st5{fill:#FFFFFF;}
	.st6{fill:none;stroke:#7999B9;}
	.st7{fill:#7FB6EE;}
	.st8{display:none;}
	.st9{display:inline;}
</style>
<g id="Group_117" transform="translate(556 94)">
	<circle id="Ellipse_12" class="st7" cx="-489" cy="-27" r="67"/>
	<g id="Group_116" transform="translate(-569 -283)">
		<g id="Group_96" transform="translate(922 1741)">
			<g id="Group_95" transform="translate(0 13.96)">
				<path id="Path_191" class="st5" d="M-857.3-1499.9c-0.5,0-1-0.4-1-1c0-0.4,0.3-0.8,0.7-0.9c0.2-0.1,15.5-5.2,17.8-12.4
					c0.5-1.6,0.9-3.2,1.3-4.7c1.1-4.3,2-7.7,4.3-8.7c1.2-0.5,2.5-0.4,3.6,0.3c5.7,2.7,4.8,8.6,4.3,12.5c0,0.2-0.1,0.5-0.1,0.7
					c-0.5,3.9-3.1,13.3-3.3,13.7c-0.1,0.5-0.7,0.9-1.2,0.7c-0.5-0.1-0.9-0.7-0.7-1.2c0,0,0-0.1,0-0.1c0-0.1,2.7-9.7,3.2-13.4
					c0-0.2,0.1-0.4,0.1-0.7c0.5-3.7,1.2-8.3-3.2-10.4c-1.2-0.6-1.8-0.3-1.9-0.2c-1.4,0.6-2.3,4-3.2,7.5c-0.4,1.5-0.8,3.1-1.4,4.8
					c-2.6,8.2-18.4,13.5-19,13.7C-857.1-1499.9-857.2-1499.9-857.3-1499.9z"/>
				<path id="Path_192" class="st5" d="M-809.3-1498.1h-28.1c-0.5,0-1-0.4-1-1s0.4-1,1-1h28.1c0.5,0,1,0.4,1,1
					S-808.7-1498.1-809.3-1498.1L-809.3-1498.1z"/>
				<path id="Path_193" class="st5" d="M-809.3-1487.1h-9.5c-0.5,0-1-0.4-1-1s0.4-1,1-1h9.5c0.5,0,1,0.4,1,1
					S-808.7-1487.1-809.3-1487.1L-809.3-1487.1z"/>
				<path id="Path_194" class="st5" d="M-809.3-1476h-9.5c-0.5,0-1-0.4-1-1s0.4-1,1-1h9.5c0.5,0,1,0.4,1,1S-808.7-1476-809.3-1476
					L-809.3-1476z"/>
				<path id="Path_195" class="st5" d="M-810.4-1464.3h-9.5c-0.5,0-1-0.4-1-1s0.4-1,1-1h9.5c0.5,0,1,0.4,1,1
					S-809.8-1464.3-810.4-1464.3L-810.4-1464.3z"/>
				<path id="Path_196" class="st5" d="M-819.2-1455.1c-7.8,0-20.5-0.3-26.9-1.9c-4.1-0.9-8.1-2.4-11.7-4.5
					c-0.5-0.3-0.6-0.9-0.3-1.4s0.9-0.6,1.4-0.3l0,0c3.5,2,7.2,3.4,11.2,4.3c9.2,2.3,32.7,1.8,33,1.8c0.5,0,1,0.4,1,1
					c0,0.5-0.4,1-0.9,1C-812.9-1455.2-815.5-1455.1-819.2-1455.1z"/>
				<path id="Path_197" class="st5" d="M-809.4-1487.5c-0.5,0-1-0.4-1-1c0-0.5,0.4-1,0.9-1c2.3,0,4.2-1.9,4.2-4.2
					c0-2.3-1.9-4.2-4.2-4.2c-0.5,0-1-0.5-0.9-1c0-0.5,0.5-1,1-0.9c3.4,0.2,6,3.1,5.9,6.5C-803.7-1490.1-806.2-1487.6-809.4-1487.5
					L-809.4-1487.5z"/>
				<path id="Path_198" class="st5" d="M-809.4-1476.3c-0.5,0-1-0.4-1-1c0-0.5,0.4-1,0.9-1c2.3,0,4.2-1.9,4.2-4.2
					c0-2.3-1.9-4.2-4.2-4.2c-0.5,0-1-0.5-1-1c0-0.5,0.5-1,1-1c0,0,0,0,0,0c3.4,0.2,6,3.1,5.9,6.5
					C-803.7-1479-806.2-1476.4-809.4-1476.3L-809.4-1476.3z"/>
				<path id="Path_199" class="st5" d="M-810.5-1464.3c-0.5,0-1-0.4-1-1c0-0.5,0.4-1,0.9-1c2.3-0.1,5.1-2,5.1-4.2
					c0-2.2-1.8-4.1-4-4.2c-0.5,0-1-0.5-0.9-1c0-0.5,0.5-1,1-0.9c3.3,0.2,5.9,2.9,5.9,6.2C-803.5-1467.1-807.2-1464.4-810.5-1464.3
					L-810.5-1464.3z"/>
				<path id="Path_200" class="st5" d="M-809.4-1487.1L-809.4-1487.1c-0.1,0-0.2,0-0.3,0c-0.5,0-1-0.4-1-1s0.4-1,1-1l0,0
					c0.1,0,0.1,0,0.2,0c0.5,0,1,0.4,1,0.9c0,0,0,0,0,0C-808.4-1487.5-808.9-1487.1-809.4-1487.1L-809.4-1487.1z"/>
				<path id="Path_201" class="st5" d="M-812.6-1455.2c-0.5,0-1-0.4-1-1s0.4-1,1-1l0,0c2,0,3.6-1.6,3.6-3.6c0-3.6-1.6-3.6-2.3-3.6
					c-0.5,0-1-0.4-1-1s0.4-1,1-1l0,0c1.6,0,4.3,0.7,4.3,5.6C-807.1-1457.7-809.6-1455.2-812.6-1455.2z"/>
				<path id="Path_202" class="st5" d="M-862-1455h-12.3c-3.1,0-5.6-2.5-5.7-5.7v-39.4c0-3.1,2.5-5.6,5.7-5.7h12.3
					c3.1,0,5.6,2.5,5.7,5.7v39.4C-856.4-1457.5-858.9-1455-862-1455z M-874.3-1503.7c-2,0-3.7,1.6-3.7,3.7v39.4c0,2,1.6,3.7,3.7,3.7
					h12.3c2,0,3.7-1.6,3.7-3.7v-39.4c0-2-1.6-3.7-3.7-3.7L-874.3-1503.7z"/>
			</g>
			<path id="Path_203" class="st5" d="M-837.4-1514.6c-0.4,0-0.8-0.2-1.1-0.6l-6-8.1c-0.4-0.6-0.3-1.4,0.3-1.9s1.4-0.3,1.9,0.3l0,0
				l6,8.1c0.4,0.6,0.3,1.4-0.3,1.9C-836.8-1514.7-837.1-1514.6-837.4-1514.6L-837.4-1514.6z"/>
			<path id="Path_204" class="st5" d="M-830.3-1515.8c-0.1,0-0.1,0-0.2,0c-0.7-0.1-1.3-0.8-1.2-1.5c0,0,0,0,0,0l1.1-9.5
				c0.1-0.7,0.7-1.3,1.5-1.2c0.7,0.1,1.3,0.7,1.2,1.5c0,0,0,0,0,0l-1.1,9.5C-829.1-1516.4-829.6-1515.8-830.3-1515.8z"/>
			<path id="Path_205" class="st5" d="M-822.6-1513.7c-0.7,0-1.3-0.6-1.3-1.3c0-0.4,0.2-0.8,0.5-1l7.5-6.4c0.6-0.5,1.4-0.4,1.9,0.2
				s0.4,1.4-0.2,1.9l0,0l-7.5,6.4C-822-1513.8-822.3-1513.7-822.6-1513.7z"/>
		</g>
	</g>
</g>
<g class="st8">
	<g id="Group_117-2" transform="translate(556 94)" class="st9">
		<circle id="Ellipse_12-2" class="st7" cx="-489" cy="-27" r="67"/>
	</g>
	<g id="Group_121" transform="translate(489.207 257.143) rotate(8)" class="st9">
		<g id="Group_120" transform="translate(700 1964)">
			<path id="Path_218" class="st5" d="M-1173.8-2064.6c-1.6,0-3.1-0.3-4.6-0.7c-7.8-2.5-12-10.9-9.4-18.6c1.2-3.7,3.8-6.8,7.3-8.6
				l14.1-7.2c0.5-0.2,1-0.1,1.3,0.4l14.7,23.4c0.3,0.5,0.2,1.1-0.3,1.4c0,0-0.1,0-0.1,0l-16.3,8.3
				C-1169.2-2065.2-1171.5-2064.6-1173.8-2064.6z M-1166.3-2097.5l-13.3,6.8l0,0c-6.3,3.2-8.8,10.9-5.6,17.2s10.9,8.8,17.2,5.6l0,0
				l15.3-7.8L-1166.3-2097.5z M-1180.1-2091.7L-1180.1-2091.7z"/>
			<path id="Path_219" class="st5" d="M-1156.3-2109.9c-0.6,0-1-0.4-1-1c0-0.2,0.1-0.5,0.2-0.6l3.5-4.3c0.3-0.4,1-0.5,1.4-0.2
				s0.5,1,0.2,1.4l-3.5,4.3C-1155.7-2110-1156-2109.9-1156.3-2109.9z"/>
			<path id="Path_220" class="st5" d="M-1151.3-2074.4c-0.3,0-0.7-0.2-0.8-0.5l-14.7-23.4c-0.2-0.4-0.2-0.8,0.1-1.2l6.6-8.3
				c0.3-0.4,1-0.5,1.4-0.2s0.5,1,0.2,1.4l0,0l-6.2,7.7l13.9,22.1c4.6-1.7,27.8-10.2,33.9-12c3.1-0.9,4.9-1.8,5.2-2.4
				c0.1-0.1,0.1-0.4-0.2-0.9c-0.6-1.3-20.7-36.2-23.4-39.8c-0.2-0.4-0.6-0.6-1-0.6c-1.4,0-3.6,2.4-4.4,3.6c0,0,0,0,0,0.1l-8.5,10.6
				c-0.3,0.4-1,0.5-1.4,0.2s-0.5-1-0.2-1.4l8.5-10.6c0.4-0.6,3.2-4.4,6-4.4c1.1,0,2.1,0.5,2.7,1.4c2.5,3.3,22.6,37.9,23.6,40.1
				c0.4,0.8,0.5,1.7,0.1,2.6c-0.6,1.3-2.4,2.3-6.5,3.5c-6.5,1.9-34.2,12.2-34.5,12.3C-1151.1-2074.4-1151.2-2074.4-1151.3-2074.4z"
				/>
			<path id="Path_221" class="st5" d="M-1119.3-2085.9c-0.4,0-0.7-0.2-0.9-0.5l-23.6-40.4c-0.3-0.5-0.1-1.1,0.4-1.4
				c0.5-0.3,1.1-0.1,1.4,0.4l23.6,40.4c0.3,0.5,0.1,1.1-0.4,1.4C-1118.9-2085.9-1119.1-2085.9-1119.3-2085.9L-1119.3-2085.9z"/>
			<path id="Path_222" class="st5" d="M-1117.3-2103.7L-1117.3-2103.7c-0.4,0-0.7-0.2-0.9-0.5l-7.5-13c-0.3-0.5-0.1-1.1,0.4-1.4
				c0.1-0.1,0.3-0.1,0.5-0.1l6.3-0.2c0.4,0,0.8,0.2,0.9,0.6l4.3,8.7c0.2,0.3,0.1,0.7-0.1,1l-3.1,4.4
				C-1116.7-2103.9-1117-2103.7-1117.3-2103.7z M-1123.1-2116.7l5.9,10.1l1.9-2.7l-3.7-7.6L-1123.1-2116.7z"/>
			<path id="Path_223" class="st5" d="M-1154.1-2067.5c-0.6,0-1-0.4-1-1c0-0.4,0.2-0.7,0.5-0.9l4.2-2.4l-1.7-3.1
				c-0.3-0.5-0.1-1.1,0.4-1.4c0.5-0.3,1.1-0.1,1.4,0.4l2.2,4c0.3,0.5,0.1,1.1-0.4,1.3l-5,2.9
				C-1153.8-2067.5-1154-2067.5-1154.1-2067.5z"/>
			<path id="Path_224" class="st5" d="M-1154-2046.7c-2.6,0-5.1-1.4-6.4-3.7c-0.3-0.5-0.1-1.1,0.4-1.4c0.5-0.3,1.1-0.1,1.4,0.4
				c1.5,2.6,4.8,3.5,7.3,2s3.5-4.8,2-7.3l-8.2-14.3l-8.6,4.4c-0.3,0.2-0.6,0.3-1,0.5l1.9,3.3c0.3,0.5,0.1,1.1-0.4,1.4
				c-0.5,0.3-1.1,0.1-1.4-0.4l-2.5-4.4c-0.3-0.5-0.1-1.1,0.4-1.4c0.1,0,0.1-0.1,0.2-0.1c0.6-0.2,1.2-0.5,1.8-0.8l9.5-4.8
				c0.5-0.2,1.1-0.1,1.3,0.4l8.7,15.1c2,3.5,0.8,8-2.7,10.1C-1151.4-2047.1-1152.7-2046.7-1154-2046.7L-1154-2046.7z"/>
			<path id="Path_225" class="st5" d="M-1162.5-2055c-0.4,0-0.7-0.2-0.9-0.5l-2.1-3.6c-0.3-0.5-0.1-1.1,0.4-1.4
				c0.5-0.3,1.1-0.1,1.4,0.4l2.1,3.6c0.3,0.5,0.1,1.1-0.4,1.4C-1162.1-2055.1-1162.3-2055-1162.5-2055L-1162.5-2055z"/>
			<path id="Path_226" class="st5" d="M-1113.9-2121.4c-0.3-0.4-0.3-0.8-0.2-1.2l3.1-9.8c0.2-0.7,1-1.1,1.7-0.9
				c0.7,0.2,1.1,1,0.9,1.7l-3.1,9.8c-0.2,0.7-1,1.1-1.7,0.9C-1113.5-2121-1113.8-2121.2-1113.9-2121.4L-1113.9-2121.4z"/>
			<path id="Path_227" class="st5" d="M-1108.7-2116.4c0,0-0.1-0.1-0.1-0.1c-0.4-0.7-0.1-1.5,0.5-1.9c0,0,0,0,0,0l8.4-4.8
				c0.7-0.4,1.5-0.1,1.9,0.5s0.1,1.5-0.5,1.9l0,0l-8.4,4.8C-1107.5-2115.6-1108.2-2115.8-1108.7-2116.4z"/>
			<path id="Path_228" class="st5" d="M-1105.8-2108.7c-0.4-0.6-0.3-1.5,0.3-1.9c0.3-0.2,0.7-0.3,1.1-0.2l9.7,2.3
				c0.7,0.2,1.2,0.9,1,1.6s-0.9,1.2-1.6,1l0,0l-9.7-2.3C-1105.3-2108.3-1105.6-2108.5-1105.8-2108.7z"/>
		</g>
	</g>
</g>
</svg>
