<?xml version="1.0" encoding="utf-8"?>
<!-- Generator: Adobe Illustrator 21.0.0, SVG Export Plug-In . SVG Version: 6.00 Build 0)  -->
<svg version="1.1" id="圖層_1" xmlns="http://www.w3.org/2000/svg" xmlns:xlink="http://www.w3.org/1999/xlink" x="0px" y="0px"
	 width="1332px" height="581px" viewBox="0 0 1332 581" style="enable-background:new 0 0 1332 581;" xml:space="preserve">
<style type="text/css">
	.st0{fill:#F4B82C;}
	.st1{fill:#7999B9;}
	.st2{enable-background:new    ;}
	.st3{opacity:0.46;fill:#95B2C4;enable-background:new    ;}
	.st4{fill:#81C0D8;}
	.st5{fill:#FFFFFF;}
	.st6{fill:none;stroke:#7999B9;}
	.st7{display:none;}
	.st8{display:inline;fill:#7FB6EE;}
	.st9{display:inline;}
	.st10{fill:#7FB6EE;}
</style>
<g id="Group_105" transform="translate(294 1595)">
	<path id="Rectangle_3" class="st1" d="M-231-1572H993c24.9,0,45,20.1,45,45v468c0,24.9-20.1,45-45,45H-231c-24.9,0-45-20.1-45-45
		v-468C-276-1551.9-255.9-1572-231-1572z"/>
	<g id="Rectangle_2">
		<path class="st5" d="M-249-1595H975c24.9,0,45,20.1,45,45v468c0,24.9-20.1,45-45,45H-249c-24.9,0-45-20.1-45-45v-468
			C-294-1574.9-273.9-1595-249-1595z"/>
		<path class="st6" d="M-249-1594.5H975c24.6,0,44.5,19.9,44.5,44.5v468c0,24.6-19.9,44.5-44.5,44.5H-249
			c-24.6,0-44.5-19.9-44.5-44.5v-468C-293.5-1574.6-273.6-1594.5-249-1594.5z"/>
	</g>
</g>
</svg>
