<?xml version="1.0" encoding="utf-8"?>
<!-- Generator: Adobe Illustrator 21.0.0, SVG Export Plug-In . SVG Version: 6.00 Build 0)  -->
<svg version="1.1" id="圖層_1" xmlns="http://www.w3.org/2000/svg" xmlns:xlink="http://www.w3.org/1999/xlink" x="0px" y="0px"
	 width="1332px" height="648px" viewBox="0 0 1332 648" style="enable-background:new 0 0 1332 648;" xml:space="preserve">
<style type="text/css">
	.st0{fill:#F4B82C;}
	.st1{fill:#7999B9;}
	.st2{enable-background:new    ;}
	.st3{opacity:0.46;fill:#95B2C4;enable-background:new    ;}
	.st4{fill:#81C0D8;}
	.st5{fill:#FFFFFF;}
	.st6{fill:none;stroke:#7999B9;}
	.st7{display:none;}
	.st8{display:inline;fill:#7FB6EE;}
	.st9{display:inline;}
	.st10{fill:#7FB6EE;}
</style>
<g id="Group_118">
	<g id="Group_105_1_" transform="translate(294 1595)">
		<path id="Rectangle_3_1_" class="st1" d="M-231-1505H993c24.9,0,45,20.1,45,45v468c0,24.9-20.1,45-45,45H-231
			c-24.9,0-45-20.1-45-45v-468C-276-1484.9-255.9-1505-231-1505z"/>
		<g id="Rectangle_2_1_">
			<path class="st5" d="M-249-1528H975c24.9,0,45,20.1,45,45v468c0,24.9-20.1,45-45,45H-249c-24.9,0-45-20.1-45-45v-468
				C-294-1507.9-273.9-1528-249-1528z"/>
			<path class="st6" d="M-249-1527.5H975c24.6,0,44.5,19.9,44.5,44.5v468c0,24.6-19.9,44.5-44.5,44.5H-249
				c-24.6,0-44.5-19.9-44.5-44.5v-468C-293.5-1507.6-273.6-1527.5-249-1527.5z"/>
		</g>
	</g>
	<g id="Group_117_1_" transform="translate(556 94)">
		<circle id="Ellipse_12_1_" class="st10" cx="97" cy="-27" r="67"/>
		<g id="Group_116_1_" transform="translate(-569 -283)">
			<g id="Group_96_1_" transform="translate(922 1741)">
				<g id="Group_95_1_" transform="translate(0 13.96)">
					<path id="Path_191_1_" class="st5" d="M-271.3-1499.9c-0.5,0-1-0.4-1-1c0-0.4,0.3-0.8,0.7-0.9c0.2-0.1,15.5-5.2,17.8-12.4
						c0.5-1.6,0.9-3.2,1.3-4.7c1.1-4.3,2-7.7,4.3-8.7c1.2-0.5,2.5-0.4,3.6,0.3c5.7,2.7,4.8,8.6,4.3,12.5c0,0.2-0.1,0.5-0.1,0.7
						c-0.5,3.9-3.1,13.3-3.3,13.7c-0.1,0.5-0.7,0.9-1.2,0.7c-0.5-0.1-0.9-0.7-0.7-1.2c0,0,0-0.1,0-0.1c0-0.1,2.7-9.7,3.2-13.4
						c0-0.2,0.1-0.4,0.1-0.7c0.5-3.7,1.2-8.3-3.2-10.4c-1.2-0.6-1.8-0.3-1.9-0.2c-1.4,0.6-2.3,4-3.2,7.5c-0.4,1.5-0.8,3.1-1.4,4.8
						c-2.6,8.2-18.4,13.5-19,13.7C-271.1-1499.9-271.2-1499.9-271.3-1499.9z"/>
					<path id="Path_192_1_" class="st5" d="M-223.3-1498.1h-28.1c-0.5,0-1-0.4-1-1s0.4-1,1-1h28.1c0.5,0,1,0.4,1,1
						S-222.7-1498.1-223.3-1498.1L-223.3-1498.1z"/>
					<path id="Path_193_1_" class="st5" d="M-223.3-1487.1h-9.5c-0.5,0-1-0.4-1-1s0.4-1,1-1h9.5c0.5,0,1,0.4,1,1
						S-222.7-1487.1-223.3-1487.1L-223.3-1487.1z"/>
					<path id="Path_194_1_" class="st5" d="M-223.3-1476h-9.5c-0.5,0-1-0.4-1-1s0.4-1,1-1h9.5c0.5,0,1,0.4,1,1
						S-222.7-1476-223.3-1476L-223.3-1476z"/>
					<path id="Path_195_1_" class="st5" d="M-224.4-1464.3h-9.5c-0.5,0-1-0.4-1-1s0.4-1,1-1h9.5c0.5,0,1,0.4,1,1
						S-223.8-1464.3-224.4-1464.3L-224.4-1464.3z"/>
					<path id="Path_196_1_" class="st5" d="M-233.2-1455.1c-7.8,0-20.5-0.3-26.9-1.9c-4.1-0.9-8.1-2.4-11.7-4.5
						c-0.5-0.3-0.6-0.9-0.3-1.4s0.9-0.6,1.4-0.3l0,0c3.5,2,7.2,3.4,11.2,4.3c9.2,2.3,32.7,1.8,33,1.8c0.5,0,1,0.4,1,1
						c0,0.5-0.4,1-0.9,1C-226.9-1455.2-229.5-1455.1-233.2-1455.1z"/>
					<path id="Path_197_1_" class="st5" d="M-223.4-1487.5c-0.5,0-1-0.4-1-1c0-0.5,0.4-1,0.9-1c2.3,0,4.2-1.9,4.2-4.2
						c0-2.3-1.9-4.2-4.2-4.2c-0.5,0-1-0.5-0.9-1c0-0.5,0.5-1,1-0.9c3.4,0.2,6,3.1,5.9,6.5C-217.7-1490.1-220.2-1487.6-223.4-1487.5
						L-223.4-1487.5z"/>
					<path id="Path_198_1_" class="st5" d="M-223.4-1476.3c-0.5,0-1-0.4-1-1c0-0.5,0.4-1,0.9-1c2.3,0,4.2-1.9,4.2-4.2
						c0-2.3-1.9-4.2-4.2-4.2c-0.5,0-1-0.5-1-1c0-0.5,0.5-1,1-1c0,0,0,0,0,0c3.4,0.2,6,3.1,5.9,6.5
						C-217.7-1479-220.2-1476.4-223.4-1476.3L-223.4-1476.3z"/>
					<path id="Path_199_1_" class="st5" d="M-224.5-1464.3c-0.5,0-1-0.4-1-1c0-0.5,0.4-1,0.9-1c2.3-0.1,5.1-2,5.1-4.2
						c0-2.2-1.8-4.1-4-4.2c-0.5,0-1-0.5-0.9-1c0-0.5,0.5-1,1-0.9c3.3,0.2,5.9,2.9,5.9,6.2C-217.5-1467.1-221.2-1464.4-224.5-1464.3
						L-224.5-1464.3z"/>
					<path id="Path_200_1_" class="st5" d="M-223.4-1487.1L-223.4-1487.1c-0.1,0-0.2,0-0.3,0c-0.5,0-1-0.4-1-1s0.4-1,1-1l0,0
						c0.1,0,0.1,0,0.2,0c0.5,0,1,0.4,1,0.9c0,0,0,0,0,0C-222.4-1487.5-222.9-1487.1-223.4-1487.1L-223.4-1487.1z"/>
					<path id="Path_201_1_" class="st5" d="M-226.6-1455.2c-0.5,0-1-0.4-1-1s0.4-1,1-1l0,0c2,0,3.6-1.6,3.6-3.6
						c0-3.6-1.6-3.6-2.3-3.6c-0.5,0-1-0.4-1-1s0.4-1,1-1l0,0c1.6,0,4.3,0.7,4.3,5.6C-221.1-1457.7-223.6-1455.2-226.6-1455.2z"/>
					<path id="Path_202_1_" class="st5" d="M-276-1455h-12.3c-3.1,0-5.6-2.5-5.7-5.7v-39.4c0-3.1,2.5-5.6,5.7-5.7h12.3
						c3.1,0,5.6,2.5,5.7,5.7v39.4C-270.4-1457.5-272.9-1455-276-1455z M-288.3-1503.7c-2,0-3.7,1.6-3.7,3.7v39.4
						c0,2,1.6,3.7,3.7,3.7h12.3c2,0,3.7-1.6,3.7-3.7v-39.4c0-2-1.6-3.7-3.7-3.7L-288.3-1503.7z"/>
				</g>
				<path id="Path_203_1_" class="st5" d="M-251.4-1514.6c-0.4,0-0.8-0.2-1.1-0.6l-6-8.1c-0.4-0.6-0.3-1.4,0.3-1.9s1.4-0.3,1.9,0.3
					l0,0l6,8.1c0.4,0.6,0.3,1.4-0.3,1.9C-250.8-1514.7-251.1-1514.6-251.4-1514.6L-251.4-1514.6z"/>
				<path id="Path_204_1_" class="st5" d="M-244.3-1515.8c-0.1,0-0.1,0-0.2,0c-0.7-0.1-1.3-0.8-1.2-1.5c0,0,0,0,0,0l1.1-9.5
					c0.1-0.7,0.7-1.3,1.5-1.2c0.7,0.1,1.3,0.7,1.2,1.5c0,0,0,0,0,0l-1.1,9.5C-243.1-1516.4-243.6-1515.8-244.3-1515.8z"/>
				<path id="Path_205_1_" class="st5" d="M-236.6-1513.7c-0.7,0-1.3-0.6-1.3-1.3c0-0.4,0.2-0.8,0.5-1l7.5-6.4
					c0.6-0.5,1.4-0.4,1.9,0.2s0.4,1.4-0.2,1.9l0,0l-7.5,6.4C-236-1513.8-236.3-1513.7-236.6-1513.7z"/>
			</g>
		</g>
	</g>
</g>
</svg>
