<?xml version="1.0" encoding="utf-8"?>
<!-- Generator: Adobe Illustrator 21.0.0, SVG Export Plug-In . SVG Version: 6.00 Build 0)  -->
<svg version="1.1" id="圖層_1" xmlns="http://www.w3.org/2000/svg" xmlns:xlink="http://www.w3.org/1999/xlink" x="0px" y="0px"
	 width="69.9px" height="77px" viewBox="0 0 69.9 77" style="enable-background:new 0 0 69.9 77;" xml:space="preserve">
<style type="text/css">
	.st0{fill:#F4B82C;}
	.st1{fill:#7999B9;}
	.st2{enable-background:new    ;}
	.st3{opacity:0.46;fill:#95B2C4;enable-background:new    ;}
	.st4{fill:#81C0D8;}
	.st5{fill:#FFFFFF;}
	.st6{fill:none;stroke:#7999B9;}
	.st7{display:none;}
	.st8{display:inline;fill:#7FB6EE;}
	.st9{display:inline;}
	.st10{fill:#7FB6EE;}
	.st11{fill:#1F94D8;}
	.st12{display:inline;fill:#1F94D8;}
</style>
<g id="Group_131" transform="translate(320.416 755.212)">
	<g id="Group_130" transform="translate(0)">
		<path id="Path_230" class="st11" d="M-285.5-709.5c-12.6,0-22.9-10.2-22.9-22.9s10.2-22.9,22.9-22.9c12.6,0,22.9,10.2,22.9,22.9
			C-262.6-719.7-272.9-709.5-285.5-709.5z M-285.5-753c-11.4,0-20.7,9.2-20.7,20.6s9.2,20.6,20.7,20.6c11.4,0,20.7-9.2,20.7-20.6
			l0,0C-264.9-743.7-274.1-753-285.5-753L-285.5-753z"/>
		<path id="Path_231" class="st11" d="M-251.6-685.6h-67.8c-0.3,0-0.7-0.2-0.9-0.4c-0.2-0.3-0.3-0.6-0.2-1
			c1.9-7.2,6.4-13.4,12.5-17.7c6.6-4.6,14.5-7,22.5-7c8,0,15.9,2.4,22.5,7c6.1,4.2,10.5,10.5,12.5,17.7c0.1,0.3,0,0.7-0.2,1
			C-250.9-685.8-251.3-685.6-251.6-685.6z M-317.9-687.9h64.8c-4-12.6-17.3-21.6-32.4-21.6C-300.6-709.5-314-700.5-317.9-687.9z"/>
	</g>
</g>
<g id="Group_133" transform="translate(1041 758.483)" class="st7">
	<path id="Path_232" class="st12" d="M-973.4-729.5h-65.2c-0.7,0-1.2-0.5-1.2-1.2v-10.7c0-0.5,0.3-0.9,0.7-1.1l33.2-15.9
		c0.3-0.2,0.7-0.2,1,0l32,15.9c0.4,0.2,0.7,0.6,0.6,1.1v10.7C-972.2-730.1-972.7-729.5-973.4-729.5
		C-973.4-729.5-973.4-729.5-973.4-729.5z M-1037.5-731.9h62.9v-8.8l-30.9-15.3l-32,15.3L-1037.5-731.9z"/>
	<g id="Group_132" transform="translate(4.591 26.833)" class="st9">
		<path id="Path_233" class="st11" d="M-1031.8-719.4h-8c-0.6,0-1.2-0.5-1.2-1.2v-36.8c0-0.6,0.5-1.2,1.2-1.2h8
			c0.6,0,1.2,0.5,1.2,1.2v36.8C-1030.6-719.9-1031.1-719.4-1031.8-719.4C-1031.8-719.4-1031.8-719.4-1031.8-719.4z M-1038.6-721.7
			h5.6v-34.4h-5.6L-1038.6-721.7z"/>
		<path id="Path_234" class="st11" d="M-981.4-719.4h-8c-0.6,0-1.2-0.5-1.2-1.2v-36.8c0-0.6,0.5-1.2,1.2-1.2h8
			c0.6,0,1.2,0.5,1.2,1.2v36.8C-980.2-719.9-980.8-719.4-981.4-719.4z M-988.3-721.7h5.6v-34.4h-5.6V-721.7z"/>
		<path id="Path_235" class="st11" d="M-1006.6-719.4h-8c-0.6,0-1.2-0.5-1.2-1.2v-36.8c0-0.6,0.5-1.2,1.2-1.2h8
			c0.6,0,1.2,0.5,1.2,1.2v36.8C-1005.4-719.9-1006-719.4-1006.6-719.4C-1006.6-719.4-1006.6-719.4-1006.6-719.4z M-1013.4-721.7h5.6
			v-34.4h-5.6V-721.7z"/>
	</g>
	<path id="Path_236" class="st12" d="M-972.2-681.4h-67.6c-0.7,0-1.2-0.5-1.2-1.2v-11.1c0-0.7,0.5-1.2,1.2-1.2h67.6
		c0.7,0,1.2,0.5,1.2,1.2v11.1C-971-682-971.6-681.5-972.2-681.4C-972.2-681.4-972.2-681.4-972.2-681.4z M-1038.6-683.8h65.2v-8.8
		h-65.2V-683.8z"/>
	<path id="Path_237" class="st12" d="M-987.6-733.5h-36.9c-0.7,0-1.2-0.5-1.2-1.2v-9.7c0-0.7,0.5-1.2,1.2-1.2h36.9
		c0.7,0,1.2,0.5,1.2,1.2v9.7C-986.4-734-986.9-733.5-987.6-733.5C-987.6-733.5-987.6-733.5-987.6-733.5z M-1023.3-735.9h34.6v-7.4
		h-34.6V-735.9z"/>
</g>
</svg>
