<?xml version="1.0" encoding="utf-8"?>
<!-- Generator: Adobe Illustrator 21.0.0, SVG Export Plug-In . SVG Version: 6.00 Build 0)  -->
<svg version="1.1" id="圖層_1" xmlns="http://www.w3.org/2000/svg" xmlns:xlink="http://www.w3.org/1999/xlink" x="0px" y="0px"
	 width="318px" height="67px" viewBox="0 0 318 67" style="enable-background:new 0 0 318 67;" xml:space="preserve">
<style type="text/css">
	.st0{fill:#F4B82C;}
	.st1{enable-background:new    ;}
</style>
<g id="Group_9-2" transform="translate(-722.986 25)">
	<g id="Group_6-2" transform="translate(0)">
		<path id="Path_14-2" d="M724,27c1.9-0.5,3.8-1,5.7-1.5c3.7-1,7.4-2.2,10.9-3.7c1.5-0.6,2.8-1.5,3.9-2.7c0.8-0.8,1.3-1.9,1.5-3.1
			c0.1-0.6-0.1-1.2-0.5-1.7c-0.7-0.7-1.4-1.3-2.1-1.9c-0.7-0.6-1.4-1-2.1-1.6c-1.3-1.2-1.9-3-1.6-4.8c0.4-3.7,2.7-6.9,6-8.5
			c2.6-1.3,5.4-2.2,8.3-2.7c3.4-0.6,6.7-1.1,10.1-1.8c2.1-0.4,4.2-1,6.4-1.5c2.6-0.6,5.3-0.9,8-0.8c3.8,0.2,7.3,1.6,10.2,4.1
			c1.8,1.6,3,3.8,3.2,6.2c0.3,2.8-0.2,5.6-1.5,8.2c-0.9,1.7-2.3,3.1-3.9,4.1c-1.8,1.1-3.8,1.9-5.9,2.5c-2.8,0.9-5.7,1.5-8.6,2
			c-0.3,0-0.3,0.2-0.3,0.4c0,7.7,0,15.4,0,23.2c0,0.6,0,0.5-0.5,0.5c-1.6,0-3.1,0-4.7,0h-0.4c0-0.2,0-0.3,0-0.4c0-3.4,0-6.8,0-10.2
			c0-3.9,0-7.8,0-11.8c0-3.9,0-7.8,0-11.8c0-1.6-0.1-3.1,0-4.7c0-1.6-1.2-3-2.8-3.2c-1.6-0.2-3.3,0-4.8,0.4
			c-2.7,0.7-5.3,1.9-7.7,3.4c-0.4,0.3-0.8,0.7-1.2,1.1c-1.1,1.2-1.1,3,0,4.1c0.8,0.8,1.6,1.6,2.5,2.4c0.7,0.7,1.6,1.3,2.2,2
			c1.9,1.8,2.2,4.7,0.7,6.9c-1,1.6-2.3,3-3.8,4.1c-2.7,2.1-5.6,3.7-8.8,4.8c-2.8,1-5.6,1.9-8.5,2.8c-1.7,0.6-3.4,1.1-5.1,1.6
			c-0.4,0.1-0.9,0.2-1.3,0.3c-0.2,0-0.3-0.1-0.4-0.2c-1-2.2-2-4.4-3-6.5C724,27.1,724,27.1,724,27z M779.4,0.9
			c-0.6-0.4-1.2-0.9-1.9-1.2c-1.6-0.7-3.5-0.8-5.2-0.3c-0.3,0.1-0.3,0.2-0.3,0.5c0,3.2,0,6.4,0,9.7c0,0.1,0,0.2,0,0.3
			c0.8-0.3,1.6-0.6,2.4-0.8c1.3-0.4,2.8-0.3,4,0.4c0.5,0.4,1.2,0.4,1.8,0.1c2-0.8,4.2-0.7,6,0.3l0.4,0.2c0-0.1,0-0.1,0-0.2
			c0-3.3,0-6.7,0-10c0-0.1-0.1-0.3-0.3-0.3c-1.3-0.4-2.7-0.5-4-0.2C781.3-0.4,780.3,0.2,779.4,0.9z"/>
		<ellipse id="Ellipse_3-2" class="st0" cx="748.5" cy="-14.9" rx="6.3" ry="6.3"/>
		<ellipse id="Ellipse_4-2" class="st0" cx="775.5" cy="-18.7" rx="6.3" ry="6.3"/>
	</g>
	<g class="st1">
		<path d="M840.6,18.7h-12.7v2c0,0.7-0.2,1.3-0.5,1.8c-0.3,0.4-0.8,0.7-1.3,0.9c-0.5,0.2-1.5,0.2-2.9,0.2c-0.7,0-1.4,0-2.3-0.1
			l-1-2.7c0.8,0,2.2,0,4.4,0c0.4,0,0.6-0.2,0.6-0.5v-1.7h-13.1v-2.3h13.1v-1.4c1.6-0.3,3.2-0.8,4.6-1.3h-12.2v-2.1h17.6v2.1
			c-1.8,0.8-4.1,1.7-6.9,2.5v0.2h12.7V18.7z M840.1,13.8h-2.8v-3.8h-22.1v3.7h-2.9v-6h2l-0.6-11.8c2.1-0.1,4.3-0.5,6.4-1.3l1.4,2.3
			c-1.5,0.5-3.2,0.8-4.9,1l0.1,1.8h4.3v2.1h-4.2l0.1,1.9h4.1v2.1h-4l0.1,1.9h18.2l0.1-1.9h-4.4V3.8h4.6l0.1-1.9h-4.7v-2.1h4.7
			l0.1-1.8h-5v-2.3h7.9l-0.5,12.1h2V13.8z M830.1-4.3c-0.5,0.7-1.2,1.4-2.1,2c0.5,0.5,1,1,1.5,1.4l-1.8,1.5
			c-0.5-0.7-1.1-1.2-1.6-1.6c-1.1,0.7-2.3,1.2-3.3,1.7l-1.4-1.9c1-0.3,1.9-0.8,2.8-1.3c-0.3-0.3-0.9-0.7-1.8-1.4l1.6-1.6l2.2,1.6
			c0.7-0.5,1.3-1,1.7-1.5L830.1-4.3z M830.2,6l-1.8,1.5c-0.8-0.9-1.6-1.6-2.2-2.1c-1.1,0.7-2.3,1.3-3.4,1.9l-1.4-1.8
			c0.8-0.3,1.7-0.8,2.8-1.5c-0.6-0.5-1.3-1-2.2-1.5l1.6-1.6c0.6,0.3,1.4,0.9,2.6,1.8c0.9-0.8,1.5-1.3,1.9-1.8l2,1.2
			c-0.6,0.7-1.3,1.3-2,1.9C828.9,4.6,829.6,5.3,830.2,6z"/>
		<path d="M860.5-4.7c-0.3,1.1-0.8,2.4-1.5,3.9l-1.1,2.3v22h-3V6.9c-0.8,1.3-1.6,2.2-2.2,2.9l-1.4-3.1c2.4-3.2,4.5-7.2,6.3-12.1
			L860.5-4.7z M880.3,15.7h-9v8h-3v-8h-9.2v-2.8h9.2V8.8h-8V5.9h8V-5.2h3V5.9h7.9v2.9h-7.9v4.1h9V15.7z M866.4,3.7l-2.8,1
			c-0.8-2.7-1.8-5.2-3-7.5l2.8-1.1C864.5-1.7,865.5,0.8,866.4,3.7z M879.2-2.7c-0.9,2.5-2,5.1-3.4,7.6l-2.6-1.4
			c1.1-1.8,2.2-4.2,3.3-7.1L879.2-2.7z"/>
		<path d="M902.4,0.6h-11v-2.6h3.8c-0.2-0.8-0.6-1.6-1.1-2.5l2.9-0.7c0.4,0.9,0.9,2,1.3,3.2h4V0.6z M901.2,5.5H892V2.9h9.2V5.5z
			 M901.2,10.4H892V7.7h9.2V10.4z M901.2,23.2h-2.8v-1.4H895v1.9h-2.8V12.6h8.9V23.2z M898.4,19.1v-3.8H895v3.8H898.4z M920.1,10.3
			h-17.5V7.6h3.6l0.9-3.9h-3.4V1.1h4l0.7-3H903v-2.6h16.8v2.6h-8.4l-0.7,3h7.4v6.5h2V10.3z M918.5,23.7h-2.9v-1.5h-8.5v1.5h-2.9
			V12.3h14.3V23.7z M915.6,19.5V15h-8.5v4.5H915.6z M915.2,7.6V3.7h-5l-0.9,3.9H915.2z"/>
		<path d="M959.9,0.6h-28.7V-2h12.7c-0.3-0.7-0.8-1.5-1.4-2.3l3-1.2c0.6,1,1.2,2.1,1.9,3.4h12.5V0.6z M957.5,5.7h-24.1V3.1h24.1V5.7
			z M957.5,10.8h-24.1V8.2h24.1V10.8z M957.1,23.7l-3,0v-1.3h-17.2v1.2h-3v-10h23.2V23.7z M954.1,19.9V16h-17.2v3.9H954.1z"/>
		<path d="M998,14.1h-11.3v9.5h-3v-9.5h-11.3V0.2h11.3v-5.3h3v5.3H998V14.1z M983.6,11.2V3.1h-8.2v8.1H983.6z M994.9,11.2V3.1h-8.3
			v8.1H994.9z"/>
		<path d="M1016.9,5.4c-1,6.3-2.4,11.3-4,14.9l-2.7-1.6c1.9-4.2,3.1-8.9,3.8-13.9L1016.9,5.4z M1032.9,13.9
			c-0.1,2.1-0.2,3.8-0.3,5.1c-0.2,1.3-0.4,2.1-0.6,2.5c-0.3,0.4-0.7,0.8-1.2,1.1c-0.5,0.4-1.3,0.6-2.2,0.7c-0.9,0.1-2,0.1-3,0.1
			c-1.2,0-2.3,0-3.4-0.1c-1.1-0.1-1.8-0.3-2.1-0.5c-0.3-0.2-0.6-0.6-0.8-1c-0.2-0.4-0.3-0.9-0.3-1.6V1.9h2.9v17.5
			c0,0.8,0.5,1.2,1.4,1.1c1,0,2.6,0,4.8,0c0.4,0,0.7-0.1,1.1-0.3c0.3-0.2,0.6-1.2,0.7-2.9c0.1-1.7,0.2-3.1,0.2-4.2L1032.9,13.9z
			 M1030.3,3.8l-2.5,1.8c-1.7-3.2-4-6.2-6.8-9.1l2.1-1.8C1025.7-2.8,1028.1,0.2,1030.3,3.8z M1039.5,17.9l-2.9,1.4
			c-1.1-4.4-2.7-8.7-5-12.9l2.6-1.4C1036.7,9.9,1038.5,14.2,1039.5,17.9z"/>
	</g>
</g>
</svg>
