<?xml version="1.0" encoding="utf-8"?>
<!-- Generator: Adobe Illustrator 21.0.0, SVG Export Plug-In . SVG Version: 6.00 Build 0)  -->
<svg version="1.1" id="圖層_1" xmlns="http://www.w3.org/2000/svg" xmlns:xlink="http://www.w3.org/1999/xlink" x="0px" y="0px"
	 width="286.7px" height="92.7px" viewBox="0 0 286.7 92.7" style="enable-background:new 0 0 286.7 92.7;" xml:space="preserve">
<style type="text/css">
	.st0{fill:#F4B82C;}
	.st1{fill:#7999B9;}
	.st2{enable-background:new    ;}
	.st3{opacity:0.46;fill:#95B2C4;enable-background:new    ;}
</style>
<g id="Group_10" transform="translate(888.07 2)">
	<g id="Group_9" transform="translate(-727 25)">
		<g id="Group_6" transform="translate(4.014)">
			<path id="Path_14" d="M-165.1,18.9c1.7-0.4,3.4-0.8,5-1.3c3.3-0.9,6.5-2,9.6-3.3c1.3-0.5,2.5-1.3,3.5-2.4
				c0.7-0.7,1.2-1.7,1.3-2.7c0.1-0.5-0.1-1.1-0.4-1.5c-0.6-0.6-1.2-1.1-1.9-1.7c-0.6-0.5-1.3-0.9-1.8-1.4c-1.2-1.1-1.7-2.7-1.4-4.2
				c0.4-3.2,2.4-6.1,5.3-7.5c2.3-1.1,4.8-1.9,7.3-2.3c3-0.5,5.9-1,8.9-1.5c1.9-0.4,3.7-0.9,5.6-1.3c2.3-0.6,4.7-0.8,7-0.7
				c3.3,0.2,6.5,1.4,9,3.6c1.6,1.4,2.6,3.3,2.8,5.5c0.3,2.5-0.2,5-1.3,7.2c-0.8,1.5-2,2.7-3.5,3.6c-1.6,0.9-3.4,1.7-5.2,2.2
				c-2.5,0.8-5,1.4-7.5,1.7c-0.3,0-0.3,0.2-0.3,0.4c0,6.8,0,13.6,0,20.4c0,0.5,0,0.5-0.5,0.5c-1.4,0-2.8,0-4.1,0h-0.4
				c0-0.2,0-0.3,0-0.4c0-3,0-6,0-9c0-3.5,0-6.9,0-10.4c0-3.5,0-6.9,0-10.4c0-1.4-0.1-2.8,0-4.1c0-1.5-1.1-2.7-2.5-2.9
				c-1.4-0.2-2.9,0-4.3,0.4c-2.4,0.6-4.7,1.6-6.8,3c-0.4,0.3-0.7,0.6-1,1c-0.9,1-0.9,2.6,0,3.6c0.7,0.7,1.4,1.4,2.2,2.1
				c0.7,0.6,1.4,1.1,2,1.8c1.7,1.6,1.9,4.2,0.6,6.1c-0.9,1.4-2,2.6-3.3,3.6c-2.3,1.8-5,3.3-7.8,4.3c-2.5,0.9-5,1.7-7.5,2.5
				c-1.5,0.5-3,1-4.5,1.4c-0.4,0.1-0.8,0.2-1.1,0.2c-0.1,0-0.3-0.1-0.4-0.2c-0.9-1.9-1.8-3.8-2.6-5.8
				C-165.1,19-165.1,18.9-165.1,18.9z M-116.3-4.1c-0.5-0.4-1.1-0.7-1.6-1.1c-1.4-0.6-3.1-0.7-4.6-0.2c-0.3,0.1-0.3,0.2-0.3,0.4
				c0,2.8,0,5.7,0,8.5c0,0.1,0,0.2,0,0.3c0.7-0.3,1.4-0.5,2.1-0.7c1.2-0.4,2.4-0.2,3.5,0.4c0.5,0.3,1.1,0.4,1.6,0.1
				c1.7-0.7,3.7-0.6,5.3,0.3l0.3,0.1c0-0.1,0-0.1,0-0.2c0-2.9,0-5.9,0-8.8c0-0.1-0.1-0.2-0.2-0.3c-1.1-0.4-2.4-0.4-3.5-0.2
				C-114.6-5.3-115.5-4.8-116.3-4.1L-116.3-4.1z"/>
			<circle id="Ellipse_3" class="st0" cx="-143.4" cy="-18.1" r="5.6"/>
			<circle id="Ellipse_4" class="st0" cx="-119.7" cy="-21.4" r="5.6"/>
		</g>
		<g id="Group_8" transform="translate(6 72.994)">
			<g id="Group_7">
				<path id="Path_15" class="st1" d="M-134.2-21.4V-27h1.8v16.2c-0.5,0-1.1,0-1.6,0c0,0-0.1-0.2-0.1-0.3c0-0.4,0-0.8,0-1.3
					c-0.2,0.3-0.3,0.4-0.4,0.6c-0.5,0.8-1.3,1.2-2.2,1.2c-0.8,0-1.5-0.4-1.9-1.1c-0.6-0.9-0.9-1.8-1-2.9c-0.3-1.8-0.2-3.7,0.3-5.5
					c0.2-0.7,0.6-1.4,1.1-2c1-1,2.6-1,3.6-0.1c0.1,0.1,0.2,0.2,0.3,0.4C-134.4-21.7-134.3-21.6-134.2-21.4z M-138.1-16.5
					c0,0.4,0.1,1.1,0.1,1.8c0,0.7,0.3,1.4,0.7,2c0.4,0.6,1.2,0.8,1.9,0.4c0.2-0.1,0.3-0.2,0.4-0.4c0.3-0.3,0.4-0.7,0.6-1.1
					c0.5-1.9,0.5-3.9,0.1-5.9c-0.1-0.6-0.3-1.1-0.7-1.5c-0.5-0.5-1.3-0.6-1.8-0.1c0,0-0.1,0.1-0.1,0.1c-0.3,0.3-0.4,0.6-0.6,1
					C-138-19-138.1-17.7-138.1-16.5L-138.1-16.5z"/>
				<path id="Path_16" class="st1" d="M-115.2-25.8h3.4c1.9-0.2,3.5,1.2,3.7,3.1c0.1,0.8,0.1,1.7-0.1,2.6c-0.4,1.7-2,3-3.7,3
					c-0.4,0-0.9,0-1.3,0v6.4h-2L-115.2-25.8z M-113.2-18.5c0.4,0,0.7,0,1.1,0c0.8,0,1.5-0.4,1.8-1.1c0.5-1.1,0.6-2.4,0.2-3.6
					c-0.1-0.3-0.3-0.7-0.6-0.9c-0.7-0.8-1.6-0.6-2.5-0.6L-113.2-18.5z"/>
				<path id="Path_17" class="st1" d="M-81.8-10.8h-1.8v-11.7h1.7v1.4l0.1,0c0.1-0.1,0.2-0.3,0.3-0.4c0.6-1,1.9-1.5,3.1-1.2
					c1.1,0.3,1.9,1.2,2,2.4c0,0.3,0.1,0.6,0.1,0.9c0,2.6,0,5.1,0,7.7v0.9h-1.7v-0.8c0-2.5,0-4.9,0-7.4c0-0.4-0.1-0.8-0.2-1.2
					c-0.2-0.6-0.8-1-1.4-1c-0.6-0.1-1.2,0.3-1.6,0.8c-0.4,0.6-0.5,1.3-0.5,2c0,2.5,0,4.9,0,7.4C-81.8-10.9-81.8-10.9-81.8-10.8z"/>
				<path id="Path_18" class="st1" d="M-142.6-10.8c-0.5,0-1,0-1.6,0c-0.1,0-0.2-0.2-0.2-0.3c0-0.4,0-0.8,0-1.2
					c-0.2,0.3-0.4,0.6-0.7,0.9c-1,1.1-2.7,1.1-3.8,0.1c-0.2-0.2-0.4-0.5-0.6-0.8c-0.3-0.6-0.4-1.3-0.4-1.9c0-2.5,0-5,0-7.5
					c0-0.3,0-0.6,0-0.9h1.7v1.4c0,2.2,0,4.4,0,6.6c0,0.3,0,0.7,0.1,1c0.2,0.9,1.1,1.4,2,1.2c0.3-0.1,0.6-0.2,0.8-0.5
					c0.5-0.5,0.7-1.1,0.7-1.8c0-2.5,0-5,0-7.5c0-0.2,0-0.4,0-0.6h1.8L-142.6-10.8z"/>
				<path id="Path_19" class="st1" d="M-98.6-12.5c0,0.4,0,0.8,0,1.2c0,0.1-0.1,0.2-0.1,0.2c-0.4,0.4-0.9,0.5-1.5,0.4
					c-0.4,0-0.8-0.3-0.9-0.8c-0.1-0.3-0.2-0.6-0.3-0.9l-0.4,0.5c-0.5,0.7-1.3,1.2-2.2,1.2c-0.8,0.1-1.5-0.3-1.9-1
					c-0.9-1.4-0.9-3.2-0.1-4.6c0.4-0.7,1.1-1.2,1.8-1.5c0.5-0.2,1.1-0.4,1.7-0.7c0.9-0.4,1.3-1.3,0.9-2.2c-0.1-0.1-0.1-0.2-0.2-0.3
					c-0.6-0.7-1.6-0.9-2.4-0.4c-0.3,0.2-0.7,0.5-1,0.7c-0.1,0.1-0.1,0.1-0.3,0.2c-0.1-0.5-0.2-0.9-0.2-1.4c0-0.1,0-0.2,0.1-0.2
					c1.1-0.8,2.5-1.1,3.9-0.8c1.2,0.3,2,1.4,1.9,2.6c0,2.3,0,4.6,0,6.9c0,0.2,0,0.4,0,0.6c0.1,0.4,0.4,0.5,0.7,0.3L-98.6-12.5z
					 M-101.5-17.7c-0.6,0.3-1.1,0.6-1.6,0.8c-1.3,0.5-2,1.9-1.6,3.3c0,0.7,0.5,1.2,1.1,1.4c0.7,0.1,1.4-0.2,1.7-0.8
					c0.2-0.4,0.4-0.8,0.4-1.2C-101.4-15.4-101.5-16.6-101.5-17.7z"/>
				<path id="Path_20" class="st1" d="M-159-23.7c-0.4-0.3-0.9-0.6-1.4-0.9c-0.4-0.2-0.9-0.3-1.3-0.2c-0.8,0.1-1.4,0.9-1.5,1.7
					c-0.2,1,0.2,2.1,1.1,2.6c0.7,0.5,1.4,0.9,2.1,1.4c1.8,1.4,2.4,3.8,1.6,5.9c-0.2,0.8-0.7,1.5-1.4,2c-1.2,0.8-2.7,1-4,0.3
					c-0.4-0.2-0.8-0.4-1.1-0.7c-0.1-0.1-0.1-0.2-0.1-0.3c0.1-0.5,0.2-1,0.3-1.6c0.3,0.3,0.5,0.5,0.7,0.7c0.4,0.4,1,0.7,1.6,0.8
					c1.1,0.2,2.2-0.5,2.4-1.6c0,0,0,0,0-0.1c0.4-1.2-0.1-2.6-1.2-3.3c-0.7-0.5-1.5-1-2.2-1.5c-1.7-1.4-2.2-3.8-1.1-5.7
					c0.7-1.5,2.5-2.3,4.1-1.8c0.5,0.2,1,0.3,1.5,0.6c0.2,0.1,0.2,0.2,0.2,0.4C-158.8-24.6-158.9-24.1-159-23.7z"/>
				<path id="Path_21" class="st1" d="M-65.8-17.1h-6c0,0.4,0,0.7,0,1.1c0,0.9,0.2,1.8,0.6,2.7c0.5,1.3,1.9,1.9,3.2,1.4
					c0.2-0.1,0.3-0.2,0.5-0.3c0.4-0.2,0.7-0.5,1.1-0.8c0.1,0.5,0.2,0.9,0.2,1.4c0,0.1-0.1,0.1-0.1,0.2c-1.2,0.8-2.6,1.1-4,0.8
					c-1.2-0.3-2.3-1.2-2.7-2.4c-0.6-1.5-0.8-3-0.6-4.6c0-1.3,0.4-2.5,1.1-3.6c1-1.5,2.9-2,4.5-1.1c0.5,0.3,1,0.8,1.3,1.3
					C-66-19.9-65.7-18.5-65.8-17.1z M-67.6-18.2c0-0.3,0-0.5-0.1-0.8c0-0.8-0.3-1.6-0.9-2.2c-0.5-0.6-1.4-0.7-2-0.2
					c-0.1,0.1-0.1,0.1-0.2,0.2c-0.7,0.9-1,2-1,3.1H-67.6z"/>
				<path id="Path_22" class="st1" d="M-126.4-14.2l2.6-8.3h1l-4.7,15.3h-1c0.4-1.1,0.7-2.1,1-3.2c0.1-0.2,0.1-0.4,0-0.6
					c-1-3.6-1.9-7.2-2.9-10.8c-0.1-0.2-0.1-0.4-0.2-0.7h2L-126.4-14.2L-126.4-14.2z"/>
				<path id="Path_23" class="st1" d="M-152.4-12.3c0,0.4,0,0.7,0,1c0,0.1-0.1,0.2-0.2,0.3c-0.5,0.3-1.1,0.4-1.6,0.3
					c-0.5,0-1-0.4-1.1-1c-0.1-0.4-0.2-0.8-0.2-1.3c0-2.7,0-5.4,0-8.1c0-0.1,0-0.3,0-0.5h-1.3v-1.1h1.3c0-0.7,0-1.3,0-1.9
					c0-0.3,0.1-0.4,0.3-0.4c0.5,0,0.9-0.1,1.4-0.2v2.5c0.4,0,0.7,0,1.1,0c0.2,0,0.3,0.1,0.3,0.3c0,0.8,0,0.8-0.8,0.8h-0.6
					c0,0.1,0,0.3,0,0.4c0,2.7,0,5.3,0,8c0,0.2,0,0.3,0,0.5c0,0.3,0.3,0.6,0.6,0.6c0.1,0,0.3,0,0.4-0.1
					C-152.7-12.1-152.6-12.2-152.4-12.3z"/>
				<path id="Path_24" class="st1" d="M-89.3-21.5h-1.3v-1.1h1.3v-2.2l1.8-0.3c0,0.7,0,1.3,0,1.9s-0.1,0.6,0.6,0.6
					c0.2,0,0.5,0,0.7,0c0,0,0.1,0,0.1,0v1.1h-1.4c0,0.1,0,0.2,0,0.3c0,2.7,0,5.4,0,8.1c0,0.2,0,0.3,0,0.5c0,0.3,0.3,0.6,0.6,0.6
					c0.1,0,0.2,0,0.3-0.1c0.1-0.1,0.3-0.1,0.5-0.2c0,0.4,0,0.8,0,1.1c0,0.1-0.1,0.2-0.2,0.2c-0.5,0.3-1,0.4-1.6,0.3
					c-0.7-0.1-1.2-0.6-1.3-1.3c-0.1-0.3-0.1-0.6-0.1-0.9c0-2.7,0-5.4,0-8.2C-89.3-21.2-89.3-21.3-89.3-21.5z"/>
				<path id="Path_25" class="st1" d="M-61.4-10.8h-1.8v-11.7h1.7v1.2l0.1,0.1c0.3-0.9,1.1-1.6,2.1-1.5v1.8c-0.1,0-0.2,0-0.3,0
					c-0.7-0.1-1.3,0.3-1.5,1c-0.2,0.5-0.3,1.1-0.3,1.7c0,2.3,0,4.5,0,6.8C-61.4-11.3-61.4-11.1-61.4-10.8z"/>
				<path id="Path_26" class="st1" d="M-94.7-22.5v1.1l0.1,0.1c0.3-0.9,1.2-1.6,2.1-1.5c0,0.6,0,1.1,0,1.6c0,0.1-0.1,0.2-0.2,0.2
					c-1,0-1.9,0.8-1.9,1.8c0,0.1,0,0.1,0,0.2c0,0.3-0.1,0.7-0.1,1c0,2.1,0,4.2,0,6.3c0,0.3,0,0.5,0.1,0.8h-1.8v-11.7H-94.7z"/>
			</g>
		</g>
		<g class="st2">
			<path d="M-57.5,9.5H-69v1.9c0,0.7-0.2,1.2-0.5,1.6s-0.7,0.7-1.2,0.8S-72,14-73.3,14c-0.6,0-1.3,0-2.1-0.1l-0.9-2.4c0.7,0,2,0,4,0
				c0.4,0,0.5-0.2,0.5-0.5V9.5h-11.9V7.4h11.9V6.1c1.5-0.3,2.9-0.7,4.1-1.2h-11.1V3h16v1.9c-1.6,0.8-3.7,1.5-6.2,2.3v0.2h11.5V9.5z
				 M-57.9,5.1h-2.5V1.7h-20.1v3.4h-2.7v-5.5h1.9l-0.5-10.8c1.9-0.1,3.9-0.5,5.8-1.1l1.2,2.1c-1.4,0.4-2.9,0.7-4.4,0.9l0.1,1.6h3.9
				v1.9h-3.8l0.1,1.7h3.8v1.9h-3.6l0.1,1.7h16.5l0.1-1.7h-4v-1.9h4.1l0.1-1.7h-4.2v-1.9h4.3l0.1-1.6h-4.6v-2.1h7.2l-0.5,11h1.8V5.1z
				 M-67.1-11.5c-0.5,0.6-1.1,1.2-1.9,1.9c0.5,0.4,0.9,0.9,1.3,1.3l-1.6,1.4c-0.5-0.6-1-1.1-1.5-1.5c-1,0.6-2,1.1-3,1.5L-75-8.5
				c0.9-0.3,1.7-0.7,2.5-1.2c-0.3-0.3-0.8-0.7-1.7-1.2l1.5-1.5l2,1.4c0.7-0.5,1.2-0.9,1.6-1.4L-67.1-11.5z M-66.9-2l-1.6,1.4
				c-0.8-0.8-1.4-1.5-2-1.9c-1,0.7-2.1,1.2-3.1,1.7l-1.2-1.7c0.7-0.3,1.6-0.8,2.6-1.4c-0.5-0.4-1.2-0.9-2-1.3l1.5-1.5
				c0.5,0.3,1.3,0.8,2.3,1.6c0.8-0.7,1.4-1.2,1.7-1.6l1.8,1.1c-0.6,0.6-1.2,1.2-1.9,1.8C-68.1-3.3-67.5-2.7-66.9-2z"/>
			<path d="M-39.3-11.7c-0.3,1-0.8,2.2-1.4,3.6l-1,2.1v20h-2.7V-1.2c-0.8,1.2-1.5,2-2,2.6l-1.2-2.8c2.2-2.9,4.1-6.6,5.7-11
				L-39.3-11.7z M-21.4,6.7h-8.2V14h-2.7V6.7h-8.3V4.2h8.3V0.5h-7.3v-2.6h7.3v-10.1h2.7v10.1h7.2v2.6h-7.2v3.7h8.2V6.7z M-34-4.2
				l-2.5,0.9c-0.7-2.5-1.6-4.8-2.7-6.8l2.5-1C-35.7-9.1-34.8-6.8-34-4.2z M-22.4-10c-0.8,2.3-1.8,4.6-3.1,6.9l-2.4-1.3
				c1-1.7,2-3.8,3-6.5L-22.4-10z"/>
			<path d="M-1.2-7h-10v-2.4h3.5c-0.2-0.7-0.5-1.5-1-2.3l2.7-0.7c0.4,0.8,0.8,1.8,1.2,2.9h3.7V-7z M-2.4-2.5h-8.4v-2.4h8.4V-2.5z
				 M-2.4,1.9h-8.4v-2.4h8.4V1.9z M-2.4,13.6h-2.5v-1.3H-8v1.7h-2.5V3.9h8.1V13.6z M-4.9,9.9V6.4H-8v3.5H-4.9z M14.8,1.8H-1.1v-2.4
				h3.3L3-4.2h-3.1v-2.4h3.7l0.6-2.7h-4.9v-2.4h15.2v2.4H6.9L6.3-6.5H13v5.9h1.8V1.8z M13.3,14.1h-2.6v-1.3H3v1.3H0.4V3.7h13V14.1z
				 M10.7,10.2V6.1H3v4.1H10.7z M10.3-0.6v-3.6H5.8L5-0.6H10.3z"/>
			<path d="M51-7H24.8v-2.4h11.6c-0.3-0.6-0.7-1.3-1.3-2.1l2.8-1.1c0.6,0.9,1.1,1.9,1.7,3.1H51V-7z M48.8-2.4H26.9v-2.3h21.9V-2.4z
				 M48.8,2.3H26.9V0h21.9V2.3z M48.4,14l-2.8,0v-1.2H30.1V14h-2.7V4.8h21.1V14z M45.7,10.6V7.1H30.1v3.5H45.7z"/>
			<path d="M85.6,5.3H75.3V14h-2.8V5.3H62.3V-7.3h10.3v-4.8h2.8v4.8h10.3V5.3z M72.6,2.7v-7.4h-7.5v7.4H72.6z M82.8,2.7v-7.4h-7.5
				v7.4H82.8z"/>
			<path d="M102.8-2.6c-0.9,5.8-2.1,10.3-3.7,13.6l-2.4-1.5c1.7-3.9,2.8-8.1,3.4-12.7L102.8-2.6z M117.4,5.1
				c-0.1,1.9-0.2,3.5-0.3,4.6c-0.2,1.2-0.3,1.9-0.6,2.3c-0.2,0.4-0.6,0.7-1.1,1s-1.1,0.5-2,0.6c-0.9,0.1-1.8,0.1-2.8,0.1
				c-1.1,0-2.1,0-3.1-0.1c-1-0.1-1.6-0.2-1.9-0.5s-0.6-0.5-0.8-0.9s-0.3-0.9-0.3-1.4V-5.7h2.7v15.9c0,0.7,0.4,1.1,1.3,1s2.3,0,4.4,0
				c0.3,0,0.6-0.1,1-0.3c0.3-0.2,0.5-1.1,0.6-2.6c0.1-1.5,0.2-2.8,0.2-3.8L117.4,5.1z M115-4.1l-2.3,1.7c-1.6-2.9-3.6-5.6-6.2-8.2
				l1.9-1.7C110.8-10,113-7.3,115-4.1z M123.3,8.8l-2.6,1.2c-1-4-2.5-7.9-4.6-11.7l2.3-1.3C120.8,1.5,122.4,5.4,123.3,8.8z"/>
		</g>
		<g class="st2">
			<path class="st1" d="M-38.2,51.5c0.9,1.3,1.4,2.5,1.4,3.7c0,0.7-0.1,1.2-0.3,1.5c-0.2,0.4-0.5,0.6-0.8,0.7s-0.8,0.2-1.6,0.2
				l-0.4-1.5c0.2,0,0.4,0,0.6,0c0.4,0,0.7-0.1,0.8-0.2c0.1-0.1,0.2-0.4,0.2-0.7c0-0.5-0.1-1.1-0.4-1.8c-0.3-0.7-0.6-1.3-1-1.7
				c0.5-1.2,0.9-2.4,1.4-3.6h-1.8v13h-1.5V46.6h4.7v1.5C-37.3,49.4-37.8,50.5-38.2,51.5z M-27.1,53.5h-9.6v-1.4h2.2
				c-0.3-0.9-0.6-1.7-1-2.3l0.9-0.7h-1.8v-1.4h3.4c-0.2-0.4-0.4-0.8-0.7-1.2L-32,46c0.3,0.6,0.6,1.1,0.8,1.7h3.7v1.4h-2.1l1,0.7
				c-0.3,0.8-0.6,1.6-1,2.3h2.4V53.5z M-28.1,61.1h-1.5v-0.8h-4.6v0.8h-1.6v-6.3h7.7V61.1z M-29.7,58.9v-2.8h-4.6v2.8H-29.7z
				 M-30,49.1h-4.2c0.3,0.5,0.6,1.5,1.1,3h1.9C-30.5,50.8-30.2,49.8-30,49.1z"/>
			<path class="st1" d="M-15.8,46.5c-0.2,0.6-0.5,1.4-0.9,2.3l-0.6,1.3v11h-1.5v-8.6c-0.2,0.2-0.5,0.7-1.1,1.3l-0.8-1.5
				c1.5-1.8,2.6-3.8,3.3-6.2L-15.8,46.5z M-5.9,48.2c-0.3,1.9-0.7,3.5-1.2,4.7l-1.4-0.6c0.4-0.9,0.6-1.8,0.8-2.7h-5.6
				c-0.7,1.3-1.5,2.5-2.5,3.6l-1-1.1c1.4-1.6,2.5-3.5,3.4-5.9l1.4,0.4c-0.3,0.7-0.5,1.3-0.6,1.6H-5.9z M-12.6,53.3
				c-0.8,2.6-1.7,4.6-2.9,6.1l-1.2-0.9c1.2-1.6,2.1-3.5,2.7-5.5L-12.6,53.3z M-10.3,59.5c0,1.1-0.5,1.6-1.6,1.6c-0.9,0-1.6,0-1.9,0
				l-0.5-1.5l1.6,0.1c0.6,0,0.8-0.2,0.8-0.6v-8.4h1.5V59.5z M-5.4,58.7l-1.4,0.7c-0.5-1.8-1.3-3.8-2.5-6l1.3-0.5
				C-6.8,55-6,57-5.4,58.7z"/>
			<path class="st1" d="M15.9,58.5H9.4v1.1c0,0.4-0.1,0.7-0.3,0.9c-0.2,0.2-0.4,0.4-0.7,0.5C8.2,61,7.7,61.1,7,61.1
				c-0.3,0-0.7,0-1.2,0l-0.5-1.4c0.4,0,1.1,0,2.2,0c0.2,0,0.3-0.1,0.3-0.3v-0.9H1.1v-1.2h6.7v-0.7c0.8-0.2,1.6-0.4,2.3-0.7H3.9v-1.1
				h9v1.1c-0.9,0.4-2.1,0.9-3.5,1.3v0.1h6.5V58.5z M15.7,56h-1.4v-1.9H2.9V56H1.3v-3.1h1.1l-0.3-6.1c1.1,0,2.2-0.3,3.3-0.6l0.7,1.2
				c-0.8,0.2-1.6,0.4-2.5,0.5l0,0.9h2.2v1.1H3.7l0,1h2.1v1.1H3.8l0,1h9.4l0-1H11v-1.1h2.3l0-1H11v-1.1h2.4l0-0.9h-2.6v-1.2h4.1
				l-0.3,6.2h1V56z M10.5,46.6c-0.3,0.4-0.6,0.7-1.1,1.1c0.3,0.2,0.5,0.5,0.8,0.7l-0.9,0.8c-0.3-0.3-0.6-0.6-0.8-0.8
				c-0.6,0.3-1.2,0.6-1.7,0.9l-0.7-1c0.5-0.2,1-0.4,1.4-0.7c-0.2-0.1-0.5-0.4-0.9-0.7l0.8-0.8l1.1,0.8c0.4-0.3,0.7-0.5,0.9-0.8
				L10.5,46.6z M10.6,52l-0.9,0.8c-0.4-0.5-0.8-0.8-1.2-1.1c-0.6,0.4-1.2,0.7-1.7,1l-0.7-0.9c0.4-0.2,0.9-0.4,1.5-0.8
				c-0.3-0.3-0.7-0.5-1.1-0.8l0.8-0.8c0.3,0.2,0.7,0.5,1.3,0.9c0.5-0.4,0.8-0.7,1-0.9l1,0.6c-0.3,0.4-0.7,0.7-1.1,1
				C9.9,51.3,10.2,51.6,10.6,52z"/>
			<path class="st1" d="M27.5,51.1c-1.6,0.9-3,1.6-4.3,2.2L22.6,52c1.5-0.6,3-1.4,4.4-2.2L27.5,51.1z M29.5,51.8
				c0,0.4-0.1,0.7-0.3,1s-0.4,0.4-0.7,0.4c-0.3,0-0.7,0.1-1.4,0.1l-0.5-1.3l0.9,0c0.3,0,0.5-0.2,0.5-0.5v-3.6h-5.1v-1.3h6.5V51.8z
				 M26.4,49.2l-0.9,1.1c-0.7-0.4-1.5-0.7-2.4-0.9l0.9-1.1C24.9,48.4,25.7,48.7,26.4,49.2z M35.9,61.1h-1.5v-0.7h-8.7v0.7h-1.5v-7
				H29c0.2-0.3,0.4-0.7,0.6-1.1l1.6,0.3c-0.1,0.3-0.3,0.6-0.5,0.9h5.1V61.1z M34.4,56.6v-1.2h-8.7v1.2H34.4z M34.4,59.1v-1.2h-8.7
				v1.2H34.4z M34.9,51.1c-1.3,0.7-2.7,1.2-4.1,1.7l-0.6-1.2c1.5-0.5,2.9-1.1,4.3-1.7L34.9,51.1z M36.9,51.5c0,0.6-0.1,1-0.3,1.2
				s-0.5,0.4-0.7,0.5c-0.3,0-0.8,0.1-1.6,0.1L33.8,52c0.4,0,0.8,0,1.1,0c0.1,0,0.2,0,0.4-0.1s0.2-0.2,0.2-0.3v-3.6h-5v-1.3h6.5V51.5
				z M33.5,49.3l-1,1.1c-0.7-0.5-1.4-0.8-2-1.1l0.9-1C32.1,48.5,32.8,48.8,33.5,49.3z"/>
			<path class="st1" d="M50.7,60.9h-1.5v-1.1h-3.1v1.3h-1.5V48.7h1.5c0.4-0.8,0.8-1.6,1-2.6l1.6,0.3c-0.1,0.5-0.3,1.3-0.8,2.3h2.7
				V60.9z M49.2,53.4v-3.1h-3.1v3.1H49.2z M49.2,58.4v-3.6h-3.1v3.6H49.2z M58.9,48.8c0,1.6-0.1,3.7-0.2,6.3s-0.3,4.1-0.5,4.6
				s-0.5,0.8-0.9,1c-0.4,0.2-1.4,0.3-3.1,0.3l-0.6-1.5l2.3,0c0.2,0,0.4-0.1,0.7-0.3c0.2-0.2,0.4-1.4,0.5-3.7s0.2-4.1,0.2-5.3H54
				c-0.5,1.4-1.1,2.5-1.8,3.5l-1.2-1c1.2-2,2.1-4.2,2.6-6.6l1.5,0.3c-0.1,0.6-0.3,1.4-0.6,2.4H58.9z M56.4,56.4l-1.3,0.9
				c-0.7-1.5-1.5-2.7-2.3-3.7l1.3-0.8C55.2,54.2,56,55.4,56.4,56.4z"/>
			<path class="st1" d="M72.6,58.7L71.6,60c-0.5-0.6-1.2-1.3-1.9-1.9c-0.6,1-1.6,2-2.8,3.1L65.8,60c1-0.8,1.9-1.8,2.7-2.9
				c-0.3-0.3-1.1-0.9-2.4-1.8c0.4-1.7,0.7-3.1,0.9-4.3c-0.4,0.1-0.8,0.1-1.1,0.1l0-1.5c0.7,0,1.2-0.1,1.4-0.1c0.2-1,0.4-2.2,0.6-3.3
				l1.4,0.2c-0.1,1-0.3,2-0.4,3c0.4,0,0.9,0,1.5-0.1c0.1-0.5,0.1-0.9,0.1-1.2h1.4c0,0.5,0,0.8,0,1c0.2,0,0.5-0.1,0.8-0.1l0,1.5
				c-0.4,0.1-0.7,0.1-0.9,0.1c-0.2,2.6-0.7,4.7-1.3,6.2C71.2,57.3,72,58,72.6,58.7z M70.2,50.7c-0.5,0.1-1.1,0.1-1.7,0.2
				c-0.3,1.5-0.5,2.7-0.8,3.9c0.7,0.5,1.2,0.9,1.4,1C69.7,54.4,70.1,52.7,70.2,50.7z M80.6,54.4h-3.3v5c0,0.5-0.1,0.9-0.4,1.1
				c-0.2,0.2-0.6,0.4-1,0.4s-1.2,0.1-2.5,0.1L73,59.6c0.8,0,1.5,0,2.3,0c0.3,0,0.5-0.2,0.5-0.5v-4.7H72v-1.5h3.8V51
				c0.9-1,1.6-1.9,2.3-2.9h-5.8v-1.5H80v1.5c-0.9,1.2-1.8,2.4-2.7,3.5v1.3h3.3V54.4z"/>
			<path class="st1" d="M94.7,55.4h-2.9v0.4c1.1,0.8,2,1.5,2.7,2.2l-0.9,1.1c-0.6-0.7-1.2-1.3-1.9-1.8v3.8h-1.4v-3.6
				c-0.7,1.1-1.5,1.9-2.3,2.5l-0.9-1.2c1.3-1,2.3-2.1,2.9-3.4h-2.7V54h3v-1.2h-2.4v-6.3h6.2v6.3h-2.4V54h2.9V55.4z M90.5,49v-1.2h-1
				V49H90.5z M90.5,51.5v-1.2h-1v1.2H90.5z M92.9,49v-1.2h-1V49H92.9z M92.9,51.5v-1.2h-1v1.2H92.9z M102.2,54.9
				c0,0.2-0.3,0.7-0.8,1.4c-0.5,0.7-1,1.3-1.5,1.8s-1,0.9-1.5,1.2s-1.1,0.7-1.7,1c-0.6,0.3-1.2,0.6-1.9,0.8L93.9,60
				c1.6-0.6,2.9-1.2,4-2c-0.4-0.4-0.8-0.8-1.4-1.3l-1.2,0.8l-1.1-1c1.9-1.2,3.3-2.5,4.2-4l1.3,0.5c-0.1,0.2-0.2,0.4-0.3,0.6h2.8
				V54.9z M101.5,48.6c0,0.1-0.2,0.5-0.7,1.1c-0.5,0.6-0.9,1.1-1.3,1.5c-0.4,0.4-0.8,0.7-1.3,1.1s-0.9,0.6-1.4,0.9s-0.9,0.6-1.4,0.8
				l-0.9-1.2c0.8-0.3,1.7-0.8,2.8-1.6c-0.4-0.4-0.8-0.8-1.4-1.2c-0.1,0.1-0.3,0.3-0.5,0.4l-1-1.1c1.4-1,2.5-2.1,3.2-3.3l1.4,0.5
				c-0.1,0.3-0.3,0.5-0.5,0.7h2.9V48.6z M99.8,48.6h-2.3c-0.1,0.1-0.3,0.3-0.5,0.5c0.5,0.4,1,0.8,1.4,1.2
				C98.8,50,99.3,49.4,99.8,48.6z M100.5,54.9h-2.1c-0.3,0.3-0.6,0.6-0.9,0.9c0.6,0.5,1,0.9,1.4,1.3
				C99.5,56.4,100.1,55.7,100.5,54.9z"/>
			<path class="st1" d="M113.6,46.5c-0.2,0.5-0.4,1.2-0.8,2l-0.6,1.2V61h-1.5v-8.6c-0.4,0.7-0.8,1.2-1.2,1.5l-0.7-1.6
				c1.2-1.7,2.3-3.7,3.2-6.2L113.6,46.5z M123.8,57h-4.6v4.1h-1.5V57h-4.7v-1.4h4.7v-2.1h-4.1v-1.5h4.1v-5.7h1.5v5.7h4.1v1.5h-4.1
				v2.1h4.6V57z M116.6,50.8l-1.4,0.5c-0.4-1.4-0.9-2.7-1.5-3.9l1.4-0.5C115.7,48,116.2,49.3,116.6,50.8z M123.2,47.5
				c-0.4,1.3-1,2.6-1.8,3.9l-1.4-0.7c0.6-0.9,1.1-2.2,1.7-3.7L123.2,47.5z"/>
		</g>
		<rect x="-89.1" y="28.1" class="st3" width="214.7" height="2"/>
	</g>
</g>
</svg>
