<?xml version="1.0" encoding="utf-8"?>
<!-- Generator: Adobe Illustrator 21.0.0, SVG Export Plug-In . SVG Version: 6.00 Build 0)  -->
<svg version="1.1" id="圖層_1" xmlns="http://www.w3.org/2000/svg" xmlns:xlink="http://www.w3.org/1999/xlink" x="0px" y="0px"
	 width="1332px" height="648px" viewBox="0 0 1332 648" style="enable-background:new 0 0 1332 648;" xml:space="preserve">
<style type="text/css">
	.st0{fill:#F4B82C;}
	.st1{fill:#7999B9;}
	.st2{enable-background:new    ;}
	.st3{opacity:0.46;fill:#95B2C4;enable-background:new    ;}
	.st4{fill:#81C0D8;}
	.st5{fill:#FFFFFF;}
	.st6{fill:none;stroke:#7999B9;}
	.st7{display:none;}
	.st8{display:inline;fill:#7FB6EE;}
	.st9{display:inline;}
	.st10{fill:#7FB6EE;}
</style>
<g>
	<g id="Group_105-2" transform="translate(294 1595)">
		<path id="Rectangle_3-2" class="st1" d="M-231-1505H993c24.9,0,45,20.1,45,45v468c0,24.9-20.1,45-45,45H-231
			c-24.9,0-45-20.1-45-45v-468C-276-1484.9-255.9-1505-231-1505z"/>
		<g id="Rectangle_2-2">
			<path class="st5" d="M-249-1528H975c24.9,0,45,20.1,45,45v468c0,24.9-20.1,45-45,45H-249c-24.9,0-45-20.1-45-45v-468
				C-294-1507.9-273.9-1528-249-1528z"/>
			<path class="st6" d="M-249-1527.5H975c24.6,0,44.5,19.9,44.5,44.5v468c0,24.6-19.9,44.5-44.5,44.5H-249
				c-24.6,0-44.5-19.9-44.5-44.5v-468C-293.5-1507.6-273.6-1527.5-249-1527.5z"/>
		</g>
	</g>
	<g>
		<g id="Group_117-2_1_" transform="translate(556 94)">
			<circle id="Ellipse_12-2_1_" class="st10" cx="97" cy="-27" r="67"/>
		</g>
		<g id="Group_121_1_" transform="translate(489.207 257.143) rotate(8)">
			<g id="Group_120_1_" transform="translate(700 1964)">
				<path id="Path_218_1_" class="st5" d="M-593.5-2146.2c-1.6,0-3.1-0.3-4.6-0.7c-7.8-2.5-12-10.9-9.4-18.6
					c1.2-3.7,3.8-6.8,7.3-8.6l14.1-7.2c0.5-0.2,1-0.1,1.3,0.4l14.7,23.4c0.3,0.5,0.2,1.1-0.3,1.4c0,0-0.1,0-0.1,0l-16.3,8.3
					C-588.9-2146.7-591.2-2146.2-593.5-2146.2z M-586-2179.1l-13.3,6.8l0,0c-6.3,3.2-8.8,10.9-5.6,17.2s10.9,8.8,17.2,5.6l0,0
					l15.3-7.8L-586-2179.1z M-599.8-2173.2L-599.8-2173.2z"/>
				<path id="Path_219_1_" class="st5" d="M-576-2191.4c-0.6,0-1-0.4-1-1c0-0.2,0.1-0.5,0.2-0.6l3.5-4.3c0.3-0.4,1-0.5,1.4-0.2
					s0.5,1,0.2,1.4l-3.5,4.3C-575.4-2191.6-575.7-2191.4-576-2191.4z"/>
				<path id="Path_220_1_" class="st5" d="M-571-2155.9c-0.3,0-0.7-0.2-0.8-0.5l-14.7-23.4c-0.2-0.4-0.2-0.8,0.1-1.2l6.6-8.3
					c0.3-0.4,1-0.5,1.4-0.2s0.5,1,0.2,1.4l0,0l-6.2,7.7l13.9,22.1c4.6-1.7,27.8-10.2,33.9-12c3.1-0.9,4.9-1.8,5.2-2.4
					c0.1-0.1,0.1-0.4-0.2-0.9c-0.6-1.3-20.7-36.2-23.4-39.8c-0.2-0.4-0.6-0.6-1-0.6c-1.4,0-3.6,2.4-4.4,3.6c0,0,0,0,0,0.1l-8.5,10.6
					c-0.3,0.4-1,0.5-1.4,0.2s-0.5-1-0.2-1.4l8.5-10.6c0.4-0.6,3.2-4.4,6-4.4c1.1,0,2.1,0.5,2.7,1.4c2.5,3.3,22.6,37.9,23.6,40.1
					c0.4,0.8,0.5,1.7,0.1,2.6c-0.6,1.3-2.4,2.3-6.5,3.5c-6.5,1.9-34.2,12.2-34.5,12.3C-570.8-2156-570.9-2155.9-571-2155.9z"/>
				<path id="Path_221_1_" class="st5" d="M-539-2167.4c-0.4,0-0.7-0.2-0.9-0.5l-23.6-40.4c-0.3-0.5-0.1-1.1,0.4-1.4
					c0.5-0.3,1.1-0.1,1.4,0.4l23.6,40.4c0.3,0.5,0.1,1.1-0.4,1.4C-538.7-2167.5-538.8-2167.4-539-2167.4L-539-2167.4z"/>
				<path id="Path_222_1_" class="st5" d="M-537-2185.3L-537-2185.3c-0.4,0-0.7-0.2-0.9-0.5l-7.5-13c-0.3-0.5-0.1-1.1,0.4-1.4
					c0.1-0.1,0.3-0.1,0.5-0.1l6.3-0.2c0.4,0,0.8,0.2,0.9,0.6l4.3,8.7c0.2,0.3,0.1,0.7-0.1,1l-3.1,4.4
					C-536.4-2185.4-536.7-2185.3-537-2185.3z M-542.8-2198.3l5.9,10.1l1.9-2.7l-3.7-7.6L-542.8-2198.3z"/>
				<path id="Path_223_1_" class="st5" d="M-573.8-2149.1c-0.6,0-1-0.4-1-1c0-0.4,0.2-0.7,0.5-0.9l4.2-2.4l-1.7-3.1
					c-0.3-0.5-0.1-1.1,0.4-1.4c0.5-0.3,1.1-0.1,1.4,0.4l2.2,4c0.3,0.5,0.1,1.1-0.4,1.3l-5,2.9
					C-573.5-2149.1-573.7-2149.1-573.8-2149.1z"/>
				<path id="Path_224_1_" class="st5" d="M-573.7-2128.3c-2.6,0-5.1-1.4-6.4-3.7c-0.3-0.5-0.1-1.1,0.4-1.4c0.5-0.3,1.1-0.1,1.4,0.4
					c1.5,2.6,4.8,3.5,7.3,2s3.5-4.8,2-7.3l-8.2-14.3l-8.6,4.4c-0.3,0.2-0.6,0.3-1,0.5l1.9,3.3c0.3,0.5,0.1,1.1-0.4,1.4
					c-0.5,0.3-1.1,0.1-1.4-0.4l-2.5-4.4c-0.3-0.5-0.1-1.1,0.4-1.4c0.1,0,0.1-0.1,0.2-0.1c0.6-0.2,1.2-0.5,1.8-0.8l9.5-4.8
					c0.5-0.2,1.1-0.1,1.3,0.4l8.7,15.1c2,3.5,0.8,8-2.7,10.1C-571.1-2128.6-572.4-2128.3-573.7-2128.3L-573.7-2128.3z"/>
				<path id="Path_225_1_" class="st5" d="M-582.2-2136.6c-0.4,0-0.7-0.2-0.9-0.5l-2.1-3.6c-0.3-0.5-0.1-1.1,0.4-1.4
					c0.5-0.3,1.1-0.1,1.4,0.4l2.1,3.6c0.3,0.5,0.1,1.1-0.4,1.4C-581.8-2136.6-582-2136.6-582.2-2136.6L-582.2-2136.6z"/>
				<path id="Path_226_1_" class="st5" d="M-533.6-2203c-0.3-0.4-0.3-0.8-0.2-1.2l3.1-9.8c0.2-0.7,1-1.1,1.7-0.9
					c0.7,0.2,1.1,1,0.9,1.7l-3.1,9.8c-0.2,0.7-1,1.1-1.7,0.9C-533.2-2202.6-533.5-2202.7-533.6-2203L-533.6-2203z"/>
				<path id="Path_227_1_" class="st5" d="M-528.4-2197.9c0,0-0.1-0.1-0.1-0.1c-0.4-0.7-0.1-1.5,0.5-1.9c0,0,0,0,0,0l8.4-4.8
					c0.7-0.4,1.5-0.1,1.9,0.5s0.1,1.5-0.5,1.9l0,0l-8.4,4.8C-527.2-2197.2-527.9-2197.4-528.4-2197.9z"/>
				<path id="Path_228_1_" class="st5" d="M-525.5-2190.3c-0.4-0.6-0.3-1.5,0.3-1.9c0.3-0.2,0.7-0.3,1.1-0.2l9.7,2.3
					c0.7,0.2,1.2,0.9,1,1.6s-0.9,1.2-1.6,1l0,0l-9.7-2.3C-525-2189.9-525.3-2190-525.5-2190.3z"/>
			</g>
		</g>
	</g>
</g>
</svg>
