<?xml version="1.0" encoding="utf-8"?>
<!-- Generator: Adobe Illustrator 21.0.0, SVG Export Plug-In . SVG Version: 6.00 Build 0)  -->
<svg version="1.1" id="圖層_1" xmlns="http://www.w3.org/2000/svg" xmlns:xlink="http://www.w3.org/1999/xlink" x="0px" y="0px"
	 width="613px" height="249px" viewBox="0 0 613 249" style="enable-background:new 0 0 613 249;" xml:space="preserve">
<style type="text/css">
	.st0{fill:#F4B82C;}
	.st1{fill:#7999B9;}
	.st2{enable-background:new    ;}
	.st3{opacity:0.46;fill:#95B2C4;enable-background:new    ;}
	.st4{fill:#81C0D8;}
	.st5{fill:#FFFFFF;}
	.st6{fill:none;stroke:#7999B9;}
	.st7{display:none;}
	.st8{display:inline;fill:#7FB6EE;}
	.st9{display:inline;}
	.st10{fill:#7FB6EE;}
	.st11{fill:#1F94D8;}
</style>
<g id="Group_118_1_" transform="translate(0 -916)">
	<g id="Group_105_2_" transform="translate(294 1595)">
		<path id="Rectangle_29" class="st1" d="M-251-663h533c20.4,0,37,16.6,37,37v159c0,20.4-16.6,37-37,37h-533c-20.4,0-37-16.6-37-37
			v-159C-288-646.4-271.4-663-251-663z"/>
		<g id="Rectangle_2_2_">
			<path class="st5" d="M-257-679h533c20.4,0,37,16.6,37,37v159c0,20.4-16.6,37-37,37h-533c-20.4,0-37-16.6-37-37v-159
				C-294-662.4-277.4-679-257-679z"/>
			<path class="st6" d="M-257-678.5h533c20.2,0,36.5,16.3,36.5,36.5v159c0,20.2-16.3,36.5-36.5,36.5h-533
				c-20.2,0-36.5-16.3-36.5-36.5v-159C-293.5-662.2-277.2-678.5-257-678.5z"/>
		</g>
	</g>
</g>
</svg>
