<?xml version="1.0" encoding="utf-8"?>
<!-- Generator: Adobe Illustrator 21.0.0, SVG Export Plug-In . SVG Version: 6.00 Build 0)  -->
<svg version="1.1" id="圖層_1" xmlns="http://www.w3.org/2000/svg" xmlns:xlink="http://www.w3.org/1999/xlink" x="0px" y="0px"
	 width="219px" height="219px" viewBox="0 0 219 219" style="enable-background:new 0 0 219 219;" xml:space="preserve">
<style type="text/css">
	.st0{opacity:0.87;fill:#FFFFFF;enable-background:new    ;}
	.st1{enable-background:new    ;}
	.st2{fill:#468DD5;}
</style>
<path id="Path_208-2" class="st0" d="M109.5,9C165,9,210,54,210,109.5S165,210,109.5,210S9,165,9,109.5S54,9,109.5,9z"/>
<g id="Group_45" transform="translate(-13 -14)">
	<g class="st1">
		<path class="st2" d="M70.6,74.7H65v8.6c0,0.6-0.2,1.1-0.5,1.4s-0.8,0.5-1.5,0.5c-1,0-1.6,0-2,0l-0.6-1.8c0.5,0.1,1.1,0.1,1.8,0.1
			c0.5,0,0.8,0,0.9-0.1s0.1-0.1,0.1-0.2v-6.5c-1.5,2.3-3.8,4.7-7,7L55,82.4c3.4-2.6,5.8-5.2,7.1-7.8h-7v-1.6h8.1v-3.8H65v3.8h5.6
			V74.7z"/>
		<path class="st2" d="M90.1,74.5c-1,2.2-2.5,4.1-4.3,5.7s-4.8,2.7-9,3.4l-0.7-1.8c3.4-0.5,6-1.3,7.9-2.6s3.4-3.1,4.6-5.7L90.1,74.5
			z M81.8,73.2l-1.2,1.4c-1.5-1.3-2.9-2.2-4-2.8l1.2-1.4C79.2,71.2,80.6,72.2,81.8,73.2z"/>
		<path class="st2" d="M110,74.3c-0.5,3.1-1.4,5.5-2.8,7.1s-3.5,2.9-6.4,3.9l-1.1-1.6c4.5-1.3,7.2-3.9,8.1-7.7H96.4v-1.7H110z
			 M108.1,71.5H98v-1.7h10.1V71.5z"/>
		<path class="st2" d="M128.1,70.4c-1,1.6-2.4,3.1-4.2,4.7v10.1h-1.8v-8.7c-1.9,1.3-3.8,2.4-5.9,3.3l-1.1-1.6
			c5.2-2.3,9-5.2,11.4-8.7L128.1,70.4z"/>
		<path class="st2" d="M150.1,74.5c-1,2.2-2.5,4.1-4.3,5.7s-4.8,2.7-9,3.4l-0.7-1.8c3.4-0.5,6-1.3,7.9-2.6s3.4-3.1,4.6-5.7
			L150.1,74.5z M141.8,73.2l-1.2,1.4c-1.5-1.3-2.9-2.2-4-2.8l1.2-1.4C139.2,71.2,140.6,72.2,141.8,73.2z"/>
		<path class="st2" d="M162.5,77.9l-1.2,1.5c-0.5-1.1-1.1-2.1-1.6-2.8V86h-1.7v-8.8c-0.7,1.5-1.6,2.8-2.8,4.1l-0.9-1.9
			c1.3-1.3,2.5-3.1,3.5-5.5h-3.3v-1.7h3.4v-3.6h1.7v3.6h2.8v1.7h-2.8v0.2C160.9,75.5,161.9,76.8,162.5,77.9z M171.4,86h-1.8v-1.5
			h-4.7V86h-1.8V69h8.3V86z M169.6,73.6v-2.9h-4.7v2.9H169.6z M169.6,78.2v-3h-4.7v3H169.6z M169.6,82.9v-3h-4.7v3H169.6z"/>
		<path class="st2" d="M180.8,72.1h-6.5v-1.7h2.4c-0.2-0.4-0.4-0.8-0.8-1.4l1.8-0.7c0.3,0.5,0.7,1.2,1,2h2.1V72.1z M180.4,75h-5.6
			v-1.7h5.6V75z M180.4,77.9h-5.6v-1.6h5.6V77.9z M180.4,85.6h-1.7v-0.7h-2V86h-1.8v-6.8h5.6V85.6z M178.7,83.2v-2.3h-2v2.3H178.7z
			 M192,84.6l-0.9,1.6c-2.1-0.7-3.5-2-4.4-3.8c-1.1,1.8-2.7,3-5,3.8l-1-1.6c1-0.4,2-0.8,2.8-1.3s1.4-1.2,1.7-2.1s0.5-2.5,0.4-4.9
			l1.8,0c0,1.2,0,2.3-0.1,3.4c1-0.6,1.9-1.3,2.8-2l1.3,1.2c-0.8,0.8-1.9,1.6-3.3,2.5c0.2,0.6,0.8,1.2,1.5,1.8S191.1,84.3,192,84.6z
			 M192,76l-1.2,1.4c-1.4-1.1-2.8-2.1-4.3-2.9c-1.1,1.5-2.7,2.4-4.8,2.9l-0.9-1.7c1.9-0.4,3.2-1,4-1.8s1-2.6,0.9-5.4l1.8,0
			c0,1,0,2-0.1,2.9c0.9-0.5,1.8-1.2,2.7-2l1.3,1.3c-1,1-2.2,1.8-3.6,2.6C189.4,74.2,190.9,75.1,192,76z M184.8,81l-1.5,1
			c-0.6-1.1-1.3-2.2-2.2-3.1l1.5-1C183.5,78.8,184.3,79.9,184.8,81z M184.8,72.4l-1.5,1.1c-0.4-1-1.1-2-2-3.1l1.4-1.1
			C183.5,70.3,184.2,71.3,184.8,72.4z"/>
	</g>
</g>
<g>
	<path class="st2" d="M127.9,171.4c0-0.9,0-1.8,0-2.8c1.9,0,3.7,0,5.6,0c0-1,0-1.8,0-2.8c-0.9,0-1.8,0-2.8,0c0-1.9,0-3.8,0-5.7
		c-1.9,0-3.7,0-5.6,0c0-1,0-1.8,0-2.8c0.9,0,1.8,0,2.7,0c0-1,0-1.8,0-2.8c-0.9,0-1.8,0-2.8,0c0-1,0-2,0-2.9c0.9,0,1.9,0,2.9,0
		c0-1,0-1.9,0-2.8c0.9,0,1.8,0,2.7,0c0-2.9,0-5.7,0-8.5c-0.9,0-1.8,0-2.7,0c0,2.9,0,5.7,0,8.5c-1,0-1.9,0-2.9,0c0-2.8,0-5.6,0-8.4
		c-1.9,0-3.8,0-5.7,0c0,0.9,0,1.8,0,2.8c-1,0-1.9,0-2.7,0c0,1,0,1.9,0,2.8c0.9,0,1.8,0,2.8,0c0,1,0,1.9,0,2.8c2,0,3.8,0,5.6,0
		c0,0.9,0,1.9,0,2.8c-0.9,0-1.8,0-2.8,0c0,1,0,1.8,0,2.8c-1,0-1.9,0-2.8,0c0,1,0,1.8,0,2.8c0.9,0,1.8,0,2.7,0c0,1,0,1.9,0,2.8
		c-0.9,0-1.8,0-2.7,0c0,1,0,1.8,0,2.8c2.8,0,5.6,0,8.4,0c0,1,0,1.8,0,2.8c-3.7,0-7.4,0-11.2,0c0,1,0,1.8,0,2.8c0.9,0,1.8,0,2.7,0
		c0,1,0,1.9,0,2.9c-0.9,0-1.8,0-2.8,0c0,1,0,1.9,0,2.9l0,0c-0.9,0-1.8,0-2.8,0c0,1,0,1.8,0,2.8c-1,0-1.8,0-2.8,0c0-0.9,0-1.8,0-2.8
		c-1,0-2,0-2.9,0c0-0.9,0-1.9,0-2.8c-1,0-1.9,0-2.8,0c0,0.9,0,1.8,0,2.8c1,0,1.9,0,2.8,0c0,0.9,0,1.8,0,2.8c-1.9,0-3.7,0-5.7,0
		c0-0.9,0-1.8,0-2.8c-1,0-1.9,0-2.9,0l0,0c0-1,0-1.9,0-2.9c0.9,0,1.9,0,2.8,0c0-1,0-1.9,0-2.8c-1,0-1.8,0-2.8,0c0,1,0,1.9,0,2.8
		c-2.8,0-5.7,0-8.5,0l0,0c0-0.9,0-1.9,0-2.9c1.9,0,3.8,0,5.7,0c0-1,0-1.9,0-2.8l0,0c2.8,0,5.6,0,8.6,0c0,1,0,1.9,0,2.8
		c2.9,0,5.6,0,8.4,0c0-0.9,0-1.8,0-2.8c-1.9,0-3.7,0-5.7,0c0-1,0-1.9,0-2.8c2.8,0,5.6,0,8.5,0c0-0.9,0-1.8,0-2.8c-2.9,0-5.6,0-8.4,0
		c0-0.9,0-1.9,0-2.8c-1,0-1.9,0-2.8,0c0,1,0,1.8,0,2.7c1,0,1.9,0,2.8,0c0,0.9,0,1.9,0,2.8c-1.9,0-3.7,0-5.7,0c0-2.9,0-5.7,0-8.5
		c-1,0-1.9,0-2.8,0c0-0.9,0-1.9,0-2.8c-1,0-1.9,0-2.8,0c0,1,0,1.9,0,2.8c-2.8,0-5.7,0-8.5,0l0,0c0-0.9,0-1.8,0-2.8c-1,0-1.8,0-2.8,0
		c0-1,0-2,0-2.9c0,0,0,0,0,0c5.7,0,11.3,0,17,0l0,0c0,0.9,0,1.9,0,2.9c1,0,2,0,2.9,0l0,0c0,0.9,0,1.9,0,2.8c1,0,1.9,0,2.9,0
		c0-1,0-1.9,0-2.8l0,0c1.9,0,3.7,0,5.6,0c0-1,0-1.9,0-2.9c-0.9,0-1.8,0-2.8,0c0-1,0-1.9,0-2.8l0,0c0.9,0,1.8,0,2.8,0
		c0-1.5,0-3,0-4.4c1.2-0.1,2.3-0.1,3.3-0.4c2.2-0.7,3.5-2.5,3.5-4.8c0-1.5,0-2.9,0-4.5c0.6,0,1.1,0,1.7,0c0,1.8,0,3.7,0,5.6
		c1,0,1.8,0,2.8,0c0-0.9,0-1.8,0-2.8c1,0,2,0,2.9,0l0,0c0,0.9,0,1.9,0,2.8c2,0,3.8,0,5.7,0c0-1,0-1.9,0-2.8l0,0c1,0,1.9,0,2.9,0l0,0
		c0,3.8,0,7.5,0,11.4c-1,0-1.9,0-2.8,0c0,1.9,0,3.7,0,5.6c2.8,0,5.6,0,8.4,0c0-1,0-1.8,0-2.8c-0.9,0-1.8,0-2.7,0c0-1,0-1.9,0-2.8
		c4.7,0,9.4,0,14.1,0l0,0c0,0.9,0,1.8,0,2.8c-0.9,0-1.8,0-2.8,0c0,1,0,2,0,2.9l0,0c-1.9,0-3.7,0-5.6,0c0,1,0,1.9,0,2.9
		c1,0,1.8,0,2.8,0c0,1.9,0,3.8,0,5.6c1,0,1.8,0,2.8,0c0-0.9,0-1.8,0-2.8c1,0,1.9,0,2.8,0l0,0c0,0.9,0,1.8,0,2.8c1,0,1.8,0,2.8,0
		c0,1.9,0,3.8,0,5.7c-0.9,0-1.8,0-2.7,0c0,1,0,1.8,0,2.8c-1.9,0-3.8,0-5.7,0c0-0.9,0-1.9,0-2.8c0.9,0,1.9,0,2.8,0c0-1,0-1.9,0-2.7
		c-0.9,0-1.8,0-2.8,0c0,1,0,1.9,0,2.8c-0.9,0-1.8,0-2.8,0c0,1,0,1.8,0,2.8c-1,0-1.8,0-2.8,0c0-0.9,0-1.8,0-2.7c-1.9,0-3.7,0-5.6,0
		c0,0.9,0,1.8,0,2.7c0.9,0,1.8,0,2.7,0c0,1,0,1.8,0,2.8c1,0,1.9,0,2.8,0c0,1,0,1.9,0,2.9c-0.9,0-1.8,0-2.7,0c0,1,0,1.9,0,2.8
		c-1,0-1.9,0-2.9,0c0-0.9,0-1.8,0-2.8c-1,0-1.9,0-2.9,0l0,0c0-0.9,0-1.9,0-2.9C131.6,171.3,129.7,171.3,127.9,171.4L127.9,171.4z
		 M142,154.4c-2.9,0-5.6,0-8.4,0c0,2.8,0,5.6,0,8.4c2.8,0,5.6,0,8.4,0C142,160,142,157.2,142,154.4z M113.7,157.1c0-0.9,0-1.8,0-2.7
		c-0.9,0-1.8,0-2.7,0c0,1,0,1.8,0,2.7C111.9,157.1,112.8,157.1,113.7,157.1z"/>
	<path class="st2" d="M71.3,148.7c-0.9,0-1.8,0-2.8,0c0-1,0-1.9,0-2.8c-1,0-1.8,0-2.8,0c0,2.8,0,5.5,0,8.4c-1,0-1.9,0-2.8,0
		c0-7.5,0-15,0-22.6c1.9,0,3.8,0,5.7,0c0,1,0,1.9,0,2.9c-0.9,0-1.9,0-2.8,0c0,2.9,0,5.6,0,8.4c0.9,0,1.8,0,2.8,0c0-0.9,0-1.8,0-2.8
		c1,0,1.9,0,2.8,0c0-1,0-1.8,0-2.8c-0.9,0-1.8,0-2.8,0c0-1,0-1.9,0-2.8c0.9,0,1.8,0,2.8,0c0-1,0-1.9,0-2.9c-1,0-1.9,0-2.8,0
		c0-0.9,0-1.8,0-2.8c-1,0-1.8,0-2.8,0c0-1,0-1.8,0-2.8c1.9,0,3.7,0,5.6,0c0,0,0,0,0,0c0,0.9,0,1.9,0,2.9c2,0,3.8,0,5.7,0
		c0,1,0,1.9,0,2.8c1,0,1.9,0,2.8,0l0,0c0,0.9,0,1.9,0,2.9c1,0,1.9,0,2.8,0c0,1,0,1.8,0,2.8c-0.9,0-1.8,0-2.7,0c0,1,0,1.9,0,2.7
		c1.9,0,3.7,0,5.6,0c0-1.9,0-3.7,0-5.6c1,0,1.9,0,2.8,0c0,0.9,0,1.9,0,2.8c1.9,0,3.8,0,5.7,0c0-0.9,0-1.8,0-2.8c1,0,1.9,0,2.7,0
		c0-1,0-1.8,0-2.8c-0.9,0-1.8,0-2.8,0c0-1,0-1.9,0-2.8l0,0c1.5,0,2.9,0,4.5,0c0,0.5,0,0.9,0,1.3c0,2,0,4,0,5.9c0,2.4,1.2,4,3.4,4.9
		c0.3,0.1,0.6,0.6,0.6,0.9c0.1,1.3,0,2.6,0,3.9l0,0c-1.9,0-3.7,0-5.7,0c0-1.9,0-3.8,0-5.6c-1.9,0-3.8,0-5.6,0c0,1,0,1.9,0,2.8l0,0
		c-0.9,0-1.9,0-2.9,0c0,1,0,1.9,0,2.9c-1,0-1.9,0-2.8,0c0,1,0,1.9,0,2.8c0,0,0,0,0,0c-1.8,0-3.6,0-5.4,0c-0.1,0-0.1,0-0.3,0.1
		c0,0.9,0,1.8,0,2.7l0,0c-2.8,0-5.7,0-8.5,0l0,0C71.3,150.6,71.3,149.6,71.3,148.7c1.8,0,3.7,0,5.7,0c0-1,0-1.9,0-2.9
		c1.9,0,3.7,0,5.5,0c0-1,0-1.9,0-2.8c-1.9,0-3.7,0-5.6,0c0-1,0-1.9,0-2.7c-1,0-1.9,0-2.8,0c0,1.9,0,3.7,0,5.6c-1,0-1.9,0-2.8,0
		C71.3,146.9,71.3,147.8,71.3,148.7z M74.2,137.3c0.9,0,1.8,0,2.7,0c0-0.9,0-1.8,0-2.7c-1,0-1.8,0-2.7,0
		C74.2,135.5,74.2,136.4,74.2,137.3z"/>
	<path class="st2" d="M130.7,103.4c0,1.8,0,3.7,0,5.6c1,0,1.8,0,2.8,0c0-0.9,0-1.7,0-2.7c2.8,0,5.6,0,8.5,0c0,0.9,0,1.7,0,2.7
		c-0.9,0-1.8,0-2.8,0c0,1,0,2,0,2.9l0,0c-0.9,0-1.8,0-2.8,0c0,1.9,0,3.7,0,5.6c-1,0-1.9,0-2.8,0c0,1,0,1.9,0,2.8c-1,0-1.8,0-2.8,0
		c0,1,0,1.9,0,2.8c-1,0-1.8,0-2.8,0c0,1.9,0,3.8,0,5.7c0,0,0,0,0,0c-2.4,0-4.9,0-7.4,0c0-1.5,0-3,0-4.5c0-2.1-1-3.7-2.9-4.5
		c-0.9-0.4-1.2-0.8-1-1.7c0-0.2,0-0.4,0-0.6l0,0c0.9,0,1.9,0,2.9,0c0-2,0-3.8,0-5.7l0,0c0.9,0,1.9,0,2.9,0c0-1,0-2,0-2.9l0,0
		c0.9,0,1.9,0,2.8,0c0,1.8,0,3.7,0,5.6c1,0,1.9,0,2.9,0c0,1,0,1.9,0,2.8c-0.9,0-1.9,0-2.9,0c0,1,0,1.9,0,2.8c-0.9,0-1.8,0-2.8,0
		c0,2,0,3.8,0,5.6c0.9,0,1.8,0,2.7,0c0-1.9,0-3.8,0-5.7c1,0,1.9,0,2.9,0c0-1,0-1.9,0-2.8c0.9,0,1.9,0,2.9,0c0-1,0-1.9,0-2.8
		c1,0,1.8,0,2.7,0c0-1,0-1.8,0-2.8c-1.9,0-3.7,0-5.6,0c0-1,0-1.8,0-2.7c-1,0-1.9,0-2.9,0c0-1,0-1.9,0-2.9c0.9,0,1.9,0,2.9,0
		c0-1,0-1.9,0-2.8l0,0C128.8,103.4,129.8,103.4,130.7,103.4L130.7,103.4z"/>
	<path class="st2" d="M62.8,103.3c0-6.6,0-13.1,0-19.7c6.6,0,13.1,0,19.7,0c0,6.5,0,13.1,0,19.7C76,103.3,69.4,103.3,62.8,103.3z
		 M65.7,100.5c4.7,0,9.4,0,14,0c0-4.7,0-9.4,0-14c-4.7,0-9.4,0-14,0C65.7,91.2,65.7,95.8,65.7,100.5z"/>
	<path class="st2" d="M62.8,176.9c0-6.6,0-13.1,0-19.7c6.6,0,13.1,0,19.7,0c0,6.5,0,13.1,0,19.7C76,176.9,69.5,176.9,62.8,176.9z
		 M79.7,160.1c-4.7,0-9.4,0-14.1,0c0,4.7,0,9.3,0,14c4.7,0,9.4,0,14.1,0C79.7,169.4,79.7,164.8,79.7,160.1z"/>
	<path class="st2" d="M156.1,103.4c-6.6,0-13.1,0-19.7,0c0-6.6,0-13.1,0-19.7c6.5,0,13.1,0,19.7,0
		C156.1,90.2,156.1,96.8,156.1,103.4z M139.2,100.5c4.8,0,9.4,0,14.1,0c0-4.7,0-9.4,0-14c-4.7,0-9.4,0-14.1,0
		C139.2,91.2,139.2,95.8,139.2,100.5z"/>
	<path class="st2" d="M93.9,120.4c0,0.9,0,1.8,0,2.8c-1.8,0-3.7,0-5.6,0c0,1,0,1.8,0,2.8c1.8,0,3.6,0,5.6,0c0,1,0,2,0,2.9
		c0,0,0,0,0,0c-1.9,0-3.7,0-5.7,0c0,1,0,2,0,2.9c-2.8,0-5.7,0-8.5,0l0,0c0-0.9,0-1.9,0-2.9c1,0,1.9,0,2.8,0c0-1,0-1.8,0-2.8
		c-0.9,0-1.8,0-2.7,0c0-1,0-1.8,0-2.8c1.9,0,3.7,0,5.7,0c0-1,0-1.9,0-2.8c1,0,1.8,0,2.7,0c0-1,0-1.9,0-2.8c-1.9,0-3.8,0-5.6,0l0,0
		c0-1,0-1.9,0-2.9l0,0c1.8,0,3.7,0,5.6,0c0-1,0-1.8,0-2.8c1,0,1.8,0,2.8,0c0,2.7,0,5.5,0,8.4C92.1,120.4,93,120.4,93.9,120.4
		C93.9,120.4,93.9,120.4,93.9,120.4z"/>
	<path class="st2" d="M153.4,134.5c0,1,0,1.9,0,2.9l0,0c-0.9,0-1.9,0-2.9,0c0,1,0,2,0,2.9l0,0c-0.9,0-1.9,0-2.9,0c0,1,0,1.9,0,2.8
		c-2.9,0-5.6,0-8.5,0c0-2.8,0-5.6,0-8.5c-1,0-1.9,0-2.8,0l0,0c0-1,0-1.9,0-2.9l0,0c0.9,0,1.9,0,2.9,0c0-1,0-2,0-2.9l0,0
		c0.9,0,1.9,0,2.9,0c0-1,0-1.9,0-2.8c1,0,1.9,0,2.8,0l0,0c0,0.9,0,1.9,0,2.9c1,0,2,0,2.9,0l0,0c0,0.9,0,1.9,0,2.9c-2,0-3.8,0-5.6,0
		c0,2.9,0,5.6,0,8.4c0.9,0,1.8,0,2.8,0c0-1,0-1.8,0-2.8c1,0,1.8,0,2.8,0c0-1,0-1.9,0-2.8C149.7,134.6,151.5,134.6,153.4,134.5
		L153.4,134.5z"/>
	<path class="st2" d="M127.9,86.4c0-0.9,0-1.8,0-2.8c1.9,0,3.8,0,5.6,0c0,3.7,0,7.4,0,11.2c-1.8,0-3.7,0-5.6,0c0-0.9,0-1.7,0-2.7
		c-1.9,0-3.7,0-5.7,0c0-1.9,0-3.8,0-5.7c-1,0-1.8,0-2.8,0c0-1,0-1.9,0-2.8c1.8,0,3.7,0,5.6,0c0,0.9,0,1.8,0,2.8
		C126.1,86.4,127,86.4,127.9,86.4c0,0.9,0,1.8,0,2.8c1,0,1.9,0,2.8,0c0-1,0-1.8,0-2.8C129.7,86.4,128.8,86.4,127.9,86.4z"/>
	<path class="st2" d="M144.9,120.4c1.9,0,3.8,0,5.7,0l0,0c0,0.9,0,1.9,0,2.9c1,0,2,0,2.9,0l0,0c0,0.9,0,1.8,0,2.8c1,0,1.9,0,2.8,0
		c0,2.9,0,5.6,0,8.5c-0.9,0-1.9,0-2.8,0l0,0c0-0.9,0-1.8,0-2.9c-1,0-1.9,0-2.9,0c0-1,0-1.9,0-2.8c-1,0-1.9,0-2.8,0l0,0
		c0-0.9,0-1.9,0-2.9c-1,0-2,0-2.9,0l0,0C144.9,124.2,144.9,122.3,144.9,120.4L144.9,120.4z"/>
	<path class="st2" d="M79.8,109c0,0.9,0,1.8,0,2.8c1,0,1.8,0,2.8,0c0,1,0,1.9,0,2.9c0,0,0,0,0,0c-0.9,0-1.8,0-2.8,0c0,1,0,1.9,0,2.9
		c1,0,1.9,0,2.8,0l0,0c0,0.9,0,1.9,0,2.9c-1.9,0-3.8,0-5.7,0c0,1,0,1.8,0,2.8c-1,0-1.8,0-2.8,0c0,1,0,1.9,0,2.8c-1,0-1.9,0-2.8,0
		c0,0,0,0,0,0c0-1.8,0-3.7,0-5.7c0.9,0,1.8,0,2.8,0c0-1.9,0-3.7,0-5.6c1,0,1.8,0,2.9,0c0-2,0-3.8,0-5.7l0,0
		C77.9,109.1,78.8,109.1,79.8,109L79.8,109z"/>
	<path class="st2" d="M113.8,111.9c-1,0-1.9,0-2.9,0l0,0c0-0.9,0-1.9,0-2.9c-1,0-2,0-2.9,0l0,0c0-2.8,0-5.7,0-8.5l0,0
		c1,0,1.9,0,2.9,0c0,0.9,0,1.9,0,2.8c1,0,1.9,0,2.8,0c0,0.9,0,1.9,0,2.8c2.9,0,5.7,0,8.5,0c0,1,0,1.9,0,2.9l0,0c-0.9,0-1.9,0-2.9,0
		c0,1,0,2,0,2.9l0,0c-1,0-1.9,0-2.9,0l0,0c0-0.9,0-1.9,0-2.8c-1,0-1.9,0-2.9,0C113.7,110.1,113.7,111,113.8,111.9L113.8,111.9z"/>
	<path class="st2" d="M88.3,171.3c-0.9,0-1.8,0-2.8,0c0-2.8,0-5.6,0-8.5c1.8,0,3.7,0,5.5,0c0-1,0-1.8,0-2.8c-0.9,0-1.8,0-2.8,0
		c0-1,0-2,0-2.9l0,0c1.9,0,3.7,0,5.7,0c0,1,0,1.9,0,2.8c1,0,1.9,0,2.8,0c0,1.9,0,3.8,0,5.7l0,0c-2.8,0-5.6,0-8.5,0
		C88.3,167.7,88.3,169.5,88.3,171.3L88.3,171.3z"/>
	<path class="st2" d="M105.2,89.3c1.8,0,3.7,0,5.6,0c0-1.9,0-3.7,0-5.6c1.9,0,3.8,0,5.6,0c0,2.8,0,5.5,0,8.4c-0.9,0-1.8,0-2.8,0
		c0,1,0,2,0,2.9c0,0,0,0,0,0c-1.9,0-3.7,0-5.7,0c0-1,0-1.9,0-2.9c-1,0-1.9,0-2.8,0C105.3,91,105.3,90.1,105.2,89.3L105.2,89.3z"/>
	<path class="st2" d="M96.7,100.6c1,0,1.9,0,2.9,0c0,0,0,0,0,0c0,1.9,0,3.8,0,5.7c-0.9,0-1.9,0-2.8,0c0,1,0,1.9,0,2.8
		c0.9,0,1.8,0,2.8,0c0-1,0-1.9,0-2.8c1,0,1.9,0,2.9,0l0,0c0,1.9,0,3.8,0,5.7l0,0c-1.8,0-3.7,0-5.6,0c0,0.9,0,1.8,0,2.8
		c-1,0-1.9,0-2.9,0c0-3.8,0-7.5,0-11.3c0,0,0,0,0,0c0.9,0,1.9,0,2.9,0C96.8,102.4,96.8,101.5,96.7,100.6L96.7,100.6z"/>
	<path class="st2" d="M99.6,89.2c0.9,0,1.9,0,2.8,0c0,0,0,0,0,0c0,1.9,0,3.7,0,5.7c1,0,1.9,0,2.9,0c0,1,0,1.8,0,2.8c1,0,1.9,0,2.8,0
		c0,1,0,1.9,0,2.8l0,0c-0.9,0-1.9,0-2.9,0c0,2,0,3.8,0,5.7c-1,0-1.9,0-2.8,0l0,0c0-1.9,0-3.7,0-5.7c-1,0-2,0-2.9,0c0,0,0,0,0,0
		C99.6,96.8,99.6,93,99.6,89.2L99.6,89.2z"/>
	<path class="st2" d="M133.6,131.7c0-2.8,0-5.6,0-8.5c0.9,0,1.8,0,2.8,0c0-1,0-1.9,0-2.9c2,0,3.8,0,5.7,0l0,0c0,0.9,0,1.9,0,2.9
		c-1,0-1.9,0-2.8,0c0,1.9,0,3.8,0,5.6l0,0c-0.9,0-1.9,0-2.9,0c0,1,0,2,0,2.9l0,0C135.5,131.7,134.5,131.7,133.6,131.7L133.6,131.7z"
		/>
	<path class="st2" d="M91.1,100.5c-0.9,0-1.8,0-2.8,0c0,1.9,0,3.7,0,5.7c0.9,0,1.8,0,2.7,0c0,1,0,1.8,0,2.8c-1.8,0-3.7,0-5.6,0
		c0-3.7,0-7.4,0-11.2c1.8,0,3.7,0,5.6,0C91.1,98.7,91.1,99.6,91.1,100.5L91.1,100.5z"/>
	<path class="st2" d="M110.9,111.9c0,0.9,0,1.8,0,2.8c-1.9,0-3.7,0-5.6,0c0,1,0,1.8,0,2.8c-1,0-1.9,0-2.9,0c0-1.9,0-3.7,0-5.6
		c0,0,0,0,0,0c0.9,0,1.9,0,2.9,0c0-1,0-1.9,0-2.8c1,0,1.9,0,2.8,0l0,0c0,0.9,0,1.9,0,2.9C109.1,111.9,110,111.9,110.9,111.9
		L110.9,111.9z"/>
	<path class="st2" d="M99.6,89.2c-2.8,0-5.6,0-8.5,0c0-1.8,0-3.7,0-5.6c0.9,0,1.8,0,2.7,0c0,0.9,0,1.8,0,2.7c1.9,0,3.7,0,5.7,0
		C99.6,87.4,99.6,88.3,99.6,89.2C99.6,89.2,99.6,89.2,99.6,89.2z"/>
	<path class="st2" d="M153.4,137.4c0.9,0,1.8,0,2.8,0c0,2.8,0,5.6,0,8.5c-0.9,0-1.9,0-2.8,0c0,0,0,0,0,0c0-0.9,0-1.9,0-2.9
		c-1,0-1.9,0-2.8,0c0-1,0-1.9,0-2.8l0,0c0.9,0,1.9,0,2.9,0C153.4,139.2,153.4,138.3,153.4,137.4L153.4,137.4z"/>
	<path class="st2" d="M147.7,174.2c-1,0-1.9,0-2.8,0c0-0.9,0-1.8,0-2.8c1.8,0,3.7,0,5.6,0c0,0.9,0,1.8,0,2.7c1,0,1.9,0,2.8,0
		c0,1,0,1.8,0,2.8c-1.8,0-3.6,0-5.6,0C147.7,176.1,147.7,175.2,147.7,174.2z"/>
	<path class="st2" d="M153.4,111.9c0-0.9,0-1.8,0-2.8c-1.9,0-3.7,0-5.6,0c0-1,0-1.8,0-2.8c2.8,0,5.6,0,8.4,0c0,1.8,0,3.6,0,5.6
		C155.2,111.9,154.3,111.9,153.4,111.9L153.4,111.9z"/>
	<path class="st2" d="M153.4,111.9c0,0.9,0,1.8,0,2.8c-0.9,0-1.8,0-2.8,0c0,1,0,1.9,0,2.9l0,0c-0.9,0-1.8,0-2.8,0c0-0.9,0-1.8,0-2.8
		c-1,0-1.8,0-2.8,0c0-1,0-1.8,0-2.9C147.8,111.9,150.6,111.9,153.4,111.9C153.4,111.9,153.4,111.9,153.4,111.9z"/>
	<path class="st2" d="M88.3,92.1c-0.9,0-1.8,0-2.8,0c0-2.8,0-5.6,0-8.4c0.9,0,1.8,0,2.7,0C88.3,86.5,88.3,89.3,88.3,92.1L88.3,92.1z
		"/>
	<path class="st2" d="M127.9,100.6c0-0.9,0-1.8,0-2.8c1.9,0,3.7,0,5.6,0c0,1.8,0,3.7,0,5.6c-0.9,0-1.9,0-2.8,0c0,0,0,0,0,0
		c0-0.9,0-1.9,0-2.9C129.7,100.6,128.8,100.6,127.9,100.6L127.9,100.6z"/>
	<path class="st2" d="M65.6,114.7c0-0.9,0-1.9,0-2.8l0,0c1.8,0,3.7,0,5.6,0c0,1.9,0,3.7,0,5.6c-0.9,0-1.8,0-2.7,0c0-0.9,0-1.8,0-2.8
		C67.4,114.7,66.5,114.7,65.6,114.7L65.6,114.7z"/>
	<path class="st2" d="M127.9,134.6c0-1.9,0-3.8,0-5.7c0,0,0,0,0,0c0.9,0,1.8,0,2.8,0c0,1,0,1.9,0,2.9c1,0,1.9,0,2.9,0c0,0,0,0,0,0
		c0,1,0,1.9,0,2.9l0,0C131.7,134.5,129.8,134.5,127.9,134.6L127.9,134.6z"/>
	<path class="st2" d="M102.4,145.9c1.9,0,3.8,0,5.7,0l0,0c0,1.9,0,3.8,0,5.7l0,0c-1,0-1.9,0-2.9,0l0,0c0-0.9,0-1.9,0-2.9
		c-1,0-2,0-2.9,0l0,0C102.4,147.8,102.4,146.8,102.4,145.9L102.4,145.9z"/>
	<path class="st2" d="M77,109c-2.8,0-5.6,0-8.4,0c0-0.9,0-1.8,0-2.8c2.8,0,5.5,0,8.4,0C76.9,107.2,76.9,108.1,77,109
		C76.9,109.1,77,109,77,109z"/>
	<path class="st2" d="M150.5,117.6c1.8,0,3.7,0,5.6,0c0,1.9,0,3.7,0,5.6c-0.9,0-1.9,0-2.8,0c0,0,0,0,0,0c0-0.9,0-1.9,0-2.9
		c-1,0-2,0-2.9,0l0,0C150.6,119.4,150.6,118.5,150.5,117.6C150.6,117.5,150.5,117.6,150.5,117.6z"/>
	<path class="st2" d="M99.6,174.2c0,0.9,0,1.8,0,2.8c-2.8,0-5.6,0-8.5,0c0-0.9,0-1.9,0-2.8l0,0C93.9,174.2,96.8,174.2,99.6,174.2
		L99.6,174.2z"/>
	<path class="st2" d="M108.1,145.9c0-0.9,0-1.8,0-2.8c-1,0-1.8,0-2.8,0c0-0.6,0-1.1,0-1.6c1.8,0,3.6,0,5.6,0c0,1.5,0,3,0,4.5
		c0,0,0,0,0,0C110,145.8,109,145.8,108.1,145.9L108.1,145.9z"/>
	<path class="st2" d="M116.6,117.5c-0.9,0-1.8,0-2.8,0c0-1.9,0-3.8,0-5.7c0,0,0,0,0,0c1,0,1.9,0,2.9,0l0,0
		C116.6,113.8,116.6,115.7,116.6,117.5L116.6,117.5z"/>
	<path class="st2" d="M116.6,174.2c1.8,0,3.7,0,5.6,0c0,0.9,0,1.8,0,2.8c-1.8,0-3.7,0-5.6,0C116.6,176,116.6,175.1,116.6,174.2
		C116.6,174.2,116.6,174.2,116.6,174.2z"/>
	<path class="st2" d="M133.6,174.2c0,0.9,0,1.8,0,2.8c-1.9,0-3.7,0-5.6,0c0-0.9,0-1.9,0-2.8l0,0
		C129.8,174.2,131.7,174.2,133.6,174.2L133.6,174.2z"/>
	<path class="st2" d="M96.8,120.4c1.1,0,2.2,0,3.5,0c-1.7,1.6-2,3.5-1.8,5.6c-0.6,0-1.1,0-1.7,0C96.8,124.1,96.8,122.2,96.8,120.4
		L96.8,120.4z"/>
	<path class="st2" d="M113.7,94.9c0.9,0,1.8,0,2.8,0c0,1,0,1.9,0,2.8c0,0,0,0,0,0c-1,0-1.9,0-2.9,0
		C113.7,96.8,113.8,95.8,113.7,94.9L113.7,94.9z"/>
	<path class="st2" d="M125.1,100.6c1,0,1.9,0,2.9,0l0,0c0,1,0,1.9,0,2.9c0,0,0,0,0,0c-1,0-1.9,0-2.9,0
		C125.1,102.5,125.1,101.5,125.1,100.6L125.1,100.6z"/>
	<path class="st2" d="M142.1,120.4c0-0.9,0-1.8,0-2.8c0.9,0,1.8,0,2.8,0c0,0.9,0,1.9,0,2.8l0,0C144,120.4,143,120.4,142.1,120.4
		L142.1,120.4z"/>
	<path class="st2" d="M96.8,120.4c-1,0-1.9,0-2.9,0c0,0,0,0,0,0c0-0.9,0-1.8,0-2.8c1,0,1.8,0,2.8,0
		C96.8,118.5,96.8,119.5,96.8,120.4C96.8,120.4,96.8,120.4,96.8,120.4z"/>
	<path class="st2" d="M139.2,111.9c0.9,0,1.9,0,2.8,0c0,0.9,0,1.8,0,2.7c-0.9,0-1.8,0-2.8,0C139.2,113.8,139.2,112.8,139.2,111.9
		C139.2,111.9,139.2,111.9,139.2,111.9z"/>
	<path class="st2" d="M65.7,120.4c0.9,0,1.8,0,2.7,0c0,0.9,0,1.8,0,2.7c-0.9,0-1.8,0-2.7,0C65.7,122.2,65.7,121.4,65.7,120.4z"/>
	<path class="st2" d="M65.6,114.7c0,0.9,0,1.9,0,2.8c-0.9,0-1.8,0-2.7,0c0-0.9,0-1.8,0-2.8C63.8,114.7,64.7,114.7,65.6,114.7
		C65.6,114.7,65.6,114.7,65.6,114.7z"/>
	<path class="st2" d="M105.3,86.4c0-0.9,0-1.8,0-2.8c0.9,0,1.8,0,2.8,0c0,0.9,0,1.8,0,2.7C107.1,86.4,106.2,86.4,105.3,86.4
		L105.3,86.4z"/>
	<path class="st2" d="M105.2,86.4c0,1,0,1.9,0,2.9c0,0,0,0,0,0c-1,0-1.9,0-2.9,0c0,0,0,0,0,0c0-0.9,0-1.8,0-2.9
		C103.4,86.4,104.3,86.4,105.2,86.4C105.3,86.4,105.2,86.4,105.2,86.4z"/>
	<path class="st2" d="M79.8,151.5c0.9,0,1.8,0,2.8,0c0,0.9,0,1.8,0,2.8c-0.9,0-1.8,0-2.8,0C79.8,153.4,79.8,152.4,79.8,151.5
		C79.8,151.5,79.8,151.5,79.8,151.5z"/>
	<path class="st2" d="M150.5,151.5c0.9,0,1.8,0,2.8,0c0,1,0,1.9,0,2.8l0,0c-0.9,0-1.9,0-2.8,0C150.6,153.3,150.6,152.4,150.5,151.5
		L150.5,151.5z"/>
	<path class="st2" d="M88.3,157.2c-0.9,0-1.8,0-2.8,0c0-0.9,0-1.8,0-2.8c0.9,0,1.9,0,2.8,0c0,0,0,0,0,0
		C88.3,155.3,88.3,156.2,88.3,157.2L88.3,157.2z"/>
	<path class="st2" d="M88.3,92.1c0.9,0,1.8,0,2.8,0c0,0.9,0,1.8,0,2.8c-0.9,0-1.8,0-2.8,0C88.3,93.9,88.3,93,88.3,92.1
		C88.3,92.1,88.3,92.1,88.3,92.1z"/>
	<path class="st2" d="M65.6,111.9c-0.9,0-1.8,0-2.8,0c0-0.9,0-1.8,0-2.7c0.9,0,1.8,0,2.8,0C65.6,110,65.6,111,65.6,111.9
		C65.6,111.9,65.6,111.9,65.6,111.9z"/>
	<path class="st2" d="M153.4,154.4c0.9,0,1.8,0,2.8,0c0,0.9,0,1.8,0,2.8c-0.9,0-1.9,0-2.8,0l0,0
		C153.4,156.2,153.4,155.3,153.4,154.4L153.4,154.4z"/>
	<path class="st2" d="M79.8,109.1c0-0.9,0-1.8,0-2.8c0.9,0,1.8,0,2.8,0c0,0.9,0,1.8,0,2.8C81.6,109,80.7,109,79.8,109.1
		C79.8,109,79.8,109.1,79.8,109.1z"/>
	<path class="st2" d="M119.4,97.7c0-0.9,0-1.8,0-2.8c0.9,0,1.8,0,2.8,0c0,0.9,0,1.9,0,2.8l0,0C121.3,97.7,120.4,97.7,119.4,97.7
		L119.4,97.7z"/>
	<path class="st2" d="M93.9,100.6c0-0.9,0-1.8,0-2.8c0.9,0,1.8,0,2.8,0c0,0.9,0,1.9,0,2.8c0,0,0,0,0,0
		C95.8,100.6,94.9,100.6,93.9,100.6L93.9,100.6z"/>
	<path class="st2" d="M125.1,171.3c-0.9,0-1.8,0-2.8,0c0-0.9,0-1.8,0-2.8c0.9,0,1.8,0,2.7,0C125.1,169.5,125.1,170.4,125.1,171.3
		L125.1,171.3z"/>
	<path class="st2" d="M91.1,174.2c-0.9,0-1.8,0-2.8,0c0-1,0-1.9,0-2.8c0,0,0,0,0,0c1,0,1.9,0,2.9,0l0,0
		C91.1,172.3,91.1,173.2,91.1,174.2L91.1,174.2z"/>
	<path class="st2" d="M125.1,171.4c1,0,1.9,0,2.9,0c0,0,0,0,0,0c0,1,0,1.9,0,2.9l0,0c-0.9,0-1.8,0-2.8,0
		C125.1,173.2,125.1,172.3,125.1,171.4C125.1,171.3,125.1,171.4,125.1,171.4z"/>
	<path class="st2" d="M116.6,97.7c1,0,1.9,0,2.9,0c0,0,0,0,0,0c0,1,0,1.9,0,2.9c-1,0-1.9,0-2.9,0C116.6,99.6,116.6,98.7,116.6,97.7
		C116.6,97.7,116.6,97.7,116.6,97.7z"/>
	<path class="st2" d="M122.2,97.7c0.9,0,1.8,0,2.8,0c0,1,0,1.9,0,2.8c0,0,0,0,0,0c-1,0-1.9,0-2.9,0
		C122.2,99.6,122.2,98.7,122.2,97.7L122.2,97.7z"/>
	<path class="st2" d="M91.1,100.6c0.9,0,1.9,0,2.8,0c0,0,0,0,0,0c0,1,0,1.9,0,2.9c0,0,0,0,0,0c-0.9,0-1.8,0-2.8,0
		C91.1,102.4,91.1,101.5,91.1,100.6C91.1,100.5,91.1,100.6,91.1,100.6z"/>
	<path class="st2" d="M71.3,151.5c0,0.9,0,1.8,0,2.8c-0.9,0-1.8,0-2.8,0c0-0.9,0-1.8,0-2.8C69.4,151.5,70.4,151.5,71.3,151.5
		C71.3,151.5,71.3,151.5,71.3,151.5z"/>
	<path class="st2" d="M96.7,154.3c1,0,1.9,0,2.9,0c0,1.8,0,3.7,0,5.7c-1,0-1.9,0-2.9,0C96.7,158.1,96.7,156.2,96.7,154.3z"/>
	<path class="st2" d="M91.1,143c0.9,0,1.8,0,2.8,0c0,0.9,0,1.8,0,2.8c-0.9,0-1.8,0-2.7,0C91.1,144.9,91.1,143.9,91.1,143
		C91.1,143,91.1,143,91.1,143z"/>
	<path class="st2" d="M139.2,157.2c0,0.9,0,1.8,0,2.7c-0.9,0-1.8,0-2.7,0c0-0.9,0-1.8,0-2.7C137.4,157.2,138.2,157.2,139.2,157.2z"
		/>
	<path class="st2" d="M88.3,131.7c0.9,0,1.8,0,2.8,0c0,1,0,1.8,0,2.9c-0.9,0-1.9,0-2.8,0C88.3,133.6,88.3,132.6,88.3,131.7z"/>
	<path class="st2" d="M122.2,103.4c1,0,1.9,0,2.9,0c0,1,0,1.9,0,2.9c-1,0-1.9,0-2.9,0C122.2,105.3,122.2,104.3,122.2,103.4z"/>
	<path class="st2" d="M76.9,89.3c0,2.8,0,5.6,0,8.4c-2.8,0-5.5,0-8.4,0c0-2.8,0-5.5,0-8.4C71.3,89.3,74.1,89.3,76.9,89.3z"/>
	<path class="st2" d="M76.9,171.3c-2.8,0-5.6,0-8.4,0c0-2.8,0-5.6,0-8.4c2.8,0,5.5,0,8.4,0C76.9,165.7,76.9,168.4,76.9,171.3z"/>
	<path class="st2" d="M150.5,97.7c-2.8,0-5.6,0-8.4,0c0-2.8,0-5.6,0-8.4c2.8,0,5.5,0,8.4,0C150.5,92.1,150.5,94.9,150.5,97.7z"/>
	<path class="st2" d="M113.8,97.7c0,1,0,1.9,0,2.9c-1,0-1.9,0-2.9,0c0-0.9,0-1.8,0-2.9C111.9,97.7,112.8,97.7,113.8,97.7z"/>
	<path class="st2" d="M113.7,100.6c1,0,1.9,0,2.9,0c0,0.9,0,1.8,0,2.9c-1,0-1.9,0-2.9,0C113.7,102.5,113.7,101.5,113.7,100.6z"/>
	<path class="st2" d="M119.4,100.6c1,0,1.9,0,2.9,0c0,1,0,1.9,0,2.9c-0.9,0-1.8,0-2.9,0C119.4,102.4,119.4,101.5,119.4,100.6z"/>
</g>
<g id="Group_79_1_" transform="translate(38.349 42.797)">
	<path id="Path_176_1_" class="st2" d="M66.5,92.5H63l1.1-8.9h1l-0.9,7.4h2.4L66.5,92.5z"/>
	<path id="Path_177_1_" class="st2" d="M68.4,92.5h-1l1.1-8.9h1L68.4,92.5z"/>
	<path id="Path_178_1_" class="st2" d="M73.7,92.5h-0.9L71.4,87l-0.7,5.5h-1l1.1-8.9h0.9l1.5,5.6l0.7-5.6h1L73.7,92.5z"/>
	<path id="Path_179_1_" class="st2" d="M79.4,85.1h-2.5l-0.3,2.2h2.1l-0.2,1.4h-2.1l-0.3,2.3h2.5l-0.2,1.4H75l1.1-8.9h3.5L79.4,85.1
		z"/>
</g>
</svg>
