<svg id="グループ_144" data-name="グループ 144" xmlns="http://www.w3.org/2000/svg" width="59.963" height="59.077" viewBox="0 0 59.963 59.077">
  <path id="パス_14" data-name="パス 14" d="M-595.549,1797.074c1.689-.44,3.375-.84,5.037-1.32a71.427,71.427,0,0,0,9.644-3.294,9.623,9.623,0,0,0,3.468-2.375,4.972,4.972,0,0,0,1.344-2.7,1.739,1.739,0,0,0-.415-1.464,23.559,23.559,0,0,0-1.852-1.665c-.592-.485-1.268-.873-1.836-1.382a4.546,4.546,0,0,1-1.419-4.219,9.47,9.47,0,0,1,5.328-7.473,25.343,25.343,0,0,1,7.305-2.34c2.952-.535,5.921-.982,8.868-1.543,1.886-.359,3.741-.883,5.62-1.285a24.618,24.618,0,0,1,7.047-.691,14.974,14.974,0,0,1,8.979,3.574,8.022,8.022,0,0,1,2.777,5.452,13.022,13.022,0,0,1-1.292,7.19,8.887,8.887,0,0,1-3.45,3.578,21.242,21.242,0,0,1-5.181,2.171,48.669,48.669,0,0,1-7.534,1.725c-.256.033-.286.155-.286.376q0,10.21-.008,20.421c0,.531.036.463-.465.463q-2.069,0-4.138,0h-.392c-.008-.15-.018-.267-.019-.385q-.012-4.5-.021-9.009-.012-5.188-.024-10.377t-.035-10.376c0-1.379-.052-2.76,0-4.137a2.839,2.839,0,0,0-2.5-2.855,10.317,10.317,0,0,0-4.255.385,25.253,25.253,0,0,0-6.789,2.962,4.727,4.727,0,0,0-1.043.971,2.707,2.707,0,0,0,.01,3.636,28.631,28.631,0,0,0,2.2,2.077c.654.6,1.37,1.144,1.969,1.795a4.792,4.792,0,0,1,.618,6.1,13.408,13.408,0,0,1-3.347,3.636,27.494,27.494,0,0,1-7.782,4.252c-2.462.9-4.965,1.687-7.453,2.513q-2.246.745-4.506,1.448a6.3,6.3,0,0,1-1.142.226.439.439,0,0,1-.357-.194c-.891-1.914-1.766-3.837-2.642-5.758A.543.543,0,0,1-595.549,1797.074Zm48.814-23.031a14.076,14.076,0,0,0-1.638-1.067,6.71,6.71,0,0,0-4.569-.223c-.25.06-.3.179-.3.414q.011,4.255.005,8.509c0,.1.009.207.013.281.738-.254,1.427-.54,2.143-.728a4.395,4.395,0,0,1,3.52.357,1.415,1.415,0,0,0,1.551.083,6.134,6.134,0,0,1,5.314.3l.31.143a.9.9,0,0,0,.032-.154c0-2.948,0-5.9-.009-8.843a.4.4,0,0,0-.234-.282,6.21,6.21,0,0,0-3.517-.154A6.177,6.177,0,0,0-546.735,1774.042Z" transform="translate(595.549 -1751.192)"/>
  <circle id="楕円形_3" data-name="楕円形 3" cx="5.59" cy="5.59" r="5.59" transform="translate(16.046 3.337)" fill="#f4b82c"/>
  <circle id="楕円形_4" data-name="楕円形 4" cx="5.59" cy="5.59" r="5.59" transform="translate(39.806)" fill="#f4b82c"/>
</svg>
